<svg xmlns="http://www.w3.org/2000/svg" xmlns:xlink="http://www.w3.org/1999/xlink" width="500" zoomAndPan="magnify" viewBox="0 0 375 374.999991" height="500" preserveAspectRatio="xMidYMid meet" version="1.0"><defs><g/><clipPath id="6a036f8a13"><path d="M 0 43.203125 L 374 43.203125 L 374 331.953125 L 0 331.953125 Z M 0 43.203125 " clip-rule="nonzero"/></clipPath></defs><g clip-path="url(#6a036f8a13)"><path fill="#f2d6a1" d="M 171.160156 141.042969 C 171.160156 140.121094 171.160156 139.308594 171.160156 138.386719 C 170.617188 138.386719 170.125 138.332031 169.652344 138.386719 C 164.847656 139.007812 160.101562 138.5 155.371094 137.765625 C 128.441406 133.621094 102.964844 124.820312 78.390625 113.25 C 61.730469 105.410156 45.882812 96.175781 31.277344 84.90625 C 24.136719 79.402344 17.445312 73.410156 11.792969 66.324219 C 9.042969 62.875 6.574219 59.238281 4.878906 55.132812 C 4.125 53.324219 3.539062 51.476562 3.558594 49.476562 C 3.597656 46.785156 4.746094 45.050781 7.328125 44.257812 C 8.628906 43.863281 10.023438 43.65625 11.398438 43.578125 C 16.335938 43.316406 21.195312 43.957031 26.039062 44.824219 C 39.683594 47.273438 53.0625 50.664062 66.007812 55.679688 C 75.054688 59.183594 83.761719 63.460938 91.996094 68.585938 C 117.152344 84.226562 142.441406 99.660156 167.148438 116.019531 C 169.972656 117.882812 172.746094 119.863281 175.683594 121.878906 C 176.324219 121.105469 176.964844 120.335938 177.71875 119.410156 C 177.457031 119.070312 177.042969 118.5625 176.625 118.015625 C 170.011719 109.214844 174.347656 96.550781 184.957031 93.59375 C 186.464844 93.179688 187.914062 93.179688 189.402344 93.59375 C 200.089844 96.550781 204.382812 109.367188 197.636719 118.148438 C 197.300781 118.601562 196.941406 119.035156 196.507812 119.5625 C 197.203125 120.296875 197.882812 121.011719 198.617188 121.785156 C 198.917969 121.632812 199.222656 121.539062 199.449219 121.371094 C 215.371094 110.101562 232.046875 99.980469 248.59375 89.675781 C 259.429688 82.925781 270.191406 76.050781 281.042969 69.320312 C 299.53125 57.863281 319.636719 50.515625 340.914062 46.257812 C 345.90625 45.257812 350.9375 44.464844 355.988281 43.804688 C 359.289062 43.371094 362.640625 43.203125 365.9375 43.917969 C 369.765625 44.75 371.292969 47.066406 370.707031 50.929688 C 370.3125 53.511719 369.273438 55.867188 368.050781 58.148438 C 365.035156 63.742188 361.003906 68.550781 356.574219 73.054688 C 348.453125 81.289062 339.273438 88.242188 329.570312 94.5 C 299.210938 114.117188 266.328125 127.738281 231.070312 135.617188 C 224.679688 137.050781 218.234375 138.199219 211.695312 138.5 C 209.320312 138.613281 206.929688 138.40625 204.535156 138.367188 C 204.160156 138.367188 203.78125 138.367188 203.253906 138.367188 C 203.253906 139.214844 203.253906 140.046875 203.253906 141.0625 C 203.820312 141.136719 204.421875 141.25 205.042969 141.308594 C 214.957031 142.117188 224.867188 142.835938 234.761719 143.738281 C 251.175781 145.246094 267.550781 146.980469 283.851562 149.390625 C 300.339844 151.824219 316.71875 154.855469 332.640625 159.90625 C 340.632812 162.433594 348.414062 165.449219 355.839844 169.347656 C 359.511719 171.289062 363.113281 173.382812 366.316406 176.058594 C 367.898438 177.375 369.464844 178.789062 370.761719 180.390625 C 374.929688 185.460938 373.984375 190.417969 368.332031 193.808594 C 365.714844 195.375 362.828125 196.277344 359.871094 196.898438 C 352.84375 198.40625 345.738281 198.386719 338.632812 197.839844 C 323.199219 196.65625 308.257812 192.941406 293.351562 188.984375 C 271.90625 183.292969 250.609375 177.019531 229.804688 169.273438 C 223.039062 166.765625 216.40625 163.863281 209.773438 161 C 206.25 159.472656 202.933594 157.53125 200.164062 154.78125 C 200.050781 154.667969 199.863281 154.613281 199.542969 154.441406 C 199.050781 155.066406 198.5625 155.707031 198.109375 156.269531 C 198.503906 158.15625 199.070312 160.097656 199.335938 162.074219 C 199.898438 166.371094 199.316406 170.480469 196.808594 174.171875 C 196.507812 174.625 196.300781 175.191406 196.1875 175.71875 C 195.054688 181.125 194.679688 186.535156 196.113281 191.980469 C 196.867188 194.84375 197.203125 197.804688 196.582031 200.761719 C 196.449219 201.382812 196.394531 202.042969 196.113281 202.570312 C 195.167969 204.230469 195.300781 205.984375 195.566406 207.714844 C 195.886719 209.882812 196.320312 212.050781 196.753906 214.199219 C 197.601562 218.34375 196.789062 222 194.058594 225.316406 C 192.625 227.070312 192.363281 229.367188 192.476562 231.574219 C 192.570312 233.4375 193.003906 235.304688 193.304688 237.171875 C 193.625 239.148438 194.078125 241.128906 194.304688 243.125 C 194.625 245.820312 194.246094 248.402344 192.304688 250.625 C 193.964844 254.546875 194.980469 258.597656 195.039062 262.855469 C 195.09375 267.113281 194.566406 271.261719 192.777344 275.238281 C 195.753906 277.742188 195.980469 280.925781 195.207031 284.394531 C 194.320312 288.332031 194.398438 292.253906 195.488281 296.152344 C 195.714844 296.945312 195.941406 297.738281 196.035156 298.546875 C 196.507812 302.222656 196.09375 305.613281 192.796875 308.042969 C 193.871094 313.90625 193.398438 319.710938 192.363281 325.496094 C 192.15625 326.605469 191.835938 327.699219 191.4375 328.753906 C 190.628906 330.980469 189.253906 331.789062 187.21875 331.789062 C 185.105469 331.789062 183.730469 331.035156 182.941406 328.832031 C 182.449219 327.472656 182.054688 326.058594 181.828125 324.648438 C 180.980469 319.484375 180.566406 314.28125 181.414062 309.0625 C 181.527344 308.382812 181.394531 307.914062 180.828125 307.421875 C 178.417969 305.332031 177.90625 302.523438 178.191406 299.527344 C 178.304688 298.285156 178.605469 297.039062 178.925781 295.832031 C 179.90625 292.234375 180.039062 288.636719 179.246094 284.996094 C 179.171875 284.695312 179.171875 284.375 179.09375 284.074219 C 178.304688 280.71875 178.757812 277.6875 181.546875 275.253906 C 179.8125 271.277344 179.246094 267.132812 179.320312 262.894531 C 179.398438 258.691406 180.261719 254.65625 182.074219 250.71875 C 179.398438 247.574219 179.699219 243.917969 180.433594 240.203125 C 180.808594 238.28125 181.207031 236.378906 181.601562 234.476562 C 182.1875 231.6875 181.882812 228.972656 180.960938 226.316406 C 180.808594 225.863281 180.414062 225.488281 180.113281 225.109375 C 177.71875 222.152344 176.796875 218.835938 177.476562 215.046875 C 178.019531 212.011719 178.492188 208.980469 178.90625 205.925781 C 179 205.210938 178.964844 204.363281 178.679688 203.722656 C 177.265625 200.667969 177.378906 197.484375 177.777344 194.28125 C 177.871094 193.46875 178.058594 192.660156 178.265625 191.886719 C 179.679688 186.589844 179.300781 181.277344 178.226562 176 C 178.097656 175.398438 177.925781 174.757812 177.585938 174.25 C 174.742188 170.140625 174.515625 165.5625 175.214844 160.851562 C 175.4375 159.304688 175.96875 157.816406 176.382812 156.214844 C 175.890625 155.722656 175.34375 155.160156 174.796875 154.59375 C 174.628906 154.632812 174.476562 154.632812 174.402344 154.707031 C 171.332031 157.683594 167.617188 159.679688 163.792969 161.472656 C 153.898438 166.011719 143.6875 169.78125 133.378906 173.25 C 109.898438 181.164062 86.152344 188.136719 61.976562 193.640625 C 49.257812 196.542969 36.421875 198.707031 23.289062 197.972656 C 19.785156 197.785156 16.296875 197.164062 12.867188 196.445312 C 10.8125 196.015625 8.816406 195.109375 6.875 194.222656 C 5.742188 193.714844 4.707031 192.941406 3.765625 192.113281 C 0.710938 189.398438 0.0703125 185.933594 2.203125 182.445312 C 3.292969 180.65625 4.765625 179.015625 6.289062 177.546875 C 9.117188 174.832031 12.433594 172.757812 15.824219 170.820312 C 24.71875 165.75 34.238281 162.148438 44 159.171875 C 56.171875 155.480469 68.589844 152.785156 81.140625 150.882812 C 93.070312 149.070312 105.035156 147.46875 117.019531 146.039062 C 126.574219 144.886719 136.167969 144.078125 145.742188 143.210938 C 153.5625 142.496094 161.417969 141.929688 169.238281 141.289062 C 169.898438 141.25 170.503906 141.136719 171.160156 141.042969 Z M 32.691406 195.035156 C 32.730469 195.148438 32.785156 195.277344 32.824219 195.390625 C 33.691406 195.355469 34.578125 195.335938 35.441406 195.261719 C 44.300781 194.523438 53.023438 193 61.675781 191.039062 C 77.804688 187.402344 93.710938 182.898438 109.539062 178.128906 C 121.449219 174.53125 133.304688 170.707031 144.949219 166.332031 C 145.53125 166.109375 146.285156 166.089844 146.589844 165.542969 C 140.765625 164.296875 135 163.074219 129.214844 161.886719 C 128.648438 161.773438 127.96875 161.925781 127.40625 162.113281 C 115.625 166.144531 103.828125 170.101562 92.128906 174.324219 C 88.132812 175.773438 84.230469 176.058594 80.105469 175.546875 C 74.488281 174.871094 68.855469 174.398438 63.21875 173.832031 C 62.257812 173.738281 61.390625 173.871094 60.542969 174.457031 C 54.664062 178.542969 48.691406 182.503906 42.886719 186.722656 C 39.363281 189.304688 36.082031 192.265625 32.691406 195.035156 Z M 227.789062 165.355469 C 227.769531 165.464844 227.753906 165.597656 227.734375 165.710938 C 228.542969 166.03125 229.335938 166.351562 230.164062 166.652344 C 249.574219 173.816406 269.378906 179.769531 289.335938 185.195312 C 304.148438 189.230469 318.996094 193.054688 334.28125 194.808594 C 336.671875 195.089844 339.085938 195.222656 341.78125 195.46875 C 341.441406 194.996094 341.386719 194.828125 341.253906 194.714844 C 333.148438 187.816406 324.667969 181.429688 315.71875 175.644531 C 313.363281 174.117188 311.121094 173.683594 308.464844 174.023438 C 303.414062 174.664062 298.34375 175.132812 293.273438 175.699219 C 289.730469 176.09375 286.339844 175.851562 282.890625 174.625 C 271 170.367188 259.035156 166.332031 247.105469 162.167969 C 246.164062 161.847656 245.335938 161.828125 244.371094 162.074219 C 241.808594 162.714844 239.226562 163.300781 236.648438 163.808594 C 233.707031 164.375 230.75 164.84375 227.789062 165.355469 Z M 112.347656 165.316406 C 111.726562 165.015625 111.367188 164.808594 110.972656 164.65625 C 106.109375 162.601562 101.25 160.546875 96.367188 158.511719 C 92.542969 156.910156 88.714844 155.289062 84.871094 153.746094 C 84.101562 153.425781 83.140625 153.238281 82.347656 153.351562 C 70.285156 155.253906 58.359375 157.703125 46.636719 161.132812 C 36.835938 163.996094 27.300781 167.519531 18.3125 172.421875 C 17.671875 172.777344 17.050781 173.175781 16.222656 173.664062 C 16.675781 173.71875 16.785156 173.777344 16.917969 173.757812 C 25.359375 172.25 33.917969 171.894531 42.472656 171.667969 C 55.964844 171.308594 69.382812 172.363281 82.742188 174.058594 C 85.15625 174.363281 87.472656 174.117188 89.789062 173.289062 C 96.839844 170.78125 103.90625 168.332031 110.972656 165.882812 C 111.347656 165.730469 111.726562 165.5625 112.347656 165.316406 Z M 262.03125 165.316406 C 262.464844 165.503906 262.707031 165.617188 262.992188 165.710938 C 270.398438 168.3125 277.820312 170.875 285.226562 173.496094 C 287.300781 174.230469 289.394531 174.285156 291.558594 174.042969 C 300.246094 173.0625 308.914062 172.003906 317.679688 171.742188 C 326.554688 171.476562 335.410156 171.535156 344.269531 172.230469 C 348.773438 172.589844 353.257812 173.136719 357.949219 173.609375 C 357.402344 173.25 356.96875 172.910156 356.5 172.683594 C 351.957031 170.535156 347.492188 168.199219 342.835938 166.316406 C 327.535156 160.152344 311.496094 156.722656 295.347656 153.78125 C 292.085938 153.179688 289.242188 153.59375 286.265625 154.894531 C 278.5 158.304688 270.640625 161.527344 262.820312 164.824219 C 262.59375 164.9375 262.386719 165.089844 262.03125 165.316406 Z M 253.664062 118.488281 C 253.71875 118.601562 253.757812 118.714844 253.8125 118.808594 C 254.53125 118.46875 255.285156 118.1875 255.980469 117.808594 C 257.996094 116.660156 260.015625 115.492188 261.992188 114.265625 C 265.835938 111.929688 269.90625 110.140625 274.316406 109.214844 C 278.6875 108.3125 283.078125 107.519531 287.453125 106.613281 C 289.9375 106.105469 292.464844 105.957031 294.78125 104.503906 C 305.390625 97.851562 314.890625 89.84375 324.011719 81.324219 C 324.40625 80.96875 324.746094 80.535156 325.199219 80.042969 C 324.859375 79.929688 324.707031 79.835938 324.539062 79.835938 C 316.71875 79.460938 308.972656 79.929688 301.339844 81.929688 C 290.769531 84.699219 280.742188 88.84375 270.847656 93.347656 C 269.984375 93.746094 269.492188 94.402344 269.023438 95.15625 C 266.570312 99.039062 264.179688 102.960938 261.652344 106.785156 C 259.035156 110.742188 256.320312 114.605469 253.664062 118.488281 Z M 49.21875 79.988281 C 49.464844 80.328125 49.652344 80.683594 49.933594 80.949219 C 51.160156 82.117188 52.382812 83.304688 53.648438 84.433594 C 61.824219 91.726562 70.191406 98.757812 79.597656 104.484375 C 80.894531 105.277344 82.214844 105.878906 83.742188 106.125 C 87.585938 106.726562 91.410156 107.464844 95.253906 108.140625 C 102.078125 109.347656 108.503906 111.589844 114.308594 115.472656 C 115.757812 116.453125 117.339844 117.242188 118.886719 118.089844 C 119.414062 118.375 120 118.5625 120.734375 118.863281 C 120.601562 118.429688 120.582031 118.261719 120.488281 118.128906 C 115.0625 110.554688 109.878906 102.828125 105.074219 94.855469 C 104.714844 94.253906 104.074219 93.726562 103.433594 93.425781 C 95.519531 89.710938 87.453125 86.355469 79.105469 83.699219 C 69.4375 80.589844 59.5625 79.007812 49.21875 79.988281 Z M 23.101562 46.933594 C 23.15625 47.253906 23.136719 47.386719 23.195312 47.480469 C 23.34375 47.6875 23.515625 47.875 23.703125 48.046875 C 34.859375 58.636719 46.410156 68.699219 59.601562 76.765625 C 61.070312 77.667969 62.523438 78.441406 64.3125 78.480469 C 65.253906 78.5 66.179688 78.742188 67.101562 78.914062 C 75.054688 80.328125 82.707031 82.8125 90.207031 85.773438 C 90.828125 86.019531 91.449219 86.226562 92.203125 86.488281 C 92.109375 86.132812 92.109375 85.980469 92.050781 85.90625 C 87.152344 79.554688 83.082031 72.695312 79.632812 65.457031 C 79.257812 64.667969 78.691406 64.175781 77.917969 63.820312 C 74.433594 62.234375 70.984375 60.539062 67.441406 59.070312 C 55.851562 54.246094 43.773438 51.042969 31.503906 48.5 C 28.714844 47.933594 25.925781 47.460938 23.101562 46.933594 Z M 351.523438 47.066406 C 350.824219 47.121094 350.410156 47.105469 350.015625 47.179688 C 344.777344 48.253906 339.519531 49.214844 334.335938 50.421875 C 321.390625 53.453125 308.820312 57.621094 296.894531 63.574219 C 295.761719 64.140625 295.007812 64.875 294.460938 66.023438 C 291.21875 72.789062 287.375 79.195312 282.855469 85.1875 C 282.644531 85.472656 282.476562 85.792969 282.136719 86.355469 C 282.816406 86.167969 283.230469 86.09375 283.605469 85.960938 C 285.191406 85.378906 286.773438 84.753906 288.375 84.171875 C 295.367188 81.628906 302.453125 79.496094 309.859375 78.535156 C 311.875 78.273438 313.589844 77.574219 315.230469 76.484375 C 318.300781 74.410156 321.464844 72.449219 324.480469 70.28125 C 333.808594 63.59375 342.347656 55.980469 350.65625 48.082031 C 350.84375 47.839844 351.070312 47.554688 351.523438 47.066406 Z M 70.210938 105.878906 C 70.191406 105.972656 70.15625 106.085938 70.136719 106.183594 C 70.664062 106.484375 71.191406 106.785156 71.71875 107.066406 C 90.261719 116.527344 109.539062 124.066406 129.609375 129.585938 C 140.351562 132.546875 151.1875 135.015625 162.324219 135.917969 C 166.449219 136.257812 170.484375 135.992188 174.421875 134.597656 C 176.304688 133.941406 177.90625 132.867188 179.019531 131.152344 C 179.527344 130.359375 179.980469 129.550781 179.792969 128.476562 C 179.378906 128.398438 179.019531 128.285156 178.660156 128.25 C 175.023438 127.964844 171.386719 127.777344 167.75 127.402344 C 161.625 126.777344 155.484375 126.136719 149.394531 125.328125 C 141.992188 124.347656 134.601562 123.066406 127.199219 122.105469 C 122.484375 121.503906 118.132812 120.089844 114.195312 117.46875 C 113.515625 117.015625 112.800781 116.621094 112.101562 116.1875 C 107.65625 113.324219 102.8125 111.421875 97.628906 110.460938 C 89.773438 109.007812 81.914062 107.6875 74.035156 106.351562 C 72.773438 106.105469 71.472656 106.03125 70.210938 105.878906 Z M 304.128906 106.21875 C 304.089844 106.105469 304.054688 106.011719 304.015625 105.898438 C 303.527344 105.9375 303.015625 105.9375 302.527344 106.03125 C 295.027344 107.253906 287.507812 108.460938 280.007812 109.722656 C 273.054688 110.910156 266.476562 113.117188 260.617188 117.148438 C 259.484375 117.921875 258.242188 118.5625 257.035156 119.242188 C 254.585938 120.617188 251.949219 121.371094 249.179688 121.746094 C 246.371094 122.125 243.582031 122.519531 240.773438 122.972656 C 225.925781 125.382812 211.035156 127.304688 196.019531 128.210938 C 195.546875 128.25 195.074219 128.363281 194.546875 128.457031 C 194.398438 129.8125 195 130.753906 195.699219 131.660156 C 196.980469 133.335938 198.75 134.261719 200.710938 134.863281 C 204.234375 135.957031 207.871094 136.21875 211.527344 135.957031 C 218.199219 135.484375 224.753906 134.335938 231.257812 132.902344 C 256.132812 127.402344 279.820312 118.617188 302.507812 107.125 C 303.074219 106.839844 303.601562 106.519531 304.128906 106.21875 Z M 58.300781 173.625 C 57.339844 173.570312 56.738281 173.496094 56.132812 173.496094 C 50.292969 173.496094 44.449219 173.398438 38.609375 173.53125 C 30.882812 173.703125 23.195312 174.472656 15.542969 175.699219 C 10.472656 176.507812 7.214844 179.5625 4.574219 183.519531 C 2.878906 186.082031 3.3125 188.476562 5.761719 190.324219 C 7.289062 191.472656 9.0625 192.394531 10.851562 193.09375 C 14.863281 194.65625 19.125 195.242188 23.402344 195.355469 C 30.109375 195.523438 28.132812 196.464844 33.558594 191.960938 C 41.058594 185.726562 48.804688 179.84375 57.019531 174.585938 C 57.378906 174.398438 57.679688 174.117188 58.300781 173.625 Z M 316.414062 173.417969 C 316.378906 173.589844 316.339844 173.738281 316.285156 173.910156 C 316.792969 174.265625 317.28125 174.625 317.792969 174.945312 C 325.027344 179.636719 332.039062 184.613281 338.597656 190.246094 C 340.367188 191.753906 342.234375 193.148438 344.042969 194.601562 C 344.851562 195.261719 345.757812 195.542969 346.832031 195.523438 C 350.601562 195.46875 354.367188 195.296875 358.101562 194.582031 C 361.566406 193.902344 364.976562 193.015625 367.917969 190.925781 C 371.082031 188.664062 371.648438 185.933594 369.3125 182.839844 C 367.972656 181.050781 366.203125 179.582031 364.601562 178 C 363.582031 177 362.300781 176.453125 360.925781 176.207031 C 357.648438 175.644531 354.367188 175.039062 351.070312 174.625 C 342.441406 173.550781 333.773438 173.382812 325.085938 173.417969 C 322.183594 173.4375 319.300781 173.417969 316.414062 173.417969 Z M 81.988281 66.117188 C 82.328125 66.890625 82.480469 67.34375 82.707031 67.757812 C 83.855469 69.847656 84.964844 71.960938 86.171875 74.03125 C 88.867188 78.667969 91.902344 83.058594 95.351562 87.167969 C 95.800781 87.714844 96.386719 88.242188 97.027344 88.542969 C 99.871094 89.882812 102.792969 91.050781 105.621094 92.40625 C 116.078125 97.34375 126.480469 102.414062 136.957031 107.273438 C 148.019531 112.402344 159.15625 117.355469 170.277344 122.371094 C 170.917969 122.652344 171.59375 122.859375 172.652344 123.234375 C 167.183594 118.429688 88.152344 68.664062 81.988281 66.117188 Z M 202.253906 122.632812 C 202.3125 122.746094 202.367188 122.859375 202.425781 122.972656 C 203.046875 122.726562 203.6875 122.519531 204.289062 122.257812 C 214.316406 117.753906 224.378906 113.304688 234.347656 108.6875 C 248.199219 102.28125 261.992188 95.703125 275.824219 89.257812 C 277.386719 88.523438 278.652344 87.675781 279.761719 86.28125 C 284.417969 80.457031 288.320312 74.183594 291.730469 67.570312 C 291.9375 67.171875 292.050781 66.722656 292.332031 66.023438 C 291.523438 66.4375 291.011719 66.664062 290.523438 66.949219 C 287.46875 68.679688 284.34375 70.339844 281.363281 72.203125 C 266.269531 81.609375 251.15625 91.011719 236.136719 100.546875 C 225.359375 107.386719 214.730469 114.4375 204.027344 121.390625 C 203.40625 121.746094 202.839844 122.199219 202.253906 122.632812 Z M 316.832031 77.613281 C 316.867188 77.765625 316.90625 77.894531 316.960938 78.046875 C 319.28125 78.046875 321.597656 78.027344 323.914062 78.046875 C 326.949219 78.085938 329.945312 77.894531 332.90625 77.273438 C 340.179688 75.765625 347.207031 73.390625 354.238281 71.074219 C 354.800781 70.886719 355.367188 70.488281 355.78125 70.058594 C 359.625 66.042969 363.148438 61.785156 365.730469 56.847656 C 366.617188 55.132812 367.390625 53.304688 367.878906 51.4375 C 368.804688 47.988281 367.765625 46.519531 364.222656 46.292969 C 361.472656 46.125 358.703125 46.332031 355.933594 46.367188 C 355.007812 46.386719 354.292969 46.839844 353.652344 47.5 C 352.144531 49.027344 350.601562 50.496094 349.035156 51.945312 C 339.160156 61.105469 328.984375 69.886719 317.507812 77.046875 C 317.28125 77.21875 317.054688 77.425781 316.832031 77.613281 Z M 57.847656 77.78125 C 57.019531 77.238281 56.492188 76.898438 55.984375 76.539062 C 51.574219 73.410156 47.070312 70.414062 42.792969 67.097656 C 35.066406 61.125 27.867188 54.546875 20.855469 47.761719 C 20.234375 47.160156 19.652344 46.445312 18.671875 46.425781 C 15.65625 46.386719 12.621094 46.144531 9.625 46.351562 C 6.59375 46.578125 5.726562 47.972656 6.273438 50.96875 C 6.402344 51.703125 6.59375 52.457031 6.894531 53.132812 C 7.667969 54.847656 8.402344 56.601562 9.324219 58.222656 C 11.8125 62.554688 14.976562 66.402344 18.445312 69.960938 C 18.992188 70.507812 19.765625 70.941406 20.5 71.1875 C 25.152344 72.695312 29.847656 74.128906 34.519531 75.597656 C 42.019531 77.988281 49.691406 78.460938 57.847656 77.78125 Z M 168.882812 144.304688 C 168.84375 144.171875 168.824219 144.039062 168.789062 143.925781 C 141.6875 146 114.628906 148.429688 87.398438 152.484375 C 87.867188 152.859375 88 152.992188 88.152344 153.066406 C 96.667969 156.628906 105.207031 160.191406 113.703125 163.789062 C 114.664062 164.203125 115.511719 164.355469 116.550781 163.996094 C 133.71875 158.210938 150.695312 151.972656 167.394531 144.984375 C 167.921875 144.777344 168.390625 144.53125 168.882812 144.304688 Z M 286.660156 152.785156 C 259.730469 148.449219 232.707031 145.980469 205.570312 144.117188 C 205.890625 144.492188 206.25 144.679688 206.628906 144.832031 C 223.492188 151.917969 240.640625 158.230469 257.996094 164.015625 C 258.75 164.261719 259.375 164.28125 260.144531 163.960938 C 268.757812 160.304688 277.40625 156.703125 286.039062 153.105469 C 286.246094 153.046875 286.433594 152.898438 286.660156 152.785156 Z M 177.964844 123.554688 C 178.964844 124.273438 179.832031 125.046875 180.808594 125.574219 C 182.542969 126.476562 182.808594 127.929688 182.394531 129.550781 C 182.074219 130.734375 181.5625 131.921875 180.886719 132.960938 C 179.699219 134.804688 177.90625 136.011719 175.890625 136.824219 C 175.25 137.085938 174.628906 137.3125 173.96875 137.578125 C 173.933594 138.160156 173.875 138.667969 173.875 139.160156 C 173.835938 141.121094 173.914062 141.175781 175.703125 141.890625 C 176.457031 142.195312 177.210938 142.550781 177.890625 142.984375 C 180.414062 144.605469 180.828125 146.566406 179.171875 149.035156 C 178.851562 149.503906 178.511719 149.957031 178.152344 150.390625 C 177.625 151.070312 177.078125 151.730469 176.550781 152.386719 C 178.246094 154.632812 180.375 155.761719 182.902344 156.082031 C 184.445312 156.289062 186.03125 156.140625 187.574219 156.328125 C 189.496094 156.570312 191.34375 156.195312 193.152344 155.667969 C 195.058594 155.121094 196.640625 154.066406 197.695312 152.351562 C 196.675781 150.976562 195.640625 149.769531 194.832031 148.449219 C 193.679688 146.621094 193.984375 144.945312 195.660156 143.589844 C 196.433594 142.964844 197.335938 142.457031 198.242188 142.0625 C 200.558594 141.0625 200.597656 141.0625 200.464844 138.632812 C 200.445312 138.273438 200.351562 137.914062 200.296875 137.613281 C 199.050781 137.050781 197.84375 136.632812 196.789062 135.976562 C 193.984375 134.242188 192.003906 131.960938 191.851562 128.4375 C 191.796875 127.304688 192.097656 126.535156 193.058594 125.910156 C 194.207031 125.175781 195.28125 124.308594 196.355469 123.519531 C 193.511719 118.148438 180.792969 118.167969 177.964844 123.554688 Z M 200.011719 125.910156 C 200.050781 126.023438 200.089844 126.136719 200.125 126.269531 C 204.988281 125.800781 209.886719 125.460938 214.730469 124.820312 C 226.1875 123.292969 237.625 121.597656 249.085938 120.011719 C 250.0625 119.882812 250.667969 119.46875 251.195312 118.695312 C 256.074219 111.457031 260.992188 104.222656 265.875 96.984375 C 266.101562 96.644531 266.214844 96.25 266.382812 95.890625 C 244.148438 105.75 222.550781 116.867188 200.011719 125.910156 Z M 174.101562 126.308594 C 174.140625 126.15625 174.15625 126.007812 174.195312 125.855469 C 151.65625 116.808594 130.082031 105.671875 107.675781 95.382812 C 107.976562 96.042969 108.070312 96.324219 108.222656 96.570312 C 113.027344 103.714844 117.851562 110.835938 122.597656 118.015625 C 123.558594 119.46875 124.804688 119.996094 126.460938 120.238281 C 135.734375 121.539062 144.96875 123.011719 154.257812 124.214844 C 160.835938 125.0625 167.46875 125.609375 174.101562 126.308594 Z M 176.082031 108.632812 C 176.082031 111.835938 177.171875 114.644531 179.191406 117.113281 C 179.832031 117.882812 180.414062 118.074219 181.449219 117.734375 C 185.183594 116.527344 189.007812 116.527344 192.757812 117.695312 C 193.851562 118.035156 194.472656 117.882812 195.167969 117.054688 C 201.445312 109.761719 197.636719 98.117188 188.214844 96.042969 C 187.519531 95.890625 186.707031 95.890625 186.011719 96.0625 C 180.226562 97.363281 176.097656 102.601562 176.082031 108.632812 Z M 297.703125 104.769531 C 298.382812 104.769531 298.683594 104.789062 298.964844 104.769531 C 301.585938 104.46875 304.203125 104.089844 306.824219 103.882812 C 308.632812 103.730469 310.214844 103.167969 311.761719 102.242188 C 316.058594 99.644531 320.46875 97.191406 324.726562 94.535156 C 333.753906 88.882812 342.363281 82.683594 350.261719 75.523438 C 350.730469 75.089844 351.164062 74.636719 351.617188 74.183594 C 349.335938 74.597656 347.265625 75.332031 345.152344 75.878906 C 340.347656 77.125 335.5625 78.421875 330.699219 79.421875 C 328.949219 79.78125 327.441406 80.15625 326.328125 81.589844 C 326.253906 81.683594 326.160156 81.757812 326.0625 81.851562 C 317.488281 89.898438 308.652344 97.664062 298.703125 104.035156 C 298.457031 104.148438 298.25 104.335938 297.703125 104.769531 Z M 76.617188 104.730469 C 75.789062 104.148438 75.300781 103.789062 74.789062 103.449219 C 72.71875 102.035156 70.550781 100.714844 68.570312 99.171875 C 61.917969 93.988281 55.324219 88.710938 49.332031 82.777344 C 47.351562 80.816406 45.335938 79.535156 42.433594 79.160156 C 36.253906 78.347656 30.355469 76.257812 24.417969 74.371094 C 23.871094 74.203125 23.324219 74.070312 22.78125 73.902344 C 24.285156 75.652344 25.890625 77.140625 27.566406 78.554688 C 38.535156 87.808594 50.539062 95.496094 63.03125 102.46875 C 64.3125 103.183594 65.613281 103.65625 67.101562 103.789062 C 69.796875 104.035156 72.472656 104.410156 75.148438 104.710938 C 75.488281 104.769531 75.847656 104.730469 76.617188 104.730469 Z M 241.960938 160.851562 C 241.960938 160.699219 241.960938 160.546875 241.941406 160.398438 C 241.414062 160.210938 240.886719 160.019531 240.359375 159.8125 C 235.347656 157.964844 230.316406 156.195312 225.339844 154.234375 C 217.632812 151.183594 209.980469 148.015625 202.3125 144.871094 C 200.898438 144.285156 199.578125 144.058594 198.183594 144.925781 C 196.601562 145.90625 196.414062 146.414062 197.523438 147.882812 C 200.425781 151.730469 203.707031 155.214844 208.152344 157.289062 C 212.921875 159.53125 217.765625 161.640625 222.609375 163.734375 C 223.304688 164.035156 224.210938 164.089844 224.980469 163.976562 C 228.714844 163.414062 232.425781 162.808594 236.136719 162.132812 C 238.117188 161.773438 240.039062 161.285156 241.960938 160.851562 Z M 177.625 146.339844 C 175.683594 144.191406 174.347656 143.851562 172.007812 144.886719 C 171.03125 145.320312 170.085938 145.832031 169.089844 146.207031 C 157.273438 150.785156 145.4375 155.367188 133.605469 159.945312 C 133.171875 160.113281 132.773438 160.339844 132.117188 160.660156 C 132.625 160.867188 132.832031 160.980469 133.058594 161.039062 C 138.617188 162.054688 144.175781 163.074219 149.734375 164.054688 C 150.261719 164.148438 150.902344 164.089844 151.394531 163.902344 C 157.105469 161.605469 162.832031 159.34375 168.148438 156.195312 C 171.785156 154.046875 174.496094 150.917969 177.003906 147.582031 C 177.265625 147.207031 177.398438 146.792969 177.625 146.339844 Z M 192.738281 178.09375 C 189.0625 180.203125 185.296875 180.148438 181.335938 177.980469 C 181.488281 179.714844 181.640625 181.144531 181.753906 182.578125 C 182.089844 186.382812 181.355469 190.078125 180.527344 193.753906 C 180.039062 195.917969 179.960938 198.105469 180.320312 200.308594 C 180.734375 202.949219 182.203125 204.417969 184.804688 204.984375 C 186.5 205.34375 188.179688 205.34375 189.835938 204.910156 C 191.964844 204.363281 193.53125 203.117188 193.832031 200.894531 C 194.09375 198.992188 194.171875 197.011719 193.984375 195.109375 C 193.757812 192.808594 192.925781 190.566406 192.777344 188.269531 C 192.570312 184.972656 192.738281 181.652344 192.738281 178.09375 Z M 182.976562 277.554688 C 181.941406 278.441406 181.414062 279.476562 181.414062 280.71875 C 181.394531 281.585938 181.433594 282.492188 181.621094 283.339844 C 182.675781 288.03125 182.621094 292.6875 181.242188 297.324219 C 181.015625 298.09375 180.867188 298.90625 180.773438 299.714844 C 180.300781 303.539062 181.882812 305.859375 185.578125 306.875 C 189.628906 307.988281 193.511719 305.238281 193.550781 301.074219 C 193.566406 299.582031 193.285156 298.058594 192.910156 296.625 C 191.816406 292.460938 191.664062 288.316406 192.589844 284.113281 C 192.777344 283.265625 192.945312 282.378906 192.964844 281.511719 C 193.003906 279.964844 192.664062 278.554688 191.34375 277.59375 C 187.347656 280.078125 187.140625 280.285156 182.976562 277.554688 Z M 178.851562 157.722656 C 177.171875 161.414062 177.042969 167.105469 178.53125 170.535156 C 179.285156 172.289062 180.394531 173.796875 181.867188 175.019531 C 185.050781 177.679688 189.421875 177.660156 192.550781 174.964844 C 194.359375 173.417969 195.640625 171.496094 196.261719 169.199219 C 197.242188 165.578125 197.015625 162 195.867188 158.457031 C 195.773438 158.191406 195.585938 157.949219 195.433594 157.722656 C 189.855469 159.511719 184.390625 159.472656 178.851562 157.722656 Z M 181.675781 206.8125 C 181.113281 209.789062 180.546875 212.671875 180.019531 215.574219 C 179.527344 218.308594 180.132812 220.792969 181.789062 223.035156 C 182.769531 224.355469 184.070312 224.921875 185.691406 224.863281 C 186.691406 224.828125 187.6875 224.847656 188.6875 224.863281 C 190.007812 224.902344 191.195312 224.582031 192.078125 223.546875 C 193.699219 221.679688 194.734375 219.496094 194.414062 217.007812 C 193.984375 213.597656 193.285156 210.222656 192.699219 206.832031 C 188.988281 208 185.390625 208.054688 181.675781 206.8125 Z M 184.144531 252.527344 C 183.976562 252.925781 183.789062 253.320312 183.636719 253.734375 C 181.789062 258.804688 181.449219 264.003906 182.429688 269.300781 C 182.828125 271.410156 183.371094 273.484375 184.671875 275.238281 C 186.160156 277.234375 188.234375 277.289062 189.609375 275.21875 C 190.421875 273.992188 191.082031 272.558594 191.457031 271.128906 C 192.964844 265.269531 192.757812 259.445312 190.683594 253.714844 C 190.515625 253.261719 190.269531 252.847656 190.101562 252.527344 C 188.085938 252.527344 186.21875 252.527344 184.144531 252.527344 Z M 184.238281 227.464844 C 184.316406 229.179688 184.484375 230.632812 184.429688 232.0625 C 184.371094 233.496094 184.125 234.929688 183.863281 236.359375 C 183.503906 238.394531 182.921875 240.410156 182.714844 242.464844 C 182.5625 243.992188 182.636719 245.613281 182.957031 247.121094 C 183.316406 248.796875 184.917969 249.984375 186.273438 250.023438 C 189.101562 250.117188 190.441406 249.417969 191.269531 247.328125 C 191.476562 246.820312 191.644531 246.234375 191.644531 245.6875 C 191.644531 244.257812 191.570312 242.804688 191.4375 241.371094 C 191.363281 240.5625 191.136719 239.769531 190.96875 238.980469 C 190.15625 235.25 189.269531 231.515625 190.214844 227.484375 C 188.101562 227.464844 186.179688 227.464844 184.238281 227.464844 Z M 183.957031 309.535156 C 183.863281 310.304688 183.65625 311.117188 183.675781 311.90625 C 183.730469 315.035156 183.75 318.183594 184.015625 321.292969 C 184.203125 323.402344 184.710938 325.496094 185.238281 327.550781 C 185.617188 329 185.878906 328.980469 187.21875 329.054688 C 188.367188 329.132812 188.78125 328.511719 189.0625 327.605469 C 189.253906 327.003906 189.480469 326.417969 189.609375 325.816406 C 190.515625 321.425781 190.929688 317.015625 190.722656 312.53125 C 190.664062 311.492188 190.476562 310.457031 190.363281 309.535156 C 188.195312 309.535156 186.21875 309.535156 183.957031 309.535156 Z M 183.957031 309.535156 " fill-opacity="1" fill-rule="nonzero"/></g><g fill="#b3d9e0" fill-opacity="1"><g transform="translate(70.299828, 335.098579)"><g><path d="M 37.4375 1.265625 C 26.175781 1.265625 18.242188 -2.085938 13.640625 -8.796875 C 9.046875 -15.503906 6.75 -24.769531 6.75 -36.59375 L 6.75 -76.859375 C 6.75 -89.335938 9 -98.8125 13.5 -105.28125 C 18.007812 -111.757812 25.988281 -115 37.4375 -115 C 47.664062 -115 55.007812 -112.226562 59.46875 -106.6875 C 63.925781 -101.15625 66.15625 -92.992188 66.15625 -82.203125 L 66.15625 -73.203125 L 51.09375 -73.203125 L 51.09375 -81.21875 C 51.09375 -86.476562 50.859375 -90.515625 50.390625 -93.328125 C 49.921875 -96.140625 48.722656 -98.390625 46.796875 -100.078125 C 44.878906 -101.773438 41.804688 -102.625 37.578125 -102.625 C 33.265625 -102.625 30.050781 -101.707031 27.9375 -99.875 C 25.832031 -98.039062 24.445312 -95.503906 23.78125 -92.265625 C 23.125 -89.035156 22.796875 -84.695312 22.796875 -79.25 L 22.796875 -34.0625 C 22.796875 -28.25 23.265625 -23.695312 24.203125 -20.40625 C 25.148438 -17.125 26.675781 -14.78125 28.78125 -13.375 C 30.894531 -11.96875 33.828125 -11.265625 37.578125 -11.265625 C 41.617188 -11.265625 44.625 -12.15625 46.59375 -13.9375 C 48.5625 -15.71875 49.800781 -18.15625 50.3125 -21.25 C 50.832031 -24.351562 51.09375 -28.578125 51.09375 -33.921875 L 51.09375 -42.375 L 66.15625 -42.375 L 66.15625 -33.921875 C 66.15625 -22.566406 64.019531 -13.863281 59.75 -7.8125 C 55.476562 -1.757812 48.039062 1.265625 37.4375 1.265625 Z M 37.4375 1.265625 "/></g></g></g><g fill="#b3d9e0" fill-opacity="1"><g transform="translate(246.54845, 335.098579)"><g><path d="M 21.390625 -102.203125 L 2.109375 -102.203125 L 2.109375 -114.015625 L 56.03125 -114.015625 L 56.03125 -102.203125 L 37.296875 -102.203125 L 37.296875 0 L 21.390625 0 Z M 21.390625 -102.203125 "/></g></g></g></svg>