<svg xmlns="http://www.w3.org/2000/svg" xmlns:xlink="http://www.w3.org/1999/xlink" width="500" zoomAndPan="magnify" viewBox="0 0 375 374.999991" height="500" preserveAspectRatio="xMidYMid meet" version="1.0"><defs><g/><clipPath id="id1"><path d="M 93.933594 276 L 145 276 L 145 315.710938 L 93.933594 315.710938 Z M 93.933594 276 " clip-rule="nonzero"/></clipPath><clipPath id="id2"><path d="M 252 160 L 281.433594 160 L 281.433594 205 L 252 205 Z M 252 160 " clip-rule="nonzero"/></clipPath></defs><path fill="rgb(6.269836%, 28.239441%, 33.729553%)" d="M 221.023438 85.574219 C 221.222656 85.410156 221.457031 85.296875 221.578125 85.109375 C 223.339844 82.332031 225.816406 80.296875 228.488281 78.46875 C 229.152344 78.003906 229.871094 77.644531 230.636719 77.386719 C 231.226562 77.191406 231.746094 77.332031 232.238281 77.660156 C 232.664062 77.925781 232.976562 78.289062 233.167969 78.753906 C 233.5 79.578125 233.699219 80.433594 233.769531 81.316406 C 233.867188 83.03125 233.519531 84.679688 233.070312 86.304688 C 232.101562 89.839844 230.496094 93.054688 228.246094 95.949219 C 227.753906 96.585938 227.265625 97.226562 226.800781 97.878906 C 226.734375 97.972656 226.78125 98.15625 226.8125 98.292969 C 226.855469 98.367188 226.921875 98.410156 227.007812 98.417969 C 227.40625 98.441406 227.808594 98.460938 228.210938 98.460938 C 229.175781 98.460938 230.144531 98.441406 231.109375 98.460938 C 234.292969 98.511719 237.332031 99.191406 240.230469 100.507812 C 243.589844 102.019531 246.476562 104.167969 248.882812 106.953125 C 249.414062 107.570312 249.808594 108.265625 250.078125 109.035156 C 250.277344 109.597656 250.242188 110.144531 249.972656 110.671875 C 249.667969 111.355469 249.195312 111.890625 248.558594 112.277344 C 248.078125 112.566406 247.574219 112.816406 247.054688 113.027344 C 245.324219 113.6875 243.578125 114.253906 241.695312 114.375 C 240.089844 114.480469 238.503906 114.769531 236.886719 114.703125 C 233.71875 114.578125 230.664062 114.011719 227.796875 112.578125 C 225.992188 111.679688 224.191406 110.777344 222.664062 109.4375 C 221.816406 108.6875 221.027344 107.886719 220.210938 107.113281 C 219.800781 106.726562 219.390625 106.34375 218.976562 105.960938 C 218.9375 105.917969 218.890625 105.886719 218.832031 105.867188 C 218.777344 105.847656 218.71875 105.84375 218.664062 105.851562 C 218.605469 105.863281 218.550781 105.886719 218.503906 105.921875 C 218.460938 105.960938 218.425781 106.003906 218.402344 106.058594 C 218.265625 106.347656 218.171875 106.660156 217.894531 106.859375 C 217.75 106.996094 217.597656 106.996094 217.445312 106.867188 C 217.167969 106.644531 217.007812 106.277344 217.117188 106.035156 C 217.34375 105.523438 217.597656 105.027344 217.839844 104.523438 C 217.960938 104.273438 217.722656 103.78125 217.46875 103.773438 C 217.070312 103.757812 216.664062 103.742188 216.269531 103.757812 C 212.835938 103.90625 209.542969 103.183594 206.316406 102.125 C 205.253906 101.746094 204.226562 101.28125 203.242188 100.734375 C 199.515625 98.761719 196.128906 96.320312 193.238281 93.238281 C 192.25 92.191406 191.296875 91.085938 190.394531 89.953125 C 189.898438 89.332031 189.523438 88.605469 189.136719 87.90625 C 188.992188 87.617188 188.902344 87.3125 188.871094 86.988281 C 188.816406 86.664062 188.855469 86.347656 188.984375 86.042969 C 189.117188 85.738281 189.316406 85.492188 189.589844 85.304688 C 190.324219 84.765625 191.144531 84.480469 192.058594 84.449219 C 193.929688 84.355469 195.742188 84.722656 197.558594 85.101562 C 199.773438 85.5625 201.878906 86.359375 203.976562 87.179688 C 204.425781 87.355469 204.875 87.492188 205.339844 87.640625 C 205.519531 87.703125 205.789062 87.414062 205.777344 87.191406 C 205.789062 87.03125 205.78125 86.871094 205.753906 86.714844 C 205.304688 85.328125 205.152344 83.878906 204.992188 82.453125 C 204.8125 80.929688 204.789062 79.40625 204.921875 77.878906 C 205.117188 75.722656 205.445312 73.570312 206.285156 71.542969 C 206.464844 71.097656 206.671875 70.664062 206.90625 70.242188 C 207.164062 69.816406 207.515625 69.496094 207.96875 69.289062 C 208.414062 69.050781 208.882812 68.988281 209.375 69.101562 C 210.085938 69.265625 210.753906 69.535156 211.378906 69.910156 C 213.046875 70.949219 214.382812 72.339844 215.609375 73.835938 C 217.945312 76.683594 219.523438 79.90625 220.335938 83.496094 C 220.496094 84.191406 220.613281 84.910156 221.023438 85.574219 Z M 211.3125 91.546875 C 211.121094 90.875 210.730469 89.652344 210.441406 88.398438 C 210.222656 87.464844 210.140625 86.5 209.972656 85.550781 C 209.671875 83.796875 209.703125 82.039062 209.859375 80.277344 C 209.894531 80.117188 209.964844 79.980469 210.070312 79.859375 C 210.136719 79.804688 210.210938 79.785156 210.292969 79.792969 C 210.347656 79.792969 210.445312 79.839844 210.445312 79.882812 C 210.765625 81.128906 210.570312 82.445312 210.984375 83.679688 C 211.121094 85.628906 211.671875 87.464844 212.347656 89.269531 C 213.082031 91.21875 213.808594 93.179688 214.601562 95.117188 C 215.136719 96.464844 215.84375 97.714844 216.730469 98.863281 C 216.816406 98.972656 217.011719 98.996094 217.164062 99.035156 C 217.179688 99.035156 217.261719 98.917969 217.269531 98.84375 C 217.414062 97.804688 217.394531 96.769531 217.214844 95.734375 C 216.953125 94.152344 216.691406 92.574219 216.234375 91.03125 C 216.21875 90.964844 216.40625 90.824219 216.519531 90.75 C 216.554688 90.726562 216.683594 90.769531 216.71875 90.820312 C 217.601562 92.105469 217.972656 93.582031 218.316406 95.070312 C 218.386719 95.378906 218.433594 95.695312 218.515625 96.003906 C 218.5625 96.1875 218.707031 96.304688 218.859375 96.25 C 219.007812 96.199219 219.171875 96.089844 219.1875 95.984375 C 219.371094 94.636719 219.542969 93.289062 219.691406 91.9375 C 219.710938 91.617188 219.695312 91.296875 219.644531 90.980469 C 219.59375 90.5 219.476562 90.023438 219.464844 89.546875 C 219.429688 88.015625 219.171875 86.515625 218.863281 85.023438 C 218.246094 82 217.195312 79.15625 215.417969 76.628906 C 214.726562 75.644531 213.949219 74.714844 213.179688 73.789062 C 212.347656 72.792969 211.3125 72.023438 210.210938 71.347656 C 209.933594 71.195312 209.644531 71.066406 209.347656 70.957031 C 209.117188 70.863281 208.640625 71.042969 208.480469 71.257812 C 208.082031 71.777344 207.867188 72.375 207.660156 72.988281 C 206.535156 76.332031 206.441406 79.785156 206.855469 83.226562 C 207.203125 86.128906 208.082031 88.863281 209.488281 91.429688 C 210.347656 92.976562 211.289062 94.472656 212.316406 95.910156 C 212.480469 96.144531 212.820312 96.289062 212.855469 96.152344 C 212.914062 96.003906 212.929688 95.855469 212.902344 95.703125 C 212.453125 94.492188 211.984375 93.292969 211.3125 91.546875 Z M 223.953125 101.085938 C 224.023438 101.128906 224.089844 101.199219 224.160156 101.207031 C 225.839844 101.394531 227.515625 101.613281 229.199219 101.738281 C 230.246094 101.816406 231.269531 101.996094 232.28125 102.285156 C 234.460938 102.890625 236.539062 103.746094 238.511719 104.855469 C 239.132812 105.230469 239.726562 105.640625 240.296875 106.085938 C 240.476562 106.246094 240.628906 106.425781 240.757812 106.628906 C 240.800781 106.691406 240.816406 106.761719 240.8125 106.835938 C 240.675781 106.902344 240.488281 107.039062 240.390625 106.996094 C 239.441406 106.566406 238.539062 106.019531 237.5625 105.671875 C 234.984375 104.765625 232.378906 103.945312 229.671875 103.476562 C 227.433594 103.089844 225.1875 103.089844 222.929688 103.214844 C 222.851562 103.226562 222.777344 103.253906 222.707031 103.296875 C 222.65625 103.328125 222.578125 103.390625 222.582031 103.429688 C 222.59375 103.515625 222.632812 103.582031 222.699219 103.632812 C 223.628906 104.128906 224.640625 104.402344 225.644531 104.695312 C 227.574219 105.261719 229.5 105.828125 231.472656 106.234375 C 231.625 106.28125 231.765625 106.355469 231.890625 106.453125 C 231.949219 106.507812 231.992188 106.574219 232.019531 106.648438 C 232.101562 106.8125 232.027344 106.929688 231.808594 106.953125 C 230.089844 107.152344 228.457031 106.601562 226.796875 106.328125 C 225.214844 106.070312 223.675781 105.582031 222.113281 105.1875 C 222.035156 105.164062 221.957031 105.15625 221.875 105.164062 C 221.726562 105.199219 221.53125 105.214844 221.449219 105.316406 C 221.394531 105.460938 221.414062 105.59375 221.503906 105.71875 C 222.878906 107.3125 224.40625 108.734375 226.242188 109.785156 C 227.082031 110.265625 227.957031 110.679688 228.832031 111.085938 C 232.359375 112.726562 236.085938 113.136719 239.917969 112.789062 C 240.878906 112.699219 241.835938 112.5625 242.789062 112.394531 C 244.222656 112.144531 245.597656 111.707031 246.914062 111.085938 C 247.269531 110.894531 247.605469 110.671875 247.917969 110.421875 C 248.121094 110.269531 248.246094 110.074219 248.296875 109.828125 C 248.347656 109.578125 248.308594 109.347656 248.179688 109.132812 C 247.730469 108.367188 247.1875 107.671875 246.554688 107.046875 C 244.832031 105.324219 242.894531 103.898438 240.742188 102.765625 C 238.523438 101.5625 236.167969 100.785156 233.667969 100.433594 C 231.257812 100.125 228.84375 100.113281 226.429688 100.390625 C 225.644531 100.476562 224.871094 100.742188 224.09375 100.933594 C 224.042969 100.949219 224 101.03125 223.953125 101.085938 Z M 213.183594 101.503906 C 213.125 101.453125 213.070312 101.378906 213.003906 101.355469 C 212.773438 101.273438 212.539062 101.222656 212.3125 101.140625 C 209.867188 100.269531 207.59375 99.082031 205.484375 97.570312 C 204.894531 97.144531 204.269531 96.777344 203.691406 96.339844 C 202.277344 95.277344 200.816406 94.261719 199.605469 92.957031 C 199.457031 92.769531 199.328125 92.566406 199.214844 92.355469 C 199.132812 92.222656 199.199219 92.207031 199.398438 92.191406 C 199.753906 92.148438 200.007812 92.324219 200.257812 92.515625 C 202 93.824219 203.8125 95.023438 205.699219 96.113281 C 207.640625 97.265625 209.660156 98.265625 211.753906 99.113281 C 211.90625 99.148438 212.054688 99.148438 212.207031 99.121094 C 212.332031 99.113281 212.25 98.773438 212.054688 98.519531 C 211.605469 97.953125 211.140625 97.398438 210.714844 96.8125 C 210.09375 95.957031 209.339844 95.238281 208.460938 94.652344 C 207.460938 93.972656 206.453125 93.3125 205.457031 92.632812 C 205.269531 92.492188 205.101562 92.328125 204.953125 92.148438 C 204.914062 92.078125 204.914062 92.003906 204.953125 91.933594 C 204.992188 91.859375 205.054688 91.808594 205.140625 91.785156 C 205.902344 91.683594 206.492188 92.214844 207.195312 92.359375 C 207.386719 92.398438 207.511719 92.425781 207.597656 92.230469 C 207.632812 92.160156 207.648438 92.089844 207.636719 92.011719 C 207.285156 90.792969 206.710938 89.8125 205.292969 89.566406 C 204.75 89.472656 204.25 89.148438 203.722656 88.953125 C 201.46875 88.105469 199.230469 87.222656 196.851562 86.703125 C 195.34375 86.382812 193.824219 86.230469 192.285156 86.246094 C 192.042969 86.246094 191.800781 86.28125 191.5625 86.304688 C 190.910156 86.375 190.578125 86.964844 190.863281 87.515625 C 191.273438 88.304688 191.789062 89.023438 192.40625 89.667969 C 193.511719 90.832031 194.625 91.996094 195.75 93.140625 C 197.507812 94.941406 199.507812 96.425781 201.644531 97.734375 C 203.222656 98.699219 204.808594 99.660156 206.566406 100.28125 C 208.390625 100.925781 210.261719 101.402344 212.171875 101.71875 C 212.46875 101.769531 212.796875 101.667969 213.109375 101.625 C 213.140625 101.636719 213.160156 101.550781 213.183594 101.503906 Z M 221.292969 90.796875 C 221.324219 91.191406 221.351562 91.667969 221.402344 92.144531 C 221.421875 92.332031 221.550781 92.457031 221.703125 92.433594 C 221.851562 92.398438 221.992188 92.335938 222.121094 92.25 C 222.1875 92.199219 222.234375 92.136719 222.273438 92.0625 C 223.730469 89.839844 225.398438 87.777344 227.152344 85.785156 C 227.363281 85.542969 227.589844 85.320312 227.84375 85.117188 C 227.972656 85.035156 228.109375 85.007812 228.261719 85.042969 C 228.355469 85.058594 228.417969 85.109375 228.453125 85.195312 C 228.484375 85.28125 228.472656 85.363281 228.410156 85.433594 C 228.019531 86.042969 227.660156 86.667969 227.210938 87.234375 C 226.027344 88.765625 225.027344 90.410156 224.042969 92.070312 C 223.164062 93.515625 222.417969 95.027344 221.8125 96.605469 C 221.769531 96.722656 221.882812 96.898438 221.933594 97.042969 C 222 97.046875 222.054688 97.03125 222.109375 97 C 222.671875 96.320312 223.226562 95.632812 223.777344 94.945312 C 223.976562 94.695312 224.144531 94.417969 224.34375 94.164062 C 224.445312 94.042969 224.5625 93.933594 224.691406 93.839844 C 224.761719 93.800781 224.835938 93.769531 224.914062 93.75 C 224.988281 93.886719 225.035156 94.03125 225.0625 94.179688 C 225.0625 94.683594 224.792969 95.105469 224.554688 95.515625 C 224.023438 96.414062 223.441406 97.285156 222.902344 98.179688 C 222.84375 98.320312 222.84375 98.464844 222.902344 98.609375 C 222.957031 98.757812 223.125 98.746094 223.285156 98.609375 C 226.378906 96.035156 228.597656 92.816406 230.207031 89.164062 C 230.921875 87.546875 231.394531 85.839844 231.789062 84.117188 C 232.070312 82.84375 232.097656 81.566406 231.875 80.285156 C 231.824219 79.984375 231.644531 79.695312 231.507812 79.40625 C 231.421875 79.234375 231.03125 79.078125 230.882812 79.144531 C 230.515625 79.308594 230.117188 79.421875 229.796875 79.652344 C 228.746094 80.402344 227.703125 81.152344 226.71875 81.976562 C 224.597656 83.761719 222.867188 85.855469 221.664062 88.363281 C 221.402344 88.871094 221.277344 89.414062 221.292969 89.984375 C 221.296875 90.222656 221.289062 90.464844 221.289062 90.792969 Z M 221.292969 90.796875 " fill-opacity="1" fill-rule="nonzero"/><g clip-path="url(#id1)"><path fill="rgb(6.269836%, 28.239441%, 33.729553%)" d="M 115.609375 290.28125 C 115.941406 289.875 115.8125 289.355469 115.941406 288.898438 C 116.050781 288.511719 116.148438 288.121094 116.289062 287.746094 C 116.382812 287.527344 116.496094 287.324219 116.636719 287.132812 C 116.695312 287.074219 116.761719 287.039062 116.84375 287.023438 C 116.992188 286.976562 117.132812 287.058594 117.15625 287.257812 C 117.300781 288.320312 117.078125 289.332031 116.730469 290.328125 C 116.617188 290.65625 116.390625 290.839844 116.113281 291.023438 C 115.886719 291.1875 115.824219 291.402344 115.921875 291.664062 C 116.074219 292.113281 116.222656 292.574219 116.398438 293.011719 C 116.457031 293.164062 116.644531 293.171875 116.792969 293.035156 C 116.960938 292.871094 117.113281 292.6875 117.242188 292.488281 C 117.992188 291.351562 118.691406 290.164062 119.507812 289.070312 C 122.324219 285.273438 125.769531 282.167969 129.835938 279.75 C 130.878906 279.132812 131.976562 278.632812 133.128906 278.253906 C 134.136719 277.929688 135.171875 277.816406 136.226562 277.90625 C 136.390625 277.925781 136.542969 277.964844 136.691406 278.03125 C 137.117188 278.175781 137.367188 278.464844 137.441406 278.90625 C 137.617188 279.882812 137.5 280.828125 137.097656 281.734375 C 136.117188 283.945312 134.996094 286.082031 133.53125 288.011719 C 132.515625 289.363281 131.421875 290.652344 130.25 291.871094 C 129.972656 292.15625 129.734375 292.484375 129.480469 292.792969 C 129.363281 292.945312 129.527344 293.316406 129.742188 293.371094 C 131.3125 293.738281 132.84375 294.230469 134.332031 294.847656 C 136.96875 295.929688 139.320312 297.453125 141.378906 299.417969 C 141.960938 299.972656 142.523438 300.546875 143.082031 301.128906 C 143.695312 301.78125 144.164062 302.527344 144.484375 303.363281 C 144.5625 303.550781 144.605469 303.742188 144.613281 303.945312 C 144.621094 304.144531 144.597656 304.34375 144.535156 304.535156 C 144.472656 304.726562 144.378906 304.902344 144.257812 305.0625 C 144.132812 305.222656 143.984375 305.355469 143.8125 305.460938 C 143.617188 305.601562 143.402344 305.714844 143.179688 305.804688 C 142.261719 306.101562 141.347656 306.371094 140.359375 306.421875 C 138.34375 306.535156 136.332031 306.503906 134.320312 306.328125 C 129.109375 305.828125 124.257812 304.234375 119.761719 301.550781 C 118.800781 300.96875 117.84375 300.375 116.871094 299.8125 C 116.78125 299.757812 116.527344 299.839844 116.449219 299.9375 C 116.261719 300.195312 116.09375 300.464844 115.949219 300.746094 C 114.839844 302.71875 113.5 304.519531 111.933594 306.15625 C 109.363281 308.882812 106.378906 311.035156 103.074219 312.765625 C 101.433594 313.625 99.75 314.402344 98.09375 315.222656 C 97.339844 315.59375 96.558594 315.683594 95.742188 315.644531 C 94.875 315.605469 94.078125 314.808594 94.003906 313.929688 C 93.933594 313.117188 93.992188 312.320312 94.1875 311.53125 C 95.226562 307.40625 97.355469 304.011719 100.890625 301.542969 C 103.28125 299.875 105.789062 298.457031 108.613281 297.644531 C 108.816406 297.585938 108.980469 297.367188 109.148438 297.207031 C 109.1875 297.140625 109.1875 297.074219 109.148438 297.007812 C 108.960938 296.859375 108.765625 296.726562 108.5625 296.601562 C 107.449219 295.953125 106.375 295.242188 105.347656 294.464844 C 103.847656 293.332031 102.6875 291.890625 101.53125 290.453125 C 99.390625 287.804688 97.730469 284.878906 96.730469 281.609375 C 96.398438 280.515625 96.246094 279.414062 96.441406 278.285156 C 96.488281 277.957031 96.621094 277.667969 96.839844 277.417969 C 97.058594 277.167969 97.324219 277 97.644531 276.910156 C 97.871094 276.820312 98.105469 276.789062 98.347656 276.808594 C 100.027344 277.089844 101.613281 277.605469 103.066406 278.546875 C 104.96875 279.757812 106.777344 281.097656 108.488281 282.570312 C 108.855469 282.886719 109.203125 283.226562 109.589844 283.511719 C 111.625 285.019531 113.21875 286.917969 114.570312 289.039062 C 114.828125 289.445312 115.125 289.820312 115.414062 290.203125 C 115.449219 290.25 115.542969 290.253906 115.609375 290.28125 Z M 121.921875 299.015625 C 122.640625 299.21875 123.332031 299.421875 124.023438 299.605469 C 124.332031 299.683594 124.660156 299.699219 124.972656 299.773438 C 125.832031 299.972656 126.691406 300.179688 127.542969 300.398438 C 127.722656 300.441406 127.78125 300.601562 127.707031 300.785156 C 127.667969 300.855469 127.609375 300.898438 127.53125 300.917969 C 126.652344 301.140625 125.777344 301.050781 124.910156 300.851562 C 124.28125 300.683594 123.644531 300.632812 122.996094 300.703125 C 122.917969 300.71875 122.847656 300.75 122.789062 300.804688 C 122.824219 300.9375 122.847656 301.121094 122.945312 301.1875 C 123.277344 301.417969 123.625 301.617188 123.988281 301.789062 C 125.683594 302.542969 127.429688 303.152344 129.226562 303.613281 C 131.179688 304.125 133.148438 304.535156 135.171875 304.605469 C 136.863281 304.667969 138.554688 304.65625 140.25 304.640625 C 140.8125 304.625 141.371094 304.558594 141.925781 304.445312 C 142.160156 304.382812 142.367188 304.265625 142.542969 304.09375 C 142.640625 304.007812 142.734375 303.777344 142.6875 303.683594 C 142.472656 303.253906 142.265625 302.804688 141.953125 302.449219 C 140.496094 300.761719 138.824219 299.320312 136.941406 298.125 C 135.058594 296.929688 133.042969 296.027344 130.894531 295.425781 C 129.960938 295.179688 129.015625 294.988281 128.0625 294.84375 C 127.558594 294.75 127.097656 294.855469 126.683594 295.152344 C 126.082031 295.5625 125.480469 295.960938 124.878906 296.367188 C 124.710938 296.480469 124.664062 296.628906 124.773438 296.761719 C 124.867188 296.894531 124.984375 296.988281 125.132812 297.054688 C 125.441406 297.148438 125.757812 297.207031 126.078125 297.238281 C 128.757812 297.457031 131.273438 298.308594 133.746094 299.292969 C 134.195312 299.46875 134.636719 299.671875 134.96875 300.042969 C 135.015625 300.09375 135.046875 300.234375 135.015625 300.265625 C 134.914062 300.371094 134.796875 300.453125 134.664062 300.515625 C 134.582031 300.535156 134.503906 300.527344 134.429688 300.488281 C 132.15625 299.625 129.773438 299.226562 127.386719 298.863281 C 125.703125 298.609375 124.015625 298.578125 122.324219 298.773438 C 122.195312 298.785156 122.078125 298.914062 121.921875 299.015625 Z M 110.253906 299.09375 C 109.285156 299.152344 108.246094 299.5625 107.203125 300.011719 C 105.652344 300.683594 104.171875 301.480469 102.757812 302.410156 C 100.433594 303.921875 98.480469 305.789062 97.246094 308.328125 C 96.46875 309.925781 95.820312 311.554688 95.683594 313.34375 C 95.664062 313.605469 96.074219 314.003906 96.316406 313.929688 C 96.851562 313.765625 97.414062 313.644531 97.910156 313.398438 C 99.636719 312.546875 101.367188 311.675781 103.054688 310.757812 C 105.039062 309.6875 106.886719 308.410156 108.589844 306.925781 C 110.722656 305.070312 112.589844 302.988281 114.066406 300.566406 C 114.121094 300.421875 114.15625 300.269531 114.171875 300.117188 C 114.214844 299.941406 114.160156 299.875 114.003906 299.945312 C 113.492188 300.167969 112.96875 300.367188 112.476562 300.628906 C 109.183594 302.359375 106.144531 304.433594 103.65625 307.238281 C 103.230469 307.71875 102.773438 308.167969 102.332031 308.636719 C 102.113281 308.871094 101.90625 309.117188 101.683594 309.347656 C 101.570312 309.460938 101.445312 309.5625 101.3125 309.648438 C 101.148438 309.761719 101.011719 309.714844 100.917969 309.523438 C 100.882812 309.457031 100.871094 309.382812 100.886719 309.308594 C 101.746094 307.660156 102.976562 306.277344 104.144531 304.863281 C 105.433594 303.308594 106.910156 301.953125 108.710938 300.984375 C 109.488281 300.570312 110.242188 300.101562 110.996094 299.636719 C 111.191406 299.5 111.371094 299.34375 111.53125 299.167969 C 111.570312 299.128906 111.597656 299.019531 111.574219 298.992188 C 111.523438 298.925781 111.453125 298.890625 111.371094 298.886719 C 111.050781 298.9375 110.738281 299.003906 110.25 299.09375 Z M 110.929688 293.816406 L 110.953125 293.785156 L 111.152344 293.921875 C 111.539062 294.179688 111.789062 294.207031 111.746094 293.996094 C 111.714844 293.847656 111.71875 293.675781 111.640625 293.566406 C 110.75 292.316406 109.65625 291.246094 108.535156 290.210938 C 106.339844 288.203125 104.019531 286.347656 101.578125 284.644531 C 101.390625 284.5 101.21875 284.335938 101.0625 284.15625 C 101.019531 284.097656 101 284.03125 101.003906 283.957031 C 101.140625 283.886719 101.304688 283.769531 101.425781 283.792969 C 101.738281 283.855469 102.039062 283.953125 102.328125 284.09375 C 104.058594 284.957031 105.660156 286.027344 107.25 287.125 C 109.445312 288.648438 111.347656 290.476562 112.957031 292.613281 C 113.296875 293.0625 113.644531 293.503906 114.007812 293.933594 C 114.125 294.042969 114.261719 294.125 114.410156 294.179688 C 114.476562 294.207031 114.542969 294.199219 114.601562 294.164062 C 114.671875 294.113281 114.710938 294.046875 114.71875 293.960938 C 114.691406 293.644531 114.636719 293.332031 114.550781 293.027344 C 113.519531 290.074219 111.738281 287.644531 109.382812 285.605469 C 108.835938 285.132812 108.289062 284.660156 107.730469 284.199219 C 105.941406 282.699219 104.125 281.257812 102.144531 280.011719 C 101.121094 279.363281 100.019531 278.894531 98.839844 278.601562 C 98.515625 278.519531 97.957031 278.960938 98.003906 279.277344 C 98.121094 280.234375 98.355469 281.164062 98.703125 282.066406 C 100.261719 285.8125 102.417969 289.164062 105.3125 292.035156 C 106.574219 293.292969 107.992188 294.335938 109.574219 295.15625 C 109.71875 295.222656 109.867188 295.265625 110.027344 295.28125 C 110.085938 295.289062 110.210938 295.210938 110.214844 295.164062 C 110.25 294.84375 110.464844 295.210938 110.234375 294.984375 C 109.335938 294.082031 108.40625 293.183594 107.5 292.285156 C 107.214844 292 106.957031 291.695312 106.722656 291.371094 C 106.652344 291.230469 106.648438 291.085938 106.703125 290.941406 C 106.769531 290.757812 106.917969 290.777344 107.089844 290.910156 C 108.363281 291.882812 109.644531 292.851562 110.925781 293.816406 Z M 120.90625 296.238281 C 121.070312 296.238281 121.246094 296.289062 121.375 296.238281 C 123.527344 295.28125 125.476562 294.011719 127.226562 292.4375 C 129.320312 290.535156 131.171875 288.421875 132.785156 286.097656 C 133.84375 284.570312 134.683594 282.921875 135.457031 281.238281 C 135.628906 280.867188 135.699219 280.480469 135.667969 280.070312 C 135.648438 279.78125 135.28125 279.472656 135 279.53125 C 133.347656 279.933594 131.792969 280.578125 130.34375 281.46875 C 126.726562 283.691406 123.683594 286.527344 121.09375 289.863281 C 120.605469 290.492188 120.222656 291.210938 119.800781 291.886719 C 119.773438 291.929688 119.8125 292.035156 119.855469 292.089844 C 119.894531 292.148438 120.003906 292.167969 120.019531 292.144531 C 120.675781 291.546875 121.332031 290.957031 121.972656 290.347656 C 124.628906 287.78125 127.820312 286.117188 131.253906 284.867188 C 131.308594 284.84375 131.40625 284.898438 131.464844 284.941406 C 131.535156 284.988281 131.570312 285.054688 131.570312 285.136719 C 131.570312 285.21875 131.535156 285.285156 131.464844 285.328125 C 130.640625 286.117188 129.613281 286.605469 128.652344 287.1875 C 125.871094 288.871094 123.472656 291 121.304688 293.40625 C 121.164062 293.554688 121.175781 293.726562 121.339844 293.789062 C 121.484375 293.851562 121.632812 293.863281 121.785156 293.828125 C 122.234375 293.648438 122.660156 293.425781 123.101562 293.226562 C 123.148438 293.207031 123.242188 293.25 123.292969 293.289062 C 123.363281 293.335938 123.40625 293.398438 123.417969 293.480469 C 123.429688 293.566406 123.410156 293.636719 123.351562 293.703125 C 122.953125 294.089844 122.523438 294.449219 122.101562 294.824219 C 121.679688 295.195312 121.242188 295.542969 120.820312 295.90625 C 120.757812 295.960938 120.730469 296.03125 120.738281 296.113281 C 120.753906 296.160156 120.847656 296.199219 120.898438 296.238281 Z M 120.90625 296.238281 " fill-opacity="1" fill-rule="nonzero"/></g><path fill="rgb(6.269836%, 28.239441%, 33.729553%)" d="M 125.9375 216.359375 C 125.992188 212.867188 126.757812 209.519531 128.042969 206.28125 C 128.355469 205.433594 128.859375 204.71875 129.554688 204.136719 C 129.941406 203.828125 130.382812 203.65625 130.878906 203.625 C 131.929688 203.527344 132.757812 203.910156 133.457031 204.671875 C 133.941406 205.21875 134.339844 205.816406 134.660156 206.472656 C 135.4375 208.0625 136.066406 209.710938 136.539062 211.417969 C 136.742188 212.105469 136.949219 212.796875 137.175781 213.476562 C 137.207031 213.558594 137.269531 213.605469 137.355469 213.617188 C 137.441406 213.632812 137.511719 213.605469 137.570312 213.539062 C 137.921875 213.214844 138.242188 212.859375 138.535156 212.476562 C 140.339844 209.972656 142.550781 207.882812 145.058594 206.089844 C 145.847656 205.519531 146.714844 205.105469 147.65625 204.855469 C 148.355469 204.671875 149.398438 205.082031 149.78125 205.699219 C 150.074219 206.171875 150.375 206.679688 150.488281 207.214844 C 150.972656 209.417969 151.222656 211.625 150.738281 213.890625 C 150.488281 215.0625 150.386719 216.273438 150.0625 217.433594 C 149.351562 220.105469 148.175781 222.554688 146.535156 224.78125 C 145.765625 225.808594 144.945312 226.800781 144.160156 227.8125 C 144.085938 227.875 144.066406 227.953125 144.097656 228.042969 C 144.132812 228.132812 144.195312 228.179688 144.292969 228.183594 C 144.519531 228.25 144.753906 228.289062 144.992188 228.304688 C 146.621094 228.304688 148.175781 228.742188 149.753906 229.039062 C 151.515625 229.371094 153.113281 230.128906 154.652344 231.019531 C 156.109375 231.886719 157.484375 232.863281 158.789062 233.945312 C 159.285156 234.355469 159.726562 234.820312 160.117188 235.335938 C 160.957031 236.441406 160.757812 237.484375 159.617188 238.207031 C 158.859375 238.675781 158.058594 239.050781 157.210938 239.332031 C 156.070312 239.726562 154.90625 240.039062 153.71875 240.261719 C 152.214844 240.53125 150.726562 240.917969 149.179688 240.859375 C 149.019531 240.847656 148.859375 240.855469 148.699219 240.890625 C 146.679688 241.429688 144.6875 241.023438 142.726562 240.613281 C 140.324219 240.128906 138.109375 239.203125 136.082031 237.839844 C 134.554688 236.808594 133.023438 235.761719 131.953125 234.179688 C 131.464844 233.453125 130.792969 232.847656 130.1875 232.199219 C 129.414062 231.359375 128.839844 230.398438 128.464844 229.320312 C 127.761719 227.355469 127.136719 225.363281 126.859375 223.28125 C 126.734375 222.164062 126.539062 221.058594 126.28125 219.960938 C 125.992188 218.757812 125.945312 217.566406 125.9375 216.359375 Z M 141.222656 222.757812 C 141.289062 222.894531 141.429688 223.042969 141.40625 223.164062 C 141.359375 223.484375 141.265625 223.785156 141.128906 224.074219 C 140.324219 225.648438 139.496094 227.207031 138.691406 228.78125 C 138.476562 229.203125 138.308594 229.652344 138.132812 230.09375 C 138.113281 230.140625 138.179688 230.246094 138.234375 230.285156 C 138.292969 230.324219 138.355469 230.335938 138.425781 230.308594 C 140.308594 228.925781 142.007812 227.339844 143.515625 225.550781 C 145.699219 223.015625 147.351562 220.214844 148.238281 216.972656 C 148.515625 215.960938 148.644531 214.925781 148.878906 213.914062 C 149.238281 212.398438 149.144531 210.875 149.0625 209.359375 C 149.023438 208.65625 148.742188 207.960938 148.546875 207.261719 C 148.4375 206.867188 147.945312 206.660156 147.582031 206.792969 C 146.8125 207.066406 146.15625 207.53125 145.503906 207.992188 C 143.605469 209.378906 141.945312 211 140.515625 212.863281 C 139.023438 214.777344 137.734375 216.808594 136.867188 219.074219 C 136.246094 220.640625 135.707031 222.238281 135.25 223.859375 C 135.003906 224.773438 134.617188 225.691406 134.726562 226.683594 C 134.738281 226.765625 134.769531 226.835938 134.820312 226.902344 C 134.875 226.917969 134.925781 226.910156 134.96875 226.875 C 135.183594 226.539062 135.371094 226.1875 135.53125 225.824219 C 136.625 222.863281 138.171875 220.152344 140.019531 217.601562 C 140.773438 216.558594 141.625 215.597656 142.570312 214.722656 C 142.691406 214.613281 142.824219 214.527344 142.949219 214.421875 C 143.183594 214.230469 143.542969 214.226562 143.59375 214.402344 C 143.648438 214.554688 143.625 214.691406 143.523438 214.8125 C 142.847656 215.714844 142.121094 216.578125 141.511719 217.523438 C 140.027344 219.820312 138.800781 222.265625 137.671875 224.75 C 137.039062 226.136719 136.488281 227.566406 136.203125 229.074219 C 136.179688 229.203125 136.289062 229.359375 136.335938 229.507812 C 136.472656 229.445312 136.601562 229.371094 136.71875 229.273438 C 136.875 229.09375 137.019531 228.898438 137.144531 228.695312 C 138.15625 227.148438 139.160156 225.59375 140.183594 224.054688 C 140.492188 223.601562 140.738281 223.082031 141.222656 222.757812 Z M 137.335938 233.753906 C 137.53125 234.160156 137.925781 234.316406 138.300781 234.402344 C 139.398438 234.652344 140.46875 235.035156 141.605469 235.105469 C 141.925781 235.148438 142.238281 235.214844 142.546875 235.308594 C 142.777344 235.363281 143.148438 235.699219 143.066406 235.757812 C 142.949219 235.855469 142.8125 235.921875 142.660156 235.949219 C 140.96875 236.023438 139.277344 236.050781 137.625 235.566406 C 137.324219 235.480469 136.988281 235.507812 136.667969 235.5 C 136.582031 235.507812 136.515625 235.546875 136.460938 235.609375 C 136.371094 235.710938 136.410156 235.859375 136.566406 235.972656 C 139.550781 238.148438 143.617188 239.421875 147.207031 239.324219 C 148.335938 239.292969 149.449219 239.097656 150.566406 239.007812 C 152.429688 238.859375 154.207031 238.367188 156.003906 237.917969 C 156.867188 237.699219 157.679688 237.355469 158.441406 236.886719 C 158.695312 236.738281 158.742188 236.277344 158.53125 236.039062 C 158.386719 235.847656 158.222656 235.671875 158.046875 235.507812 C 157.222656 234.859375 156.394531 234.21875 155.554688 233.597656 C 153.609375 232.1875 151.472656 231.1875 149.140625 230.601562 C 146.808594 230.015625 144.453125 229.882812 142.070312 230.203125 C 141.472656 230.296875 141.019531 230.601562 140.71875 231.125 C 140.609375 231.300781 140.644531 231.460938 140.800781 231.507812 C 141.027344 231.585938 141.257812 231.628906 141.496094 231.640625 C 143.691406 231.640625 145.816406 232.066406 147.914062 232.65625 C 148.453125 232.824219 148.976562 233.03125 149.484375 233.273438 C 149.621094 233.355469 149.734375 233.460938 149.828125 233.59375 C 149.886719 233.65625 149.910156 233.730469 149.902344 233.8125 C 149.890625 233.871094 149.796875 233.929688 149.726562 233.941406 C 149.578125 233.996094 149.421875 234.011719 149.265625 233.992188 C 147.941406 233.613281 146.570312 233.519531 145.222656 233.296875 C 144.183594 233.105469 143.140625 233.082031 142.09375 233.21875 C 140.972656 233.386719 139.851562 233.398438 138.726562 233.464844 C 138.253906 233.496094 137.757812 233.457031 137.335938 233.753906 Z M 127.816406 216.347656 C 127.816406 217.476562 127.871094 218.597656 128.152344 219.699219 C 128.410156 220.792969 128.609375 221.894531 128.753906 223.011719 C 128.984375 224.609375 129.453125 226.144531 129.890625 227.6875 C 130.109375 228.449219 130.492188 229.171875 130.871094 229.882812 C 131.050781 230.226562 131.375 230.5 131.644531 230.792969 C 131.785156 230.941406 131.933594 230.949219 132.019531 230.828125 C 132.0625 230.769531 132.109375 230.675781 132.089844 230.613281 C 131.253906 227.933594 130.679688 225.183594 130.082031 222.441406 C 129.980469 221.972656 129.894531 221.496094 129.835938 221.019531 C 129.453125 217.648438 129.460938 217.648438 129.851562 214.3125 C 129.941406 213.59375 130.109375 212.894531 130.355469 212.214844 C 130.429688 211.996094 130.550781 211.957031 130.714844 212.097656 C 130.773438 212.144531 130.867188 212.195312 130.875 212.257812 C 130.972656 212.558594 131.039062 212.871094 131.066406 213.1875 C 131.132812 214.953125 131.167969 216.71875 131.230469 218.484375 C 131.238281 219.046875 131.289062 219.605469 131.382812 220.160156 C 131.683594 221.734375 132.027344 223.300781 132.363281 224.867188 C 132.375 224.929688 132.457031 224.980469 132.511719 225.035156 C 132.5625 224.972656 132.652344 224.917969 132.660156 224.847656 C 132.738281 224.457031 132.78125 224.066406 132.796875 223.667969 C 132.785156 221.820312 132.742188 219.972656 132.730469 218.121094 C 132.742188 217.644531 132.777344 217.167969 132.839844 216.695312 C 132.871094 216.632812 132.921875 216.601562 132.988281 216.597656 C 133.070312 216.613281 133.136719 216.648438 133.195312 216.710938 C 133.464844 217.03125 133.539062 217.421875 133.605469 217.820312 C 133.726562 218.53125 133.613281 219.277344 133.96875 219.941406 C 134.070312 220.0625 134.191406 220.152344 134.339844 220.210938 C 134.367188 220.226562 134.480469 220.144531 134.503906 220.089844 C 134.828125 219.269531 135.132812 218.441406 135.464844 217.625 C 135.648438 217.167969 135.699219 216.695312 135.613281 216.210938 C 135.382812 214.710938 135.191406 213.1875 134.726562 211.726562 C 134.363281 210.578125 133.996094 209.429688 133.574219 208.304688 C 133.230469 207.386719 132.722656 206.570312 132.054688 205.855469 C 131.601562 205.371094 130.691406 205.386719 130.359375 205.933594 C 130.058594 206.40625 129.796875 206.902344 129.582031 207.421875 C 128.464844 210.292969 127.875 213.269531 127.816406 216.347656 Z M 127.816406 216.347656 " fill-opacity="1" fill-rule="nonzero"/><path fill="rgb(6.269836%, 28.239441%, 33.729553%)" d="M 202.394531 182.113281 C 202.394531 181.632812 202.40625 181.148438 202.394531 180.667969 C 202.375 179.882812 202.820312 179.007812 202.28125 178.335938 C 201.832031 177.769531 200.964844 177.824219 200.289062 177.59375 C 198.582031 177.023438 197.074219 176.125 195.757812 174.898438 C 192.90625 172.238281 190.574219 169.195312 189.058594 165.5625 C 188.066406 163.183594 187.175781 160.78125 186.679688 158.246094 C 186.460938 157.136719 186.304688 156.027344 186.421875 154.894531 C 186.464844 154.605469 186.597656 154.367188 186.828125 154.179688 C 187.054688 153.992188 187.316406 153.90625 187.609375 153.921875 C 187.933594 153.921875 188.246094 153.972656 188.554688 154.070312 C 189.894531 154.625 191.214844 155.210938 192.351562 156.152344 C 193.28125 156.917969 194.289062 157.59375 195.222656 158.359375 C 195.90625 158.917969 196.601562 159.492188 197.152344 160.171875 C 198.570312 161.917969 200.113281 163.570312 201.28125 165.511719 C 201.441406 165.777344 201.707031 165.980469 201.933594 166.203125 C 202 166.253906 202.078125 166.273438 202.164062 166.253906 C 202.238281 166.226562 202.289062 166.179688 202.3125 166.105469 C 202.464844 165.402344 202.644531 164.703125 202.761719 163.996094 C 203.285156 160.847656 204.59375 158.019531 206.1875 155.300781 C 206.226562 155.230469 206.273438 155.164062 206.320312 155.097656 C 207.46875 153.617188 208.269531 151.96875 208.722656 150.152344 C 208.796875 149.925781 208.886719 149.703125 208.992188 149.488281 C 209.132812 149.15625 209.484375 149.089844 209.75 149.367188 C 209.863281 149.484375 209.929688 149.648438 210.050781 149.742188 C 210.171875 149.832031 210.371094 149.910156 210.460938 149.859375 C 210.742188 149.707031 210.980469 149.476562 211.25 149.308594 C 211.589844 149.085938 211.9375 148.890625 212.300781 148.714844 C 212.507812 148.625 212.71875 148.570312 212.945312 148.558594 C 213.167969 148.542969 213.386719 148.574219 213.597656 148.640625 C 213.8125 148.710938 214.003906 148.816406 214.179688 148.960938 C 214.351562 149.101562 214.492188 149.269531 214.601562 149.464844 C 214.691406 149.597656 214.769531 149.738281 214.835938 149.886719 C 215.363281 151.40625 215.8125 152.945312 215.949219 154.558594 C 216.125 156.566406 216.117188 158.574219 215.921875 160.582031 C 215.503906 164.636719 214.210938 168.398438 211.832031 171.765625 C 210.847656 173.152344 209.796875 174.457031 208.511719 175.578125 C 208.460938 175.625 208.40625 175.746094 208.429688 175.792969 C 208.496094 175.914062 208.582031 176.078125 208.6875 176.101562 C 209.390625 176.25 210.136719 176.269531 210.742188 176.738281 C 210.8125 176.785156 210.847656 176.851562 210.847656 176.9375 C 210.847656 177.023438 210.8125 177.085938 210.742188 177.132812 C 210.484375 177.316406 210.171875 177.417969 209.914062 177.601562 C 209.8125 177.671875 209.703125 177.898438 209.742188 177.984375 C 209.957031 178.414062 210.242188 178.804688 210.460938 179.230469 C 211.503906 181.238281 212.292969 183.339844 212.828125 185.539062 C 213.425781 188.125 213.773438 190.765625 213.496094 193.429688 C 213.273438 195.597656 212.851562 197.722656 211.644531 199.601562 C 211.300781 200.167969 210.839844 200.601562 210.257812 200.914062 C 209.890625 201.09375 209.503906 201.175781 209.09375 201.164062 C 208.570312 201.175781 208.152344 200.976562 207.835938 200.5625 C 207.542969 200.179688 207.28125 199.777344 207.054688 199.351562 C 205.335938 196.152344 204.023438 192.792969 203.121094 189.273438 C 202.605469 187.230469 202.25 185.195312 202.355469 183.085938 C 202.371094 182.765625 202.355469 182.445312 202.355469 182.125 Z M 214.5 157.355469 C 214.558594 155.605469 214.089844 152.875 213.460938 150.957031 C 213.390625 150.8125 213.3125 150.675781 213.21875 150.546875 C 213.113281 150.363281 212.738281 150.261719 212.582031 150.375 C 211.023438 151.546875 209.699219 152.9375 208.609375 154.550781 C 206.234375 157.964844 204.589844 161.6875 204.015625 165.832031 C 203.804688 167.1875 203.816406 168.546875 204.039062 169.902344 C 204.039062 169.933594 204.148438 169.972656 204.203125 169.96875 C 204.28125 169.957031 204.351562 169.925781 204.414062 169.875 C 204.6875 169.648438 204.707031 169.316406 204.78125 169.003906 C 205.488281 166.113281 207.382812 162.246094 209.207031 159.980469 C 209.257812 159.914062 209.320312 159.863281 209.398438 159.828125 C 209.472656 159.792969 209.546875 159.78125 209.628906 159.792969 C 209.804688 159.839844 209.917969 159.976562 209.855469 160.117188 C 209.554688 160.773438 209.253906 161.425781 208.914062 162.0625 C 207.773438 164.296875 206.949219 166.636719 206.433594 169.085938 C 206.214844 170.105469 206.105469 171.148438 205.953125 172.179688 C 205.953125 172.257812 205.972656 172.332031 206.015625 172.394531 C 206.050781 172.460938 206.101562 172.511719 206.167969 172.546875 C 206.25 172.566406 206.324219 172.558594 206.398438 172.515625 C 206.796875 172.199219 206.929688 171.71875 207.148438 171.296875 C 207.722656 170.242188 208.261719 169.164062 208.832031 168.105469 C 208.914062 167.953125 209.097656 167.972656 209.230469 168.09375 C 209.28125 168.140625 209.347656 168.230469 209.335938 168.28125 C 209.203125 168.828125 209.078125 169.378906 208.910156 169.914062 C 208.71875 170.527344 208.476562 171.125 208.265625 171.730469 C 208.117188 172.179688 207.96875 172.644531 207.835938 173.109375 C 207.828125 173.1875 207.847656 173.257812 207.894531 173.324219 C 207.976562 173.464844 208.101562 173.453125 208.273438 173.324219 C 209.21875 172.648438 209.75 171.632812 210.410156 170.726562 C 211.566406 169.160156 212.453125 167.457031 213.074219 165.613281 C 213.945312 162.929688 214.421875 160.175781 214.5 157.355469 Z M 192.417969 168.210938 C 193.90625 170.449219 195.675781 172.441406 197.71875 174.1875 C 198.15625 174.542969 198.621094 174.859375 199.109375 175.136719 C 199.289062 175.246094 199.496094 175.390625 199.753906 175.269531 C 199.902344 175.203125 199.839844 174.914062 199.585938 174.664062 C 198.441406 173.519531 197.460938 172.246094 196.644531 170.851562 C 195.988281 169.746094 195.355469 168.625 194.734375 167.5 C 194.390625 166.867188 194.082031 166.214844 193.769531 165.5625 C 193.734375 165.484375 193.730469 165.40625 193.761719 165.328125 C 193.789062 165.25 193.84375 165.191406 193.917969 165.152344 C 193.960938 165.125 194.070312 165.152344 194.128906 165.195312 C 194.722656 165.632812 195.117188 166.246094 195.523438 166.835938 C 196.207031 167.828125 196.867188 168.839844 197.558594 169.832031 C 198.492188 171.148438 199.566406 172.335938 200.785156 173.394531 C 200.847656 173.445312 200.914062 173.484375 200.992188 173.507812 C 201.058594 173.53125 201.152344 173.5625 201.199219 173.535156 C 201.273438 173.496094 201.328125 173.4375 201.355469 173.355469 C 201.382812 173.273438 201.375 173.195312 201.335938 173.121094 C 200.8125 172.035156 200.269531 170.960938 199.757812 169.875 C 199.675781 169.652344 199.636719 169.425781 199.636719 169.195312 C 199.636719 169.136719 199.746094 169.015625 199.789062 169.023438 C 199.941406 169.03125 200.078125 169.082031 200.203125 169.171875 C 200.871094 169.867188 201.226562 170.800781 201.96875 171.441406 C 202.023438 171.476562 202.082031 171.480469 202.140625 171.449219 C 202.199219 171.394531 202.230469 171.328125 202.230469 171.246094 C 201.9375 170.152344 201.414062 169.148438 200.847656 168.183594 C 199.46875 165.816406 197.84375 163.625 195.976562 161.613281 C 195.253906 160.855469 194.496094 160.140625 193.699219 159.464844 C 192.84375 158.730469 191.9375 158.058594 191.054688 157.363281 C 190.414062 156.867188 189.71875 156.46875 188.964844 156.175781 C 188.53125 156.003906 188.222656 156.261719 188.273438 156.796875 C 188.296875 157.277344 188.355469 157.753906 188.441406 158.230469 C 189.222656 161.53125 190.433594 164.667969 192.082031 167.636719 C 192.234375 167.914062 192.410156 168.1875 192.421875 168.210938 Z M 204.6875 179.828125 C 204.507812 179.925781 204.359375 179.960938 204.296875 180.054688 C 204.03125 180.472656 203.902344 180.929688 203.90625 181.425781 C 203.800781 183.847656 203.867188 186.246094 204.683594 188.570312 C 204.761719 188.792969 204.769531 189.042969 204.832031 189.277344 C 205.65625 192.664062 207.054688 195.816406 208.714844 198.871094 C 208.75 198.9375 208.820312 198.992188 208.863281 199.054688 C 209.074219 199.371094 209.667969 199.355469 209.914062 199.035156 C 210.015625 198.90625 210.128906 198.792969 210.214844 198.660156 C 210.601562 198.042969 210.902344 197.390625 211.117188 196.695312 C 211.640625 195.160156 211.707031 193.546875 211.976562 191.960938 C 212.007812 191.71875 212.003906 191.480469 211.964844 191.238281 C 211.824219 190.125 211.710938 189.003906 211.515625 187.898438 C 211.355469 186.863281 211.121094 185.847656 210.808594 184.851562 C 210.289062 183.332031 209.660156 181.855469 209.046875 180.363281 C 208.871094 179.894531 208.574219 179.523438 208.15625 179.246094 C 208.089844 179.207031 208.019531 179.179688 207.945312 179.152344 C 207.886719 179.292969 207.757812 179.453125 207.785156 179.570312 C 207.882812 179.957031 208.007812 180.339844 208.15625 180.710938 C 208.75 182.296875 209.183594 183.921875 209.460938 185.59375 C 209.472656 185.667969 209.488281 185.78125 209.449219 185.828125 C 209.351562 185.933594 209.234375 186.023438 209.105469 186.089844 C 209.023438 186.097656 208.960938 186.070312 208.914062 186.007812 C 208.363281 184.671875 207.816406 183.335938 207.277344 181.996094 C 207.175781 181.679688 206.992188 181.425781 206.71875 181.234375 C 206.660156 181.203125 206.570312 181.164062 206.523438 181.1875 C 206.449219 181.230469 206.40625 181.292969 206.394531 181.378906 C 206.671875 183.457031 207.226562 185.46875 207.832031 187.46875 C 208.269531 188.84375 208.617188 190.242188 208.882812 191.664062 C 208.898438 191.753906 208.734375 191.917969 208.609375 191.976562 C 208.460938 192.050781 208.308594 191.949219 208.222656 191.785156 C 208.171875 191.722656 208.128906 191.65625 208.089844 191.585938 C 207.347656 189.804688 206.550781 188.042969 205.886719 186.234375 C 205.285156 184.574219 204.851562 182.851562 204.769531 181.066406 C 204.761719 180.675781 204.722656 180.273438 204.6875 179.828125 Z M 204.6875 179.828125 " fill-opacity="1" fill-rule="nonzero"/><g clip-path="url(#id2)"><path fill="rgb(6.269836%, 28.239441%, 33.729553%)" d="M 252.804688 193.394531 C 252.847656 193.023438 252.898438 192.542969 252.953125 192.066406 C 253.011719 191.589844 253.113281 191.113281 253.164062 190.636719 C 253.429688 188.199219 254.15625 185.925781 255.546875 183.882812 C 255.726562 183.617188 255.859375 183.324219 256.011719 183.039062 C 256.105469 182.871094 255.914062 182.511719 255.714844 182.484375 C 255.394531 182.445312 255.074219 182.429688 254.757812 182.375 C 254.523438 182.324219 254.296875 182.261719 254.070312 182.179688 C 253.890625 182.125 253.753906 181.828125 253.769531 181.582031 C 253.832031 181.332031 253.980469 181.160156 254.222656 181.070312 C 254.722656 180.933594 255.175781 181.082031 255.628906 181.265625 C 255.851562 181.355469 256.078125 181.414062 256.304688 181.277344 C 256.371094 181.238281 256.464844 181.164062 256.460938 181.105469 C 256.464844 180.945312 256.4375 180.792969 256.378906 180.644531 C 255.597656 178.949219 255.246094 177.128906 254.832031 175.328125 C 254.671875 174.539062 254.601562 173.738281 254.617188 172.929688 C 254.617188 171.484375 254.578125 170.027344 254.738281 168.59375 C 254.984375 166.355469 255.394531 164.140625 256.363281 162.078125 C 256.59375 161.558594 256.902344 161.089844 257.289062 160.671875 C 257.773438 160.175781 258.699219 160.007812 259.296875 160.375 C 259.574219 160.535156 259.832031 160.726562 260.066406 160.945312 C 260.757812 161.632812 261.328125 162.410156 261.777344 163.273438 C 263.324219 166.117188 264.441406 169.121094 265.132812 172.28125 C 265.304688 173.058594 265.308594 173.875 265.390625 174.679688 C 265.40625 174.847656 265.789062 175.113281 265.9375 175.0625 C 266.316406 174.925781 266.703125 174.8125 267.070312 174.648438 C 268.25 174.128906 269.5 173.792969 270.71875 173.390625 C 272.582031 172.773438 274.496094 172.574219 276.441406 172.640625 C 277.246094 172.664062 278.050781 172.722656 278.855469 172.789062 C 279.511719 172.84375 280.09375 173.128906 280.636719 173.488281 C 281.066406 173.777344 281.300781 174.179688 281.339844 174.695312 C 281.4375 175.363281 281.300781 175.976562 280.929688 176.539062 C 280.015625 177.871094 279.03125 179.117188 277.664062 180.054688 C 276.140625 181.105469 274.648438 182.210938 273.007812 183.082031 C 270.640625 184.339844 268.148438 185.210938 265.441406 185.375 C 265.277344 185.398438 265.140625 185.472656 265.027344 185.59375 C 264.917969 185.714844 264.855469 185.859375 264.847656 186.023438 C 264.875 186.664062 264.929688 187.304688 265.023438 187.9375 C 265.144531 188.578125 265.136719 189.214844 265.011719 189.851562 C 264.921875 190.328125 264.867188 190.804688 264.847656 191.289062 C 264.734375 193.492188 264.0625 195.574219 263.136719 197.53125 C 262.03125 199.941406 260.355469 201.855469 258.109375 203.265625 C 257.691406 203.511719 257.261719 203.722656 256.8125 203.90625 C 256.355469 204.09375 255.878906 204.148438 255.390625 204.070312 C 255.140625 204.058594 254.914062 203.976562 254.714844 203.828125 C 254.515625 203.679688 254.375 203.488281 254.289062 203.253906 C 254.070312 202.648438 253.894531 202.03125 253.769531 201.398438 C 253.332031 199.105469 253.171875 196.78125 252.851562 194.472656 C 252.8125 194.148438 252.824219 193.824219 252.804688 193.394531 Z M 262.867188 179.453125 C 263.105469 179.453125 263.363281 179.496094 263.578125 179.425781 C 264.179688 179.226562 264.78125 178.953125 265.382812 178.753906 C 267.996094 177.898438 270.671875 177.414062 273.4375 177.570312 C 273.519531 177.582031 273.589844 177.621094 273.644531 177.679688 C 273.679688 177.730469 273.6875 177.785156 273.664062 177.84375 C 273.488281 178.152344 273.167969 178.246094 272.863281 178.308594 C 271.765625 178.546875 270.644531 178.699219 269.566406 178.992188 C 267.710938 179.496094 265.851562 180.019531 264.207031 181.078125 C 264.171875 181.101562 264.148438 181.210938 264.167969 181.230469 C 264.222656 181.28125 264.308594 181.34375 264.375 181.339844 C 265.40625 181.195312 266.402344 180.898438 267.40625 180.628906 C 267.796875 180.550781 268.191406 180.503906 268.59375 180.496094 C 268.675781 180.503906 268.746094 180.539062 268.796875 180.605469 C 268.882812 180.707031 268.851562 180.859375 268.691406 180.972656 C 268.5 181.113281 268.292969 181.234375 268.074219 181.332031 C 267.558594 181.554688 267.035156 181.761719 266.511719 181.960938 C 266.0625 182.132812 265.609375 182.285156 265.160156 182.457031 C 264.640625 182.65625 264.125 182.863281 263.617188 183.058594 C 263.679688 183.488281 263.96875 183.675781 264.289062 183.65625 C 264.925781 183.628906 265.558594 183.460938 266.195312 183.445312 C 267.34375 183.414062 268.410156 183.0625 269.464844 182.679688 C 272.210938 181.675781 274.648438 180.128906 276.929688 178.332031 C 277.820312 177.632812 278.585938 176.8125 279.21875 175.875 C 279.339844 175.667969 279.4375 175.449219 279.519531 175.226562 C 279.605469 175.035156 279.449219 174.722656 279.234375 174.652344 C 278.394531 174.375 277.542969 174.15625 276.644531 174.171875 C 275.597656 174.167969 274.5625 174.273438 273.539062 174.484375 C 272.046875 174.824219 270.578125 175.238281 269.132812 175.730469 C 266.988281 176.453125 265.046875 177.59375 263.210938 178.910156 C 262.984375 179.046875 262.890625 179.246094 262.917969 179.507812 C 262.78125 179.507812 262.640625 179.507812 262.5 179.535156 C 262.429688 179.546875 262.371094 179.578125 262.316406 179.625 C 262.289062 179.652344 262.292969 179.714844 262.285156 179.761719 C 262.40625 179.769531 262.558594 179.828125 262.648438 179.777344 C 262.738281 179.726562 262.796875 179.574219 262.867188 179.460938 Z M 254.582031 194.292969 C 254.496094 196.152344 254.976562 198.277344 255.273438 200.417969 C 255.347656 200.953125 255.4375 201.535156 255.785156 201.996094 C 255.890625 202.117188 256.027344 202.183594 256.183594 202.203125 C 256.609375 202.261719 256.964844 202.054688 257.300781 201.832031 C 259.332031 200.546875 260.820312 198.796875 261.761719 196.585938 C 263.128906 193.425781 263.632812 190.136719 263.273438 186.714844 C 263.234375 186.394531 263.152344 186.089844 263.03125 185.792969 C 262.964844 185.644531 262.859375 185.535156 262.714844 185.460938 C 262.574219 185.378906 262.421875 185.355469 262.265625 185.386719 C 262.113281 185.441406 262.007812 185.542969 261.949219 185.695312 C 261.898438 185.929688 261.878906 186.167969 261.894531 186.40625 C 261.894531 187.527344 261.902344 188.652344 261.894531 189.773438 C 261.878906 190.175781 261.835938 190.578125 261.769531 190.972656 C 261.746094 191.136719 261.691406 191.285156 261.601562 191.425781 C 261.511719 191.554688 261.394531 191.648438 261.242188 191.703125 C 261.1875 191.722656 260.992188 191.523438 260.992188 191.429688 C 261.054688 189.410156 260.621094 187.445312 260.371094 185.457031 C 260.328125 185.113281 260.152344 184.863281 259.839844 184.710938 C 259.507812 184.527344 259.132812 184.621094 259.054688 184.929688 C 258.714844 186.25 258.390625 187.574219 258.394531 188.949219 C 258.40625 190.796875 258.414062 192.640625 258.457031 194.484375 C 258.476562 195.367188 258.542969 196.246094 258.832031 197.097656 C 258.855469 197.25 258.835938 197.402344 258.78125 197.546875 C 258.753906 197.625 258.703125 197.683594 258.628906 197.722656 C 258.550781 197.753906 258.472656 197.746094 258.394531 197.707031 C 258.042969 197.46875 257.902344 197.082031 257.765625 196.714844 C 257.316406 195.515625 257.125 194.242188 256.902344 192.96875 C 256.605469 191.296875 256.601562 189.625 256.890625 187.949219 C 257.054688 187.011719 257.140625 186.058594 257.25 185.113281 C 257.25 185.066406 257.152344 184.980469 257.089844 184.960938 C 257.007812 184.949219 256.933594 184.972656 256.871094 185.03125 C 256.714844 185.210938 256.574219 185.402344 256.457031 185.613281 C 255.058594 188.234375 254.515625 191.035156 254.582031 194.292969 Z M 257.542969 172.644531 L 257.59375 172.644531 C 257.59375 171.679688 257.578125 170.714844 257.59375 169.75 C 257.621094 168.855469 257.839844 168.003906 258.25 167.203125 C 258.335938 167.027344 258.46875 166.972656 258.65625 167.039062 C 258.730469 167.074219 258.777344 167.132812 258.792969 167.210938 C 258.828125 167.441406 258.90625 167.695312 258.851562 167.910156 C 258.558594 169.019531 258.550781 170.132812 258.828125 171.246094 C 258.882812 171.484375 258.90625 171.722656 258.90625 171.964844 C 258.925781 173.578125 259.257812 175.15625 259.449219 176.75 C 259.507812 177.398438 259.695312 178.007812 260.011719 178.578125 C 260.050781 178.640625 260.148438 178.726562 260.191406 178.726562 C 260.339844 178.6875 260.472656 178.625 260.59375 178.535156 C 260.796875 178.371094 260.832031 178.125 260.84375 177.882812 C 260.914062 176.4375 260.960938 174.992188 261.054688 173.550781 C 261.074219 173.25 261.238281 172.949219 261.355469 172.652344 C 261.378906 172.59375 261.476562 172.5625 261.542969 172.527344 C 261.707031 172.445312 261.84375 172.511719 261.867188 172.722656 C 261.9375 173.601562 261.980469 174.480469 262.046875 175.359375 C 262.082031 175.839844 262.125 176.328125 262.390625 176.742188 C 262.496094 176.863281 262.628906 176.914062 262.785156 176.890625 C 263.613281 176.59375 263.839844 176.28125 263.824219 175.496094 C 263.804688 174.613281 263.707031 173.738281 263.523438 172.875 C 263.109375 170.988281 262.546875 169.148438 261.832031 167.351562 C 261.328125 165.988281 260.691406 164.6875 259.921875 163.457031 C 259.707031 163.121094 259.453125 162.804688 259.207031 162.488281 C 258.839844 162.015625 258.28125 162.023438 258.027344 162.5 C 257.953125 162.652344 257.867188 162.78125 257.800781 162.925781 C 257.152344 164.410156 256.734375 165.953125 256.546875 167.558594 C 256.464844 168.195312 256.519531 168.855469 256.390625 169.480469 C 255.882812 171.910156 256.335938 174.277344 256.859375 176.628906 C 257.070312 177.570312 257.28125 178.511719 257.695312 179.386719 C 257.84375 179.667969 258.015625 179.9375 258.207031 180.191406 C 258.257812 180.222656 258.3125 180.226562 258.367188 180.199219 C 258.4375 180.152344 258.480469 180.085938 258.492188 180.003906 C 258.496094 179.761719 258.46875 179.527344 258.40625 179.292969 C 257.769531 177.367188 257.480469 175.390625 257.542969 173.367188 C 257.546875 173.128906 257.542969 172.882812 257.542969 172.644531 Z M 257.542969 172.644531 " fill-opacity="1" fill-rule="nonzero"/></g><path fill="rgb(6.269836%, 28.239441%, 33.729553%)" d="M 165.289062 204.761719 C 165.277344 204.832031 165.289062 204.921875 165.246094 204.976562 C 164.546875 205.949219 163.699219 206.773438 162.703125 207.445312 C 162.375 207.660156 162.027344 207.878906 161.613281 207.875 C 161.371094 207.875 161.132812 207.824219 160.988281 207.609375 C 160.835938 207.398438 160.8125 207.175781 160.914062 206.9375 C 160.96875 206.789062 161.054688 206.65625 161.171875 206.546875 C 162.144531 205.71875 163.195312 205.011719 164.421875 204.605469 C 164.632812 204.539062 164.882812 204.585938 165.113281 204.605469 C 165.183594 204.613281 165.230469 204.707031 165.289062 204.761719 Z M 165.289062 204.761719 " fill-opacity="1" fill-rule="nonzero"/><path fill="rgb(6.269836%, 28.239441%, 33.729553%)" d="M 213.972656 120.410156 C 213.96875 119.378906 214.253906 118.433594 214.824219 117.574219 C 214.875 117.511719 214.933594 117.457031 214.996094 117.40625 C 215.128906 117.277344 215.296875 117.226562 215.425781 117.320312 C 215.566406 117.398438 215.664062 117.511719 215.726562 117.660156 C 215.773438 117.898438 215.777344 118.136719 215.738281 118.375 C 215.625 119.089844 215.5 119.800781 215.347656 120.503906 C 215.289062 120.84375 215.109375 121.097656 214.808594 121.265625 C 214.667969 121.347656 214.519531 121.371094 214.359375 121.335938 C 214.210938 121.265625 214.109375 121.152344 214.058594 120.996094 C 214.011719 120.804688 213.984375 120.609375 213.972656 120.410156 Z M 213.972656 120.410156 " fill-opacity="1" fill-rule="nonzero"/><path fill="rgb(6.269836%, 28.239441%, 33.729553%)" d="M 211.503906 140.65625 C 211.480469 141.054688 211.472656 141.453125 211.425781 141.855469 C 211.386719 142.007812 211.328125 142.15625 211.246094 142.292969 C 211.121094 142.558594 210.742188 142.710938 210.4375 142.660156 C 210.160156 142.617188 209.863281 142.167969 209.914062 141.9375 C 210.097656 141.078125 210.207031 140.199219 210.628906 139.40625 C 210.765625 139.148438 211.050781 138.957031 211.183594 139.105469 C 211.285156 139.214844 211.429688 139.339844 211.441406 139.464844 C 211.472656 139.859375 211.453125 140.261719 211.453125 140.664062 Z M 211.503906 140.65625 " fill-opacity="1" fill-rule="nonzero"/><path fill="rgb(6.269836%, 28.239441%, 33.729553%)" d="M 182.859375 192.882812 C 182.671875 192.75 182.5 192.59375 182.347656 192.421875 C 182.273438 192.316406 182.308594 192.121094 182.320312 191.972656 C 182.339844 191.890625 182.375 191.820312 182.433594 191.761719 C 183.144531 190.820312 184.117188 190.328125 185.265625 190.167969 C 185.378906 190.152344 185.527344 190.296875 185.640625 190.386719 C 185.667969 190.410156 185.632812 190.550781 185.589844 190.613281 C 185.042969 191.410156 184.363281 192.078125 183.554688 192.617188 C 183.359375 192.746094 183.117188 192.789062 182.859375 192.882812 Z M 182.859375 192.882812 " fill-opacity="1" fill-rule="nonzero"/><path fill="rgb(6.269836%, 28.239441%, 33.729553%)" d="M 153.277344 214.210938 C 153.117188 214.117188 152.847656 214.042969 152.746094 213.871094 C 152.636719 213.648438 152.621094 213.421875 152.695312 213.191406 C 152.789062 212.960938 152.9375 212.777344 153.136719 212.632812 C 153.714844 212.1875 154.351562 211.847656 155.046875 211.617188 C 155.230469 211.5625 155.359375 211.625 155.433594 211.804688 C 155.460938 211.878906 155.472656 211.960938 155.457031 212.042969 C 155.457031 212.121094 155.4375 212.195312 155.398438 212.265625 C 154.96875 212.953125 154.433594 213.546875 153.792969 214.042969 C 153.675781 214.136719 153.492188 214.140625 153.277344 214.210938 Z M 153.277344 214.210938 " fill-opacity="1" fill-rule="nonzero"/><path fill="rgb(6.269836%, 28.239441%, 33.729553%)" d="M 195.5625 183.417969 C 195.5625 183.496094 195.546875 183.570312 195.515625 183.640625 C 195.082031 184.320312 194.511719 184.859375 193.804688 185.257812 C 193.59375 185.367188 193.371094 185.445312 193.132812 185.484375 C 192.875 185.515625 192.667969 185.425781 192.507812 185.21875 C 192.417969 185.085938 192.375 184.9375 192.386719 184.777344 C 192.398438 184.613281 192.460938 184.472656 192.570312 184.351562 C 193.351562 183.648438 194.265625 183.222656 195.308594 183.074219 C 195.363281 183.066406 195.449219 183.152344 195.492188 183.214844 C 195.527344 183.277344 195.550781 183.347656 195.5625 183.417969 Z M 195.5625 183.417969 " fill-opacity="1" fill-rule="nonzero"/><path fill="rgb(6.269836%, 28.239441%, 33.729553%)" d="M 122.9375 259.949219 C 123.019531 259.460938 123.066406 258.984375 123.1875 258.527344 C 123.292969 258.046875 123.535156 257.644531 123.914062 257.328125 C 124.046875 257.257812 124.195312 257.222656 124.347656 257.226562 C 124.542969 257.214844 124.785156 257.503906 124.796875 257.714844 C 124.816406 257.871094 124.816406 258.027344 124.796875 258.183594 C 124.59375 259.128906 124.183594 259.976562 123.558594 260.714844 C 123.480469 260.800781 123.289062 260.804688 123.148438 260.808594 C 123.105469 260.808594 123.023438 260.699219 123.011719 260.628906 C 122.972656 260.398438 122.960938 260.164062 122.9375 259.949219 Z M 122.9375 259.949219 " fill-opacity="1" fill-rule="nonzero"/><path fill="rgb(6.269836%, 28.239441%, 33.729553%)" d="M 172.292969 200.332031 C 172.066406 200.214844 171.847656 200.082031 171.644531 199.933594 C 171.535156 199.839844 171.660156 199.398438 171.78125 199.28125 C 171.828125 199.21875 171.878906 199.160156 171.933594 199.101562 C 172.636719 198.585938 173.414062 198.210938 174.257812 197.976562 C 174.417969 197.964844 174.546875 198.023438 174.644531 198.152344 C 174.710938 198.292969 174.707031 198.433594 174.632812 198.570312 C 174.238281 199.175781 173.734375 199.667969 173.117188 200.042969 C 172.867188 200.199219 172.542969 200.246094 172.292969 200.332031 Z M 172.292969 200.332031 " fill-opacity="1" fill-rule="nonzero"/><path fill="rgb(6.269836%, 28.239441%, 33.729553%)" d="M 226.488281 179.070312 C 226.1875 179.035156 225.867188 179.015625 225.5625 178.953125 C 225.40625 178.917969 225.273438 178.84375 225.160156 178.734375 C 225.050781 178.632812 224.90625 178.460938 224.929688 178.351562 C 224.972656 178.144531 225.078125 177.863281 225.238281 177.785156 C 225.527344 177.664062 225.828125 177.609375 226.140625 177.628906 C 226.859375 177.644531 227.492188 177.960938 228.128906 178.269531 C 228.203125 178.308594 228.253906 178.367188 228.277344 178.445312 C 228.304688 178.527344 228.300781 178.601562 228.265625 178.675781 C 228.246094 178.738281 228.164062 178.785156 228.101562 178.828125 C 227.597656 179.109375 227.03125 178.960938 226.488281 179.070312 Z M 226.488281 179.070312 " fill-opacity="1" fill-rule="nonzero"/><path fill="rgb(6.269836%, 28.239441%, 33.729553%)" d="M 117.097656 283.542969 C 117.136719 283.113281 117.199219 282.683594 117.285156 282.261719 C 117.355469 281.917969 117.550781 281.679688 117.871094 281.542969 C 118.09375 281.449219 118.40625 281.542969 118.472656 281.761719 C 118.507812 281.832031 118.535156 281.90625 118.554688 281.980469 C 118.632812 283.0625 118.28125 284.015625 117.683594 284.898438 C 117.652344 284.949219 117.535156 284.96875 117.460938 284.964844 C 117.390625 284.949219 117.335938 284.910156 117.296875 284.851562 C 117.046875 284.492188 117.136719 284.082031 117.097656 283.542969 Z M 117.097656 283.542969 " fill-opacity="1" fill-rule="nonzero"/><path fill="rgb(6.269836%, 28.239441%, 33.729553%)" d="M 128.894531 244.480469 C 128.816406 244.480469 128.722656 244.507812 128.660156 244.480469 C 128.589844 244.433594 128.542969 244.371094 128.523438 244.289062 C 128.46875 244.144531 128.4375 243.996094 128.429688 243.839844 C 128.4375 243.105469 128.6875 242.433594 129.03125 241.789062 C 129.164062 241.535156 129.652344 241.328125 129.847656 241.445312 C 129.984375 241.535156 130.082031 241.65625 130.140625 241.808594 C 130.199219 241.960938 130.210938 242.113281 130.167969 242.273438 C 130.148438 242.429688 130.109375 242.585938 130.054688 242.734375 C 129.804688 243.234375 129.542969 243.730469 129.261719 244.214844 C 129.1875 244.324219 129.019531 244.390625 128.894531 244.480469 Z M 128.894531 244.480469 " fill-opacity="1" fill-rule="nonzero"/><path fill="rgb(6.269836%, 28.239441%, 33.729553%)" d="M 120 274.992188 C 120.015625 275.070312 120.023438 275.148438 120.019531 275.230469 C 119.890625 276.269531 119.625 277.261719 118.96875 278.109375 C 118.914062 278.164062 118.847656 278.179688 118.773438 278.164062 C 118.636719 278.089844 118.515625 278 118.40625 277.894531 C 118.355469 277.824219 118.339844 277.75 118.351562 277.664062 C 118.503906 276.886719 118.652344 276.101562 118.839844 275.332031 C 118.894531 275.121094 119.109375 274.953125 119.253906 274.765625 C 119.300781 274.695312 119.367188 274.648438 119.453125 274.628906 C 119.539062 274.609375 119.617188 274.625 119.6875 274.671875 C 119.804688 274.765625 119.910156 274.871094 120 274.992188 Z M 120 274.992188 " fill-opacity="1" fill-rule="nonzero"/><path fill="rgb(6.269836%, 28.239441%, 33.729553%)" d="M 167.703125 203.558594 C 167.523438 203.457031 167.355469 203.34375 167.199219 203.207031 C 167.078125 203.089844 167.15625 202.660156 167.265625 202.546875 C 167.3125 202.484375 167.363281 202.425781 167.414062 202.371094 C 168.054688 201.894531 168.761719 201.566406 169.539062 201.386719 C 169.628906 201.363281 169.785156 201.523438 169.882812 201.625 C 169.929688 201.699219 169.933594 201.773438 169.898438 201.851562 C 169.496094 202.660156 168.867188 203.214844 168.011719 203.515625 C 167.910156 203.539062 167.808594 203.550781 167.703125 203.558594 Z M 167.703125 203.558594 " fill-opacity="1" fill-rule="nonzero"/><path fill="rgb(6.269836%, 28.239441%, 33.729553%)" d="M 179.515625 194.898438 C 179.515625 194.972656 179.53125 195.066406 179.492188 195.125 C 179.109375 195.738281 178.613281 196.234375 178.007812 196.625 C 177.867188 196.695312 177.722656 196.746094 177.570312 196.773438 C 177.410156 196.8125 177.261719 196.796875 177.117188 196.722656 C 176.972656 196.648438 176.871094 196.539062 176.808594 196.390625 C 176.707031 196.136719 176.757812 195.921875 176.957031 195.738281 C 177.585938 195.105469 178.34375 194.722656 179.226562 194.59375 C 179.28125 194.582031 179.359375 194.660156 179.414062 194.710938 C 179.457031 194.769531 179.488281 194.832031 179.515625 194.898438 Z M 179.515625 194.898438 " fill-opacity="1" fill-rule="nonzero"/><path fill="rgb(6.269836%, 28.239441%, 33.729553%)" d="M 213.160156 130.332031 C 213.09375 130.792969 213.039062 131.257812 212.964844 131.71875 C 212.925781 131.984375 212.542969 132.207031 212.238281 132.167969 C 211.933594 132.128906 211.652344 131.765625 211.703125 131.503906 C 211.871094 130.671875 212.042969 129.835938 212.582031 129.140625 C 212.644531 129.085938 212.71875 129.0625 212.800781 129.074219 C 212.855469 129.074219 212.914062 129.144531 212.949219 129.199219 C 213.003906 129.257812 213.039062 129.324219 213.054688 129.402344 C 213.101562 129.714844 213.125 130.015625 213.160156 130.332031 Z M 213.160156 130.332031 " fill-opacity="1" fill-rule="nonzero"/><path fill="rgb(6.269836%, 28.239441%, 33.729553%)" d="M 121.144531 268.871094 C 121.253906 268.972656 121.355469 269.082031 121.445312 269.199219 C 121.480469 269.273438 121.488281 269.351562 121.46875 269.429688 C 121.398438 270.230469 121.148438 270.96875 120.71875 271.648438 C 120.648438 271.757812 120.449219 271.796875 120.308594 271.835938 C 120.285156 271.835938 120.203125 271.714844 120.183594 271.644531 C 120 270.929688 120.042969 270.230469 120.304688 269.546875 C 120.417969 269.234375 120.621094 269.003906 120.917969 268.851562 C 120.96875 268.824219 121.066406 268.863281 121.144531 268.871094 Z M 121.144531 268.871094 " fill-opacity="1" fill-rule="nonzero"/><path fill="rgb(6.269836%, 28.239441%, 33.729553%)" d="M 126.382812 249.347656 C 126.429688 249.097656 126.476562 248.707031 126.566406 248.332031 C 126.65625 248.007812 126.855469 247.777344 127.167969 247.648438 C 127.359375 247.558594 127.691406 247.664062 127.757812 247.851562 C 127.824219 247.992188 127.867188 248.136719 127.886719 248.289062 C 127.886719 249.03125 127.621094 249.660156 127.09375 250.179688 C 126.976562 250.292969 126.835938 250.335938 126.675781 250.308594 C 126.5625 250.269531 126.46875 250.089844 126.425781 249.949219 C 126.390625 249.75 126.378906 249.550781 126.382812 249.347656 Z M 126.382812 249.347656 " fill-opacity="1" fill-rule="nonzero"/><path fill="rgb(6.269836%, 28.239441%, 33.729553%)" d="M 200.332031 179.476562 C 200.4375 179.523438 200.507812 179.550781 200.578125 179.582031 C 200.757812 179.664062 200.785156 179.792969 200.695312 179.976562 C 200.441406 180.480469 200.128906 180.941406 199.640625 181.238281 C 199.355469 181.421875 199.050781 181.457031 198.730469 181.339844 C 198.320312 181.195312 198.179688 180.660156 198.488281 180.382812 C 199.027344 179.902344 199.609375 179.503906 200.332031 179.476562 Z M 200.332031 179.476562 " fill-opacity="1" fill-rule="nonzero"/><path fill="rgb(6.269836%, 28.239441%, 33.729553%)" d="M 235.632812 180.242188 C 235.5 180.199219 235.121094 180.082031 234.75 179.941406 C 234.511719 179.835938 234.378906 179.652344 234.351562 179.390625 C 234.367188 179.109375 234.746094 178.738281 234.988281 178.792969 C 235.675781 178.941406 236.425781 178.929688 236.976562 179.480469 C 237.125 179.628906 237.136719 179.773438 236.984375 179.898438 C 236.613281 180.210938 236.328125 180.300781 235.632812 180.242188 Z M 235.632812 180.242188 " fill-opacity="1" fill-rule="nonzero"/><path fill="rgb(6.269836%, 28.239441%, 33.729553%)" d="M 214.394531 124.789062 C 214.328125 125.140625 214.285156 125.453125 214.203125 125.75 C 214.144531 125.894531 214.066406 126.027344 213.960938 126.144531 C 213.859375 126.285156 213.421875 126.382812 213.316406 126.277344 C 213.191406 126.175781 213.105469 126.050781 213.054688 125.898438 C 212.925781 125.167969 213.132812 124.503906 213.546875 123.898438 C 213.664062 123.730469 213.785156 123.691406 213.929688 123.792969 C 213.992188 123.835938 214.078125 123.878906 214.097656 123.941406 C 214.210938 124.226562 214.304688 124.519531 214.394531 124.789062 Z M 214.394531 124.789062 " fill-opacity="1" fill-rule="nonzero"/><path fill="rgb(6.269836%, 28.239441%, 33.729553%)" d="M 121.554688 266.101562 C 121.488281 265.972656 121.289062 265.769531 121.296875 265.578125 C 121.320312 264.917969 121.535156 264.328125 121.941406 263.808594 C 122 263.753906 122.0625 263.707031 122.132812 263.667969 C 122.195312 263.609375 122.269531 263.574219 122.355469 263.570312 C 122.441406 263.566406 122.519531 263.59375 122.582031 263.648438 C 122.691406 263.746094 122.816406 263.925781 122.796875 264.042969 C 122.660156 264.746094 122.578125 265.472656 122.066406 266.039062 C 121.933594 266.183594 121.796875 266.222656 121.554688 266.101562 Z M 121.554688 266.101562 " fill-opacity="1" fill-rule="nonzero"/><path fill="rgb(6.269836%, 28.239441%, 33.729553%)" d="M 159.226562 208.855469 C 159.234375 208.933594 159.226562 209.007812 159.207031 209.082031 C 158.96875 209.597656 158.601562 209.992188 158.105469 210.269531 C 157.972656 210.359375 157.824219 210.394531 157.664062 210.382812 C 157.449219 210.328125 157.171875 210.234375 157.085938 210.0625 C 156.992188 209.835938 157.011719 209.621094 157.140625 209.410156 C 157.535156 208.882812 158.066406 208.582031 158.722656 208.503906 C 158.925781 208.480469 159.25 208.691406 159.226562 208.855469 Z M 159.226562 208.855469 " fill-opacity="1" fill-rule="nonzero"/><path fill="rgb(6.269836%, 28.239441%, 33.729553%)" d="M 190.117188 187.101562 C 190.125 187.183594 190.117188 187.261719 190.09375 187.339844 C 189.832031 187.855469 189.449219 188.25 188.941406 188.53125 C 188.75 188.632812 188.476562 188.613281 188.246094 188.609375 C 188.074219 188.609375 187.855469 188.195312 187.910156 188.042969 C 188.15625 187.363281 189.042969 186.773438 189.796875 186.816406 C 189.902344 186.820312 190.003906 187.003906 190.117188 187.101562 Z M 190.117188 187.101562 " fill-opacity="1" fill-rule="nonzero"/><path fill="rgb(6.269836%, 28.239441%, 33.729553%)" d="M 250.1875 181.816406 C 249.886719 181.757812 249.625 181.757812 249.421875 181.648438 C 249.226562 181.523438 249.0625 181.363281 248.941406 181.164062 C 248.820312 181 248.984375 180.644531 249.175781 180.585938 C 249.320312 180.523438 249.46875 180.480469 249.625 180.460938 C 250.273438 180.460938 250.890625 180.589844 251.402344 181.023438 C 251.457031 181.074219 251.550781 181.175781 251.535156 181.199219 C 251.464844 181.332031 251.382812 181.527344 251.265625 181.5625 C 250.910156 181.667969 250.550781 181.75 250.1875 181.816406 Z M 250.1875 181.816406 " fill-opacity="1" fill-rule="nonzero"/><path fill="rgb(6.269836%, 28.239441%, 33.729553%)" d="M 131.648438 235.902344 C 131.84375 236.054688 132.023438 236.175781 132.1875 236.324219 C 132.230469 236.363281 132.226562 236.472656 132.222656 236.550781 C 132.191406 237.394531 131.839844 238.0625 131.160156 238.558594 C 131.089844 238.609375 131.015625 238.625 130.933594 238.605469 C 130.863281 238.5625 130.816406 238.5 130.800781 238.417969 C 130.621094 237.699219 130.714844 237.015625 131.078125 236.371094 C 131.179688 236.183594 131.425781 236.078125 131.648438 235.902344 Z M 131.648438 235.902344 " fill-opacity="1" fill-rule="nonzero"/><path fill="rgb(6.269836%, 28.239441%, 33.729553%)" d="M 245.546875 181.101562 C 245.089844 181.039062 244.640625 180.941406 244.195312 180.816406 C 244.023438 180.757812 243.894531 180.476562 243.828125 180.269531 C 243.800781 180.195312 243.996094 180.019531 244.117188 179.929688 C 244.242188 179.824219 244.382812 179.765625 244.546875 179.753906 C 245.253906 179.804688 245.957031 179.921875 246.554688 180.339844 C 246.652344 180.410156 246.671875 180.613281 246.703125 180.757812 C 246.703125 180.789062 246.585938 180.863281 246.511719 180.882812 C 246.207031 180.957031 245.902344 181.023438 245.546875 181.101562 Z M 245.546875 181.101562 " fill-opacity="1" fill-rule="nonzero"/><path fill="rgb(6.269836%, 28.239441%, 33.729553%)" d="M 213.960938 177.519531 C 213.796875 177.480469 213.640625 177.453125 213.492188 177.40625 C 213.226562 177.324219 213.078125 176.828125 213.28125 176.605469 C 213.429688 176.421875 213.621094 176.296875 213.84375 176.226562 C 214.355469 176.113281 214.789062 176.246094 215.144531 176.625 C 215.296875 176.773438 215.253906 177.101562 215.078125 177.238281 C 214.738281 177.496094 214.34375 177.503906 213.960938 177.519531 Z M 213.960938 177.519531 " fill-opacity="1" fill-rule="nonzero"/><path fill="rgb(6.269836%, 28.239441%, 33.729553%)" d="M 231.203125 179.519531 C 230.992188 179.488281 230.761719 179.464844 230.535156 179.417969 C 230.367188 179.394531 230.246094 179.308594 230.160156 179.164062 C 230.078125 179.023438 230.0625 178.871094 230.121094 178.714844 C 230.207031 178.441406 230.574219 178.175781 230.816406 178.199219 C 231.289062 178.253906 231.714844 178.433594 232.085938 178.730469 C 232.234375 178.835938 232.3125 178.984375 232.234375 179.136719 C 232.167969 179.273438 232.066406 179.367188 231.929688 179.425781 C 231.6875 179.476562 231.449219 179.507812 231.203125 179.519531 Z M 231.203125 179.519531 " fill-opacity="1" fill-rule="nonzero"/><path fill="rgb(6.269836%, 28.239441%, 33.729553%)" d="M 124.949219 253.609375 C 125.035156 253.417969 125.179688 253.054688 125.359375 252.710938 C 125.414062 252.601562 125.503906 252.523438 125.617188 252.476562 C 125.734375 252.429688 125.851562 252.421875 125.96875 252.460938 C 126.085938 252.5 126.179688 252.574219 126.242188 252.679688 C 126.308594 252.789062 126.332031 252.902344 126.3125 253.023438 C 126.273438 253.605469 126.046875 254.097656 125.632812 254.507812 C 125.519531 254.625 125.378906 254.675781 125.214844 254.65625 C 125.097656 254.613281 125 254.425781 124.957031 254.285156 C 124.914062 254.140625 124.949219 253.96875 124.949219 253.609375 Z M 124.949219 253.609375 " fill-opacity="1" fill-rule="nonzero"/><path fill="rgb(6.269836%, 28.239441%, 33.729553%)" d="M 216.757812 113.054688 C 216.765625 113.5 216.640625 113.90625 216.386719 114.277344 C 216.253906 114.472656 215.886719 114.628906 215.777344 114.511719 C 215.660156 114.402344 215.574219 114.273438 215.519531 114.121094 C 215.398438 113.625 215.496094 113.171875 215.820312 112.773438 C 215.972656 112.566406 216.316406 112.421875 216.4375 112.5625 C 216.558594 112.71875 216.664062 112.882812 216.757812 113.054688 Z M 216.757812 113.054688 " fill-opacity="1" fill-rule="nonzero"/><path fill="rgb(6.269836%, 28.239441%, 33.729553%)" d="M 210.558594 145.636719 C 210.574219 146.175781 210.511719 146.550781 210.144531 146.804688 C 210.003906 146.929688 209.859375 146.9375 209.707031 146.828125 C 209.375 146.609375 209.246094 146.351562 209.300781 146.054688 C 209.367188 145.660156 209.539062 145.316406 209.816406 145.023438 C 209.863281 144.957031 209.929688 144.914062 210.011719 144.898438 C 210.09375 144.882812 210.167969 144.894531 210.242188 144.941406 C 210.308594 144.976562 210.359375 145.035156 210.390625 145.105469 C 210.472656 145.320312 210.53125 145.542969 210.558594 145.636719 Z M 210.558594 145.636719 " fill-opacity="1" fill-rule="nonzero"/><path fill="rgb(6.269836%, 28.239441%, 33.729553%)" d="M 222.292969 178.503906 C 222.023438 178.472656 221.792969 178.445312 221.566406 178.410156 C 221.296875 178.367188 220.984375 178.023438 220.984375 177.78125 C 220.984375 177.535156 221.367188 177.191406 221.621094 177.191406 C 222.191406 177.179688 222.675781 177.378906 223.074219 177.789062 C 223.117188 177.847656 223.144531 177.914062 223.152344 177.984375 C 223.175781 178.066406 223.164062 178.144531 223.117188 178.214844 C 223.070312 178.285156 223.007812 178.328125 222.921875 178.335938 Z M 222.292969 178.503906 " fill-opacity="1" fill-rule="nonzero"/><path fill="rgb(6.269836%, 28.239441%, 33.729553%)" d="M 218.316406 176.757812 C 218.699219 176.804688 219 176.988281 219.214844 177.3125 C 219.285156 177.40625 219.304688 177.511719 219.277344 177.628906 C 219.25 177.742188 219.1875 177.832031 219.082031 177.886719 C 218.71875 178.066406 218.347656 178.09375 217.960938 177.96875 C 217.804688 177.933594 217.683594 177.84375 217.605469 177.703125 C 217.523438 177.5625 217.507812 177.414062 217.558594 177.261719 C 217.617188 177.105469 217.714844 176.980469 217.855469 176.890625 C 217.996094 176.796875 218.148438 176.753906 218.316406 176.757812 Z M 218.316406 176.757812 " fill-opacity="1" fill-rule="nonzero"/><path fill="rgb(6.269836%, 28.239441%, 33.729553%)" d="M 240.363281 180.566406 C 240.09375 180.515625 239.828125 180.445312 239.566406 180.359375 C 239.453125 180.316406 239.378906 180.144531 239.3125 180.015625 C 239.246094 179.890625 239.492188 179.554688 239.679688 179.515625 C 240.226562 179.414062 240.757812 179.445312 241.234375 179.753906 C 241.375 179.835938 241.4375 179.960938 241.414062 180.125 C 241.386719 180.289062 241.296875 180.390625 241.136719 180.429688 C 240.882812 180.496094 240.625 180.539062 240.363281 180.566406 Z M 240.363281 180.566406 " fill-opacity="1" fill-rule="nonzero"/><path fill="rgb(6.269836%, 28.239441%, 33.729553%)" d="M 212.214844 135.472656 C 212.136719 135.746094 212.039062 136.113281 211.917969 136.46875 C 211.859375 136.632812 211.414062 136.800781 211.324219 136.703125 C 211.214844 136.59375 211.136719 136.464844 211.089844 136.316406 C 210.945312 135.679688 211.066406 135.09375 211.449219 134.5625 C 211.542969 134.433594 211.671875 134.363281 211.832031 134.355469 C 211.933594 134.371094 212.054688 134.550781 212.09375 134.679688 C 212.15625 134.941406 212.195312 135.207031 212.214844 135.472656 Z M 212.214844 135.472656 " fill-opacity="1" fill-rule="nonzero"/><path fill="rgb(6.269836%, 28.239441%, 33.729553%)" d="M 217.402344 109.667969 C 217.332031 109.917969 217.238281 110.164062 217.128906 110.398438 C 217.039062 110.53125 216.914062 110.601562 216.753906 110.617188 C 216.605469 110.597656 216.5 110.519531 216.4375 110.390625 C 216.273438 109.929688 216.359375 109.46875 216.535156 109.023438 C 216.601562 108.851562 217 108.597656 217.089844 108.6875 C 217.203125 108.796875 217.289062 108.921875 217.347656 109.0625 C 217.386719 109.261719 217.402344 109.464844 217.402344 109.667969 Z M 217.402344 109.667969 " fill-opacity="1" fill-rule="nonzero"/><g fill="rgb(6.269836%, 28.239441%, 33.729553%)" fill-opacity="1"><g transform="translate(116.60156, 146.670936)"><g><path d="M 25.917969 0 L 29.527344 -11.84375 C 29.527344 -11.84375 29.101562 -11.84375 28.996094 -11.683594 C 28.625 -10.832031 23.738281 -4.566406 16.25 -4.566406 L 8.074219 -4.566406 C 18.214844 -14.339844 27.617188 -20.179688 27.617188 -28.945312 C 27.617188 -34.519531 22.675781 -37.335938 17.152344 -37.335938 C 12.640625 -37.335938 7.699219 -35.421875 4.726562 -31.597656 C 4.25 -30.960938 4.089844 -30.378906 4.089844 -29.792969 C 4.089844 -28.304688 5.363281 -27.136719 6.851562 -27.136719 C 7.59375 -27.136719 8.335938 -27.402344 9.027344 -28.09375 C 11.894531 -30.910156 10.78125 -36.589844 17.261719 -36.589844 C 21.191406 -36.589844 22.410156 -33.511719 22.410156 -29.6875 C 22.410156 -17.683594 9.984375 -8.445312 1.644531 -0.210938 L 1.378906 0 Z M 25.917969 0 "/></g></g></g><g fill="rgb(6.269836%, 28.239441%, 33.729553%)" fill-opacity="1"><g transform="translate(147.292049, 146.670936)"><g><path d="M 2.285156 -18.585938 C 2.285156 -6.957031 9.453125 0.796875 20.128906 0.796875 C 30.855469 0.796875 37.917969 -6.957031 37.917969 -18.585938 C 37.917969 -30.21875 30.855469 -37.972656 20.128906 -37.972656 C 9.453125 -37.972656 2.285156 -30.21875 2.285156 -18.585938 Z M 7.542969 -18.585938 C 7.542969 -30.960938 13.859375 -37.175781 20.179688 -37.175781 C 26.449219 -37.175781 32.765625 -30.960938 32.765625 -18.585938 C 32.765625 -6.265625 26.449219 -0.0546875 20.179688 -0.0546875 C 13.859375 -0.0546875 7.542969 -6.265625 7.542969 -18.585938 Z M 7.542969 -18.585938 "/></g></g></g><g fill="rgb(6.269836%, 28.239441%, 33.729553%)" fill-opacity="1"><g transform="translate(187.511711, 262.238668)"><g><path d="M 25.917969 0 L 29.527344 -11.84375 C 29.527344 -11.84375 29.101562 -11.84375 28.996094 -11.683594 C 28.625 -10.832031 23.738281 -4.566406 16.25 -4.566406 L 8.074219 -4.566406 C 18.214844 -14.339844 27.617188 -20.179688 27.617188 -28.945312 C 27.617188 -34.519531 22.675781 -37.335938 17.152344 -37.335938 C 12.640625 -37.335938 7.699219 -35.421875 4.726562 -31.597656 C 4.25 -30.960938 4.089844 -30.378906 4.089844 -29.792969 C 4.089844 -28.304688 5.363281 -27.136719 6.851562 -27.136719 C 7.59375 -27.136719 8.335938 -27.402344 9.027344 -28.09375 C 11.894531 -30.910156 10.78125 -36.589844 17.261719 -36.589844 C 21.191406 -36.589844 22.410156 -33.511719 22.410156 -29.6875 C 22.410156 -17.683594 9.984375 -8.445312 1.644531 -0.210938 L 1.378906 0 Z M 25.917969 0 "/></g></g></g><g fill="rgb(6.269836%, 28.239441%, 33.729553%)" fill-opacity="1"><g transform="translate(218.202199, 262.238668)"><g><path d="M 14.550781 -20.285156 L 16.089844 -20.285156 C 22.941406 -19.96875 26.394531 -14.871094 26.394531 -9.878906 C 26.394531 -5.097656 23.15625 -0.425781 16.730469 -0.425781 C 10.410156 -0.425781 9.082031 -6.265625 6.265625 -9.082031 C 5.578125 -9.773438 4.832031 -10.039062 4.089844 -10.039062 C 2.601562 -10.039062 1.273438 -8.867188 1.273438 -7.382812 C 1.273438 -6.796875 1.488281 -6.214844 1.964844 -5.578125 C 4.9375 -1.644531 9.613281 0.425781 16.78125 0.425781 C 25.808594 0.425781 31.8125 -3.875 31.8125 -10.195312 C 31.8125 -15.453125 27.667969 -19.332031 21.03125 -20.660156 C 26.023438 -21.878906 29.261719 -24.960938 29.261719 -28.996094 C 29.261719 -34.359375 23.84375 -37.867188 15.667969 -37.867188 C 10.355469 -37.867188 6.214844 -36.007812 3.1875 -31.597656 C 2.816406 -31.015625 2.601562 -30.429688 2.601562 -29.847656 C 2.601562 -28.359375 3.769531 -27.136719 5.097656 -27.136719 C 5.789062 -27.136719 6.480469 -27.402344 7.0625 -28.09375 C 9.664062 -31.015625 10.886719 -37.015625 17.101562 -37.015625 C 21.878906 -37.015625 24.375 -33.40625 24.375 -29.632812 C 24.375 -25.332031 21.191406 -20.816406 14.550781 -21.191406 Z M 14.550781 -20.285156 "/></g></g></g></svg>