<svg xmlns="http://www.w3.org/2000/svg" xmlns:xlink="http://www.w3.org/1999/xlink" width="500" zoomAndPan="magnify" viewBox="0 0 375 225" height="300" preserveAspectRatio="xMidYMid meet" version="1.0"><defs><g/><clipPath id="2badc77d3a"><path d="M 152 22.5 L 372 22.5 L 372 192.75 L 152 192.75 Z M 152 22.5 " clip-rule="nonzero"/></clipPath></defs><g clip-path="url(#2badc77d3a)"><path fill="#181818" d="M 252.582031 80.121094 C 252.582031 79.574219 252.582031 79.097656 252.582031 78.554688 C 252.257812 78.554688 251.96875 78.523438 251.691406 78.554688 C 248.863281 78.921875 246.066406 78.621094 243.28125 78.1875 C 227.429688 75.75 212.429688 70.566406 197.964844 63.753906 C 188.15625 59.140625 178.824219 53.703125 170.226562 47.070312 C 166.023438 43.828125 162.085938 40.300781 158.753906 36.128906 C 157.136719 34.101562 155.683594 31.960938 154.683594 29.539062 C 154.242188 28.476562 153.898438 27.386719 153.90625 26.210938 C 153.929688 24.625 154.605469 23.605469 156.125 23.140625 C 156.890625 22.90625 157.714844 22.785156 158.523438 22.738281 C 161.429688 22.585938 164.292969 22.960938 167.144531 23.472656 C 175.175781 24.914062 183.050781 26.910156 190.675781 29.863281 C 196 31.925781 201.125 34.445312 205.972656 37.460938 C 220.785156 46.671875 235.671875 55.757812 250.21875 65.386719 C 251.882812 66.484375 253.511719 67.648438 255.242188 68.835938 C 255.621094 68.382812 255.996094 67.925781 256.441406 67.382812 C 256.285156 67.183594 256.042969 66.882812 255.796875 66.5625 C 251.902344 61.382812 254.457031 53.925781 260.703125 52.183594 C 261.589844 51.941406 262.441406 51.941406 263.320312 52.183594 C 269.609375 53.925781 272.140625 61.46875 268.167969 66.640625 C 267.96875 66.90625 267.757812 67.160156 267.503906 67.472656 C 267.914062 67.90625 268.3125 68.324219 268.746094 68.78125 C 268.921875 68.691406 269.097656 68.636719 269.234375 68.535156 C 278.605469 61.902344 288.425781 55.945312 298.167969 49.875 C 304.546875 45.90625 310.878906 41.855469 317.269531 37.894531 C 328.15625 31.148438 339.992188 26.824219 352.515625 24.316406 C 355.457031 23.726562 358.417969 23.261719 361.394531 22.871094 C 363.335938 22.617188 365.308594 22.519531 367.25 22.9375 C 369.503906 23.425781 370.402344 24.792969 370.058594 27.066406 C 369.824219 28.585938 369.214844 29.972656 368.492188 31.316406 C 366.71875 34.609375 364.34375 37.441406 361.738281 40.089844 C 356.957031 44.9375 351.550781 49.03125 345.839844 52.714844 C 327.964844 64.265625 308.605469 72.285156 287.847656 76.925781 C 284.089844 77.765625 280.292969 78.445312 276.445312 78.621094 C 275.046875 78.6875 273.636719 78.566406 272.226562 78.542969 C 272.007812 78.542969 271.785156 78.542969 271.472656 78.542969 C 271.472656 79.042969 271.472656 79.53125 271.472656 80.128906 C 271.804688 80.175781 272.160156 80.242188 272.527344 80.273438 C 278.363281 80.75 284.199219 81.171875 290.023438 81.707031 C 299.6875 82.59375 309.328125 83.613281 318.925781 85.035156 C 328.632812 86.464844 338.273438 88.25 347.648438 91.226562 C 352.351562 92.710938 356.933594 94.488281 361.304688 96.78125 C 363.46875 97.925781 365.585938 99.15625 367.472656 100.734375 C 368.40625 101.507812 369.324219 102.339844 370.089844 103.285156 C 372.542969 106.269531 371.988281 109.1875 368.660156 111.183594 C 367.117188 112.105469 365.421875 112.636719 363.679688 113.003906 C 359.539062 113.890625 355.359375 113.878906 351.175781 113.558594 C 342.089844 112.859375 333.292969 110.671875 324.515625 108.34375 C 311.890625 104.992188 299.355469 101.296875 287.105469 96.738281 C 283.121094 95.261719 279.21875 93.554688 275.3125 91.867188 C 273.238281 90.96875 271.285156 89.828125 269.652344 88.207031 C 269.585938 88.140625 269.476562 88.105469 269.289062 88.007812 C 269 88.375 268.710938 88.75 268.445312 89.082031 C 268.679688 90.191406 269.011719 91.335938 269.167969 92.5 C 269.5 95.03125 269.15625 97.449219 267.679688 99.625 C 267.5 99.890625 267.378906 100.222656 267.3125 100.53125 C 266.648438 103.71875 266.425781 106.902344 267.269531 110.105469 C 267.710938 111.792969 267.914062 113.535156 267.546875 115.277344 C 267.46875 115.644531 267.433594 116.03125 267.269531 116.34375 C 266.714844 117.320312 266.792969 118.351562 266.945312 119.371094 C 267.136719 120.648438 267.390625 121.921875 267.644531 123.1875 C 268.144531 125.628906 267.667969 127.78125 266.058594 129.734375 C 265.214844 130.765625 265.0625 132.117188 265.128906 133.417969 C 265.183594 134.515625 265.4375 135.613281 265.617188 136.710938 C 265.804688 137.875 266.070312 139.042969 266.203125 140.21875 C 266.390625 141.804688 266.171875 143.324219 265.027344 144.632812 C 266.003906 146.941406 266.601562 149.324219 266.636719 151.832031 C 266.667969 154.339844 266.359375 156.78125 265.304688 159.121094 C 267.058594 160.597656 267.191406 162.472656 266.738281 164.511719 C 266.214844 166.832031 266.257812 169.140625 266.902344 171.4375 C 267.035156 171.902344 267.167969 172.367188 267.222656 172.84375 C 267.5 175.007812 267.257812 177.003906 265.316406 178.4375 C 265.949219 181.886719 265.671875 185.304688 265.0625 188.710938 C 264.9375 189.363281 264.75 190.007812 264.519531 190.628906 C 264.039062 191.9375 263.230469 192.414062 262.03125 192.414062 C 260.789062 192.414062 259.980469 191.972656 259.515625 190.675781 C 259.226562 189.875 258.992188 189.042969 258.859375 188.210938 C 258.359375 185.171875 258.117188 182.109375 258.617188 179.035156 C 258.683594 178.636719 258.605469 178.359375 258.273438 178.070312 C 256.851562 176.839844 256.550781 175.1875 256.71875 173.421875 C 256.785156 172.691406 256.960938 171.957031 257.152344 171.246094 C 257.726562 169.128906 257.804688 167.011719 257.339844 164.867188 C 257.296875 164.691406 257.296875 164.503906 257.25 164.324219 C 256.785156 162.351562 257.050781 160.5625 258.691406 159.132812 C 257.671875 156.792969 257.339844 154.351562 257.382812 151.855469 C 257.429688 149.382812 257.9375 147.007812 259.003906 144.6875 C 257.429688 142.835938 257.605469 140.683594 258.039062 138.496094 C 258.261719 137.367188 258.492188 136.246094 258.726562 135.125 C 259.070312 133.484375 258.894531 131.886719 258.347656 130.320312 C 258.261719 130.054688 258.027344 129.832031 257.851562 129.609375 C 256.441406 127.871094 255.898438 125.917969 256.296875 123.6875 C 256.617188 121.902344 256.894531 120.113281 257.140625 118.316406 C 257.195312 117.894531 257.171875 117.394531 257.007812 117.019531 C 256.175781 115.222656 256.242188 113.347656 256.472656 111.460938 C 256.53125 110.984375 256.640625 110.507812 256.761719 110.050781 C 257.59375 106.933594 257.371094 103.804688 256.742188 100.699219 C 256.664062 100.34375 256.5625 99.96875 256.363281 99.667969 C 254.6875 97.25 254.554688 94.554688 254.964844 91.78125 C 255.097656 90.871094 255.410156 89.992188 255.652344 89.050781 C 255.363281 88.761719 255.042969 88.429688 254.722656 88.097656 C 254.621094 88.117188 254.53125 88.117188 254.488281 88.164062 C 252.679688 89.914062 250.496094 91.089844 248.242188 92.144531 C 242.417969 94.820312 236.40625 97.039062 230.335938 99.078125 C 216.511719 103.738281 202.535156 107.84375 188.300781 111.082031 C 180.8125 112.792969 173.257812 114.066406 165.523438 113.636719 C 163.460938 113.523438 161.40625 113.15625 159.386719 112.738281 C 158.179688 112.480469 157.003906 111.949219 155.859375 111.425781 C 155.195312 111.128906 154.585938 110.671875 154.03125 110.183594 C 152.230469 108.585938 151.855469 106.546875 153.109375 104.492188 C 153.753906 103.441406 154.617188 102.472656 155.515625 101.609375 C 157.179688 100.011719 159.132812 98.792969 161.128906 97.648438 C 166.367188 94.664062 171.96875 92.546875 177.714844 90.792969 C 184.882812 88.617188 192.195312 87.03125 199.582031 85.910156 C 206.605469 84.84375 213.648438 83.902344 220.707031 83.058594 C 226.332031 82.382812 231.976562 81.90625 237.613281 81.394531 C 242.21875 80.972656 246.84375 80.640625 251.449219 80.261719 C 251.835938 80.242188 252.191406 80.175781 252.582031 80.121094 Z M 171.058594 111.90625 C 171.082031 111.972656 171.113281 112.046875 171.136719 112.117188 C 171.648438 112.09375 172.167969 112.082031 172.679688 112.039062 C 177.894531 111.605469 183.03125 110.707031 188.121094 109.550781 C 197.617188 107.410156 206.984375 104.761719 216.300781 101.953125 C 223.3125 99.832031 230.292969 97.582031 237.148438 95.007812 C 237.492188 94.875 237.9375 94.863281 238.113281 94.542969 C 234.683594 93.808594 231.289062 93.089844 227.882812 92.390625 C 227.550781 92.324219 227.152344 92.410156 226.820312 92.523438 C 219.886719 94.898438 212.941406 97.226562 206.050781 99.710938 C 203.699219 100.566406 201.402344 100.734375 198.972656 100.433594 C 195.667969 100.035156 192.347656 99.757812 189.03125 99.421875 C 188.464844 99.367188 187.957031 99.445312 187.457031 99.789062 C 183.996094 102.195312 180.476562 104.527344 177.0625 107.011719 C 174.988281 108.53125 173.054688 110.273438 171.058594 111.90625 Z M 285.917969 94.429688 C 285.90625 94.496094 285.894531 94.574219 285.886719 94.640625 C 286.363281 94.832031 286.828125 95.019531 287.316406 95.195312 C 298.742188 99.414062 310.402344 102.917969 322.152344 106.113281 C 330.871094 108.488281 339.613281 110.738281 348.613281 111.769531 C 350.019531 111.9375 351.441406 112.015625 353.027344 112.160156 C 352.828125 111.882812 352.792969 111.78125 352.71875 111.714844 C 347.945312 107.65625 342.953125 103.894531 337.683594 100.488281 C 336.296875 99.589844 334.976562 99.335938 333.414062 99.535156 C 330.441406 99.910156 327.457031 100.1875 324.472656 100.523438 C 322.386719 100.753906 320.386719 100.609375 318.359375 99.890625 C 311.359375 97.382812 304.3125 95.007812 297.289062 92.554688 C 296.734375 92.367188 296.246094 92.355469 295.679688 92.5 C 294.171875 92.878906 292.652344 93.222656 291.132812 93.519531 C 289.402344 93.855469 287.660156 94.132812 285.917969 94.429688 Z M 217.953125 94.410156 C 217.589844 94.230469 217.378906 94.109375 217.144531 94.019531 C 214.28125 92.8125 211.421875 91.601562 208.546875 90.402344 C 206.292969 89.460938 204.042969 88.507812 201.78125 87.597656 C 201.324219 87.410156 200.757812 87.296875 200.292969 87.363281 C 193.191406 88.484375 186.167969 89.925781 179.269531 91.945312 C 173.5 93.632812 167.886719 95.707031 162.59375 98.589844 C 162.21875 98.800781 161.851562 99.035156 161.363281 99.324219 C 161.628906 99.355469 161.695312 99.390625 161.773438 99.378906 C 166.742188 98.492188 171.78125 98.28125 176.816406 98.148438 C 184.761719 97.9375 192.660156 98.558594 200.527344 99.554688 C 201.945312 99.734375 203.308594 99.589844 204.675781 99.101562 C 208.824219 97.625 212.984375 96.183594 217.144531 94.742188 C 217.367188 94.652344 217.589844 94.554688 217.953125 94.410156 Z M 306.078125 94.410156 C 306.332031 94.519531 306.476562 94.585938 306.644531 94.640625 C 311.003906 96.171875 315.375 97.683594 319.734375 99.222656 C 320.953125 99.65625 322.1875 99.691406 323.460938 99.546875 C 328.574219 98.96875 333.679688 98.347656 338.839844 98.191406 C 344.0625 98.035156 349.277344 98.070312 354.492188 98.480469 C 357.144531 98.691406 359.785156 99.011719 362.546875 99.289062 C 362.226562 99.078125 361.96875 98.878906 361.691406 98.746094 C 359.019531 97.480469 356.390625 96.105469 353.648438 94.996094 C 344.640625 91.367188 335.199219 89.351562 325.691406 87.617188 C 323.773438 87.265625 322.097656 87.507812 320.34375 88.273438 C 315.773438 90.28125 311.148438 92.179688 306.542969 94.121094 C 306.410156 94.1875 306.289062 94.277344 306.078125 94.410156 Z M 301.152344 66.839844 C 301.183594 66.90625 301.207031 66.972656 301.238281 67.027344 C 301.660156 66.828125 302.105469 66.660156 302.515625 66.441406 C 303.703125 65.761719 304.890625 65.074219 306.054688 64.355469 C 308.316406 62.980469 310.714844 61.925781 313.308594 61.382812 C 315.882812 60.847656 318.46875 60.382812 321.042969 59.851562 C 322.507812 59.550781 323.992188 59.460938 325.359375 58.609375 C 331.605469 54.691406 337.195312 49.976562 342.566406 44.960938 C 342.800781 44.75 343 44.496094 343.265625 44.207031 C 343.066406 44.140625 342.976562 44.085938 342.875 44.085938 C 338.273438 43.863281 333.710938 44.140625 329.21875 45.316406 C 322.996094 46.949219 317.09375 49.386719 311.269531 52.039062 C 310.757812 52.273438 310.46875 52.660156 310.191406 53.105469 C 308.75 55.390625 307.339844 57.699219 305.855469 59.949219 C 304.3125 62.28125 302.714844 64.554688 301.152344 66.839844 Z M 180.789062 44.175781 C 180.933594 44.375 181.042969 44.585938 181.210938 44.738281 C 181.933594 45.425781 182.652344 46.125 183.394531 46.792969 C 188.210938 51.085938 193.136719 55.222656 198.671875 58.597656 C 199.4375 59.0625 200.214844 59.417969 201.113281 59.5625 C 203.378906 59.917969 205.628906 60.347656 207.890625 60.75 C 211.910156 61.457031 215.691406 62.777344 219.109375 65.066406 C 219.964844 65.640625 220.894531 66.105469 221.804688 66.605469 C 222.117188 66.773438 222.460938 66.882812 222.890625 67.0625 C 222.8125 66.804688 222.804688 66.707031 222.746094 66.628906 C 219.550781 62.167969 216.5 57.621094 213.671875 52.925781 C 213.460938 52.574219 213.085938 52.261719 212.707031 52.085938 C 208.046875 49.898438 203.300781 47.921875 198.382812 46.359375 C 192.691406 44.527344 186.878906 43.597656 180.789062 44.175781 Z M 165.414062 24.714844 C 165.445312 24.902344 165.433594 24.980469 165.46875 25.035156 C 165.554688 25.160156 165.65625 25.269531 165.765625 25.367188 C 172.335938 31.605469 179.136719 37.527344 186.902344 42.277344 C 187.765625 42.808594 188.621094 43.265625 189.675781 43.285156 C 190.230469 43.296875 190.773438 43.441406 191.316406 43.542969 C 196 44.375 200.503906 45.839844 204.917969 47.578125 C 205.285156 47.722656 205.652344 47.847656 206.09375 48 C 206.039062 47.789062 206.039062 47.703125 206.007812 47.65625 C 203.121094 43.917969 200.726562 39.878906 198.695312 35.621094 C 198.472656 35.152344 198.140625 34.867188 197.6875 34.65625 C 195.632812 33.722656 193.601562 32.726562 191.515625 31.859375 C 184.695312 29.019531 177.582031 27.132812 170.359375 25.636719 C 168.71875 25.300781 167.078125 25.023438 165.414062 24.714844 Z M 358.761719 24.792969 C 358.351562 24.824219 358.109375 24.8125 357.875 24.859375 C 354.792969 25.492188 351.695312 26.058594 348.644531 26.765625 C 341.023438 28.554688 333.625 31.003906 326.601562 34.511719 C 325.9375 34.84375 325.492188 35.277344 325.171875 35.953125 C 323.261719 39.9375 321 43.707031 318.335938 47.234375 C 318.214844 47.402344 318.113281 47.589844 317.914062 47.921875 C 318.3125 47.8125 318.558594 47.769531 318.78125 47.691406 C 319.710938 47.347656 320.644531 46.980469 321.585938 46.636719 C 325.703125 45.140625 329.875 43.886719 334.234375 43.320312 C 335.421875 43.164062 336.429688 42.753906 337.394531 42.109375 C 339.203125 40.890625 341.066406 39.734375 342.84375 38.460938 C 348.335938 34.523438 353.359375 30.039062 358.253906 25.390625 C 358.363281 25.246094 358.496094 25.082031 358.761719 24.792969 Z M 193.148438 59.417969 C 193.136719 59.472656 193.113281 59.539062 193.105469 59.59375 C 193.414062 59.773438 193.726562 59.949219 194.035156 60.117188 C 204.953125 65.6875 216.300781 70.125 228.117188 73.375 C 234.441406 75.117188 240.820312 76.570312 247.378906 77.101562 C 249.804688 77.300781 252.179688 77.144531 254.5 76.324219 C 255.609375 75.9375 256.550781 75.304688 257.207031 74.292969 C 257.507812 73.828125 257.773438 73.351562 257.660156 72.71875 C 257.417969 72.675781 257.207031 72.609375 256.996094 72.585938 C 254.855469 72.421875 252.714844 72.308594 250.570312 72.085938 C 246.964844 71.722656 243.351562 71.34375 239.765625 70.867188 C 235.40625 70.289062 231.058594 69.535156 226.695312 68.96875 C 223.921875 68.613281 221.359375 67.78125 219.042969 66.242188 C 218.644531 65.972656 218.222656 65.742188 217.8125 65.484375 C 215.191406 63.800781 212.339844 62.679688 209.289062 62.113281 C 204.664062 61.257812 200.039062 60.484375 195.398438 59.695312 C 194.65625 59.550781 193.890625 59.507812 193.148438 59.417969 Z M 330.863281 59.617188 C 330.839844 59.550781 330.816406 59.496094 330.792969 59.429688 C 330.507812 59.449219 330.207031 59.449219 329.917969 59.507812 C 325.503906 60.226562 321.078125 60.9375 316.660156 61.679688 C 312.566406 62.378906 308.695312 63.675781 305.246094 66.050781 C 304.578125 66.507812 303.847656 66.882812 303.136719 67.285156 C 301.695312 68.09375 300.140625 68.535156 298.511719 68.757812 C 296.859375 68.980469 295.214844 69.214844 293.5625 69.480469 C 284.820312 70.898438 276.054688 72.03125 267.214844 72.5625 C 266.9375 72.585938 266.660156 72.652344 266.347656 72.707031 C 266.257812 73.507812 266.613281 74.0625 267.023438 74.59375 C 267.78125 75.582031 268.820312 76.125 269.976562 76.480469 C 272.050781 77.125 274.191406 77.277344 276.34375 77.125 C 280.273438 76.847656 284.132812 76.167969 287.960938 75.328125 C 302.605469 72.085938 316.550781 66.917969 329.90625 60.148438 C 330.238281 59.984375 330.550781 59.792969 330.863281 59.617188 Z M 186.136719 99.300781 C 185.570312 99.269531 185.214844 99.222656 184.859375 99.222656 C 181.421875 99.222656 177.980469 99.167969 174.542969 99.246094 C 169.996094 99.347656 165.46875 99.800781 160.964844 100.523438 C 157.980469 101 156.058594 102.796875 154.507812 105.125 C 153.507812 106.632812 153.761719 108.042969 155.207031 109.132812 C 156.105469 109.808594 157.148438 110.351562 158.199219 110.761719 C 160.5625 111.683594 163.070312 112.027344 165.589844 112.09375 C 169.539062 112.191406 168.375 112.746094 171.570312 110.097656 C 175.984375 106.425781 180.546875 102.960938 185.382812 99.867188 C 185.59375 99.757812 185.769531 99.589844 186.136719 99.300781 Z M 338.09375 99.179688 C 338.074219 99.277344 338.050781 99.367188 338.015625 99.46875 C 338.316406 99.679688 338.605469 99.890625 338.90625 100.078125 C 343.164062 102.839844 347.292969 105.769531 351.152344 109.085938 C 352.195312 109.972656 353.292969 110.796875 354.359375 111.648438 C 354.835938 112.039062 355.367188 112.203125 356 112.191406 C 358.21875 112.160156 360.4375 112.058594 362.636719 111.636719 C 364.675781 111.238281 366.683594 110.71875 368.414062 109.484375 C 370.28125 108.15625 370.613281 106.546875 369.238281 104.726562 C 368.449219 103.671875 367.40625 102.808594 366.464844 101.875 C 365.863281 101.289062 365.109375 100.964844 364.300781 100.820312 C 362.371094 100.488281 360.4375 100.132812 358.496094 99.890625 C 353.417969 99.257812 348.3125 99.15625 343.199219 99.179688 C 341.488281 99.191406 339.792969 99.179688 338.09375 99.179688 Z M 200.082031 36.007812 C 200.28125 36.464844 200.371094 36.730469 200.503906 36.972656 C 201.179688 38.207031 201.835938 39.449219 202.546875 40.667969 C 204.132812 43.398438 205.917969 45.980469 207.949219 48.402344 C 208.214844 48.722656 208.558594 49.035156 208.933594 49.210938 C 210.609375 50 212.332031 50.6875 213.996094 51.484375 C 220.152344 54.390625 226.277344 57.375 232.445312 60.238281 C 238.957031 63.257812 245.511719 66.175781 252.058594 69.125 C 252.4375 69.292969 252.835938 69.414062 253.457031 69.636719 C 250.238281 66.804688 203.710938 37.507812 200.082031 36.007812 Z M 270.886719 69.28125 C 270.917969 69.347656 270.953125 69.414062 270.984375 69.480469 C 271.351562 69.335938 271.730469 69.214844 272.082031 69.058594 C 277.984375 66.40625 283.910156 63.789062 289.78125 61.070312 C 297.933594 57.296875 306.054688 53.425781 314.199219 49.632812 C 315.117188 49.199219 315.863281 48.699219 316.515625 47.878906 C 319.257812 44.453125 321.554688 40.757812 323.5625 36.863281 C 323.683594 36.628906 323.75 36.363281 323.917969 35.953125 C 323.4375 36.195312 323.140625 36.332031 322.851562 36.496094 C 321.054688 37.515625 319.210938 38.492188 317.460938 39.59375 C 308.574219 45.128906 299.675781 50.664062 290.832031 56.277344 C 284.488281 60.304688 278.230469 64.453125 271.929688 68.546875 C 271.5625 68.757812 271.230469 69.023438 270.886719 69.28125 Z M 338.339844 42.777344 C 338.359375 42.863281 338.382812 42.941406 338.417969 43.03125 C 339.78125 43.03125 341.144531 43.019531 342.511719 43.03125 C 344.296875 43.054688 346.0625 42.941406 347.800781 42.578125 C 352.085938 41.6875 356.222656 40.289062 360.359375 38.925781 C 360.695312 38.816406 361.027344 38.582031 361.269531 38.328125 C 363.535156 35.964844 365.609375 33.457031 367.128906 30.550781 C 367.648438 29.539062 368.105469 28.464844 368.394531 27.367188 C 368.9375 25.335938 368.328125 24.46875 366.242188 24.335938 C 364.621094 24.238281 362.992188 24.359375 361.359375 24.382812 C 360.816406 24.394531 360.394531 24.660156 360.015625 25.046875 C 359.128906 25.945312 358.21875 26.8125 357.300781 27.664062 C 351.484375 33.058594 345.496094 38.226562 338.738281 42.441406 C 338.605469 42.542969 338.472656 42.664062 338.339844 42.777344 Z M 185.871094 42.875 C 185.382812 42.554688 185.070312 42.355469 184.773438 42.144531 C 182.175781 40.300781 179.523438 38.539062 177.007812 36.585938 C 172.457031 33.070312 168.21875 29.195312 164.09375 25.203125 C 163.726562 24.847656 163.382812 24.425781 162.804688 24.414062 C 161.03125 24.394531 159.242188 24.25 157.480469 24.371094 C 155.695312 24.503906 155.183594 25.324219 155.503906 27.089844 C 155.582031 27.519531 155.695312 27.964844 155.871094 28.363281 C 156.328125 29.375 156.757812 30.40625 157.300781 31.359375 C 158.765625 33.910156 160.628906 36.175781 162.671875 38.273438 C 162.992188 38.59375 163.449219 38.847656 163.882812 38.992188 C 166.621094 39.878906 169.382812 40.722656 172.136719 41.589844 C 176.550781 42.996094 181.066406 43.273438 185.871094 42.875 Z M 251.238281 82.039062 C 251.214844 81.960938 251.203125 81.882812 251.183594 81.816406 C 235.230469 83.039062 219.296875 84.46875 203.265625 86.855469 C 203.542969 87.074219 203.621094 87.152344 203.710938 87.199219 C 208.722656 89.292969 213.75 91.390625 218.753906 93.511719 C 219.320312 93.753906 219.820312 93.84375 220.429688 93.632812 C 230.535156 90.226562 240.53125 86.554688 250.359375 82.4375 C 250.671875 82.316406 250.949219 82.171875 251.238281 82.039062 Z M 320.578125 87.03125 C 304.722656 84.480469 288.8125 83.027344 272.839844 81.929688 C 273.027344 82.148438 273.238281 82.261719 273.460938 82.347656 C 283.390625 86.519531 293.484375 90.238281 303.703125 93.644531 C 304.144531 93.789062 304.511719 93.796875 304.96875 93.609375 C 310.039062 91.457031 315.128906 89.339844 320.210938 87.21875 C 320.332031 87.1875 320.445312 87.097656 320.578125 87.03125 Z M 256.585938 69.824219 C 257.171875 70.246094 257.683594 70.699219 258.261719 71.011719 C 259.28125 71.542969 259.4375 72.398438 259.191406 73.351562 C 259.003906 74.050781 258.703125 74.75 258.304688 75.359375 C 257.605469 76.445312 256.550781 77.15625 255.363281 77.632812 C 254.988281 77.789062 254.621094 77.921875 254.234375 78.078125 C 254.210938 78.421875 254.179688 78.722656 254.179688 79.011719 C 254.15625 80.164062 254.199219 80.195312 255.253906 80.617188 C 255.699219 80.796875 256.140625 81.007812 256.539062 81.261719 C 258.027344 82.214844 258.273438 83.371094 257.296875 84.824219 C 257.105469 85.101562 256.90625 85.367188 256.695312 85.621094 C 256.386719 86.023438 256.0625 86.410156 255.753906 86.796875 C 256.75 88.117188 258.003906 88.785156 259.492188 88.972656 C 260.402344 89.09375 261.332031 89.007812 262.242188 89.117188 C 263.375 89.261719 264.460938 89.039062 265.527344 88.730469 C 266.648438 88.40625 267.578125 87.785156 268.199219 86.777344 C 267.601562 85.964844 266.992188 85.257812 266.515625 84.480469 C 265.835938 83.402344 266.015625 82.414062 267.003906 81.617188 C 267.457031 81.25 267.988281 80.953125 268.523438 80.71875 C 269.886719 80.128906 269.910156 80.128906 269.832031 78.699219 C 269.820312 78.488281 269.765625 78.277344 269.730469 78.101562 C 269 77.765625 268.289062 77.523438 267.667969 77.136719 C 266.015625 76.113281 264.851562 74.773438 264.761719 72.699219 C 264.726562 72.03125 264.90625 71.578125 265.472656 71.210938 C 266.148438 70.777344 266.78125 70.269531 267.414062 69.800781 C 265.738281 66.640625 258.25 66.652344 256.585938 69.824219 Z M 269.566406 71.210938 C 269.585938 71.277344 269.609375 71.34375 269.632812 71.421875 C 272.496094 71.144531 275.378906 70.945312 278.230469 70.566406 C 284.976562 69.667969 291.710938 68.671875 298.453125 67.738281 C 299.03125 67.660156 299.386719 67.417969 299.699219 66.960938 C 302.570312 62.703125 305.464844 58.441406 308.339844 54.179688 C 308.472656 53.980469 308.539062 53.75 308.640625 53.539062 C 295.546875 59.339844 282.835938 65.886719 269.566406 71.210938 Z M 254.3125 71.445312 C 254.332031 71.355469 254.34375 71.265625 254.367188 71.175781 C 241.097656 65.851562 228.394531 59.296875 215.203125 53.238281 C 215.382812 53.625 215.4375 53.792969 215.523438 53.9375 C 218.355469 58.140625 221.195312 62.335938 223.988281 66.5625 C 224.554688 67.417969 225.289062 67.726562 226.265625 67.871094 C 231.722656 68.636719 237.160156 69.503906 242.628906 70.210938 C 246.5 70.710938 250.40625 71.03125 254.3125 71.445312 Z M 255.476562 61.039062 C 255.476562 62.921875 256.121094 64.578125 257.304688 66.03125 C 257.683594 66.484375 258.027344 66.59375 258.636719 66.394531 C 260.835938 65.6875 263.085938 65.6875 265.292969 66.375 C 265.9375 66.574219 266.304688 66.484375 266.714844 65.996094 C 270.410156 61.703125 268.167969 54.847656 262.621094 53.625 C 262.210938 53.539062 261.734375 53.539062 261.324219 53.636719 C 257.917969 54.402344 255.488281 57.488281 255.476562 61.039062 Z M 327.078125 58.761719 C 327.476562 58.761719 327.65625 58.773438 327.820312 58.761719 C 329.363281 58.585938 330.90625 58.363281 332.449219 58.242188 C 333.511719 58.152344 334.445312 57.820312 335.355469 57.277344 C 337.882812 55.746094 340.480469 54.304688 342.988281 52.738281 C 348.300781 49.410156 353.371094 45.761719 358.019531 41.542969 C 358.296875 41.289062 358.554688 41.023438 358.820312 40.757812 C 357.476562 41 356.257812 41.433594 355.015625 41.753906 C 352.183594 42.488281 349.367188 43.253906 346.503906 43.839844 C 345.472656 44.050781 344.585938 44.273438 343.929688 45.117188 C 343.886719 45.171875 343.832031 45.214844 343.773438 45.273438 C 338.726562 50.007812 333.523438 54.582031 327.667969 58.332031 C 327.523438 58.398438 327.398438 58.507812 327.078125 58.761719 Z M 196.921875 58.742188 C 196.433594 58.398438 196.144531 58.1875 195.84375 57.984375 C 194.625 57.152344 193.347656 56.378906 192.183594 55.46875 C 188.265625 52.417969 184.382812 49.3125 180.855469 45.816406 C 179.691406 44.660156 178.503906 43.90625 176.796875 43.6875 C 173.15625 43.207031 169.683594 41.976562 166.1875 40.867188 C 165.867188 40.769531 165.546875 40.691406 165.222656 40.589844 C 166.113281 41.621094 167.054688 42.5 168.042969 43.332031 C 174.5 48.777344 181.566406 53.304688 188.921875 57.410156 C 189.675781 57.832031 190.441406 58.109375 191.316406 58.1875 C 192.902344 58.332031 194.480469 58.550781 196.054688 58.730469 C 196.253906 58.761719 196.464844 58.742188 196.921875 58.742188 Z M 294.261719 91.78125 C 294.261719 91.691406 294.261719 91.601562 294.25 91.511719 C 293.941406 91.402344 293.628906 91.292969 293.320312 91.167969 C 290.367188 90.082031 287.40625 89.039062 284.476562 87.886719 C 279.9375 86.089844 275.433594 84.222656 270.917969 82.371094 C 270.085938 82.027344 269.308594 81.894531 268.488281 82.40625 C 267.558594 82.980469 267.445312 83.28125 268.101562 84.148438 C 269.808594 86.410156 271.738281 88.460938 274.359375 89.683594 C 277.164062 91.003906 280.015625 92.246094 282.867188 93.476562 C 283.277344 93.65625 283.8125 93.6875 284.265625 93.621094 C 286.460938 93.289062 288.648438 92.933594 290.832031 92.535156 C 292 92.324219 293.128906 92.035156 294.261719 91.78125 Z M 256.386719 83.238281 C 255.242188 81.972656 254.457031 81.773438 253.078125 82.382812 C 252.503906 82.636719 251.949219 82.9375 251.359375 83.160156 C 244.402344 85.855469 237.4375 88.550781 230.46875 91.246094 C 230.214844 91.347656 229.980469 91.480469 229.59375 91.667969 C 229.890625 91.789062 230.015625 91.855469 230.148438 91.890625 C 233.421875 92.488281 236.691406 93.089844 239.964844 93.664062 C 240.277344 93.722656 240.652344 93.6875 240.941406 93.578125 C 244.304688 92.222656 247.675781 90.890625 250.804688 89.039062 C 252.945312 87.773438 254.542969 85.933594 256.019531 83.96875 C 256.175781 83.746094 256.253906 83.503906 256.386719 83.238281 Z M 265.28125 101.929688 C 263.121094 103.171875 260.902344 103.140625 258.570312 101.863281 C 258.660156 102.886719 258.75 103.726562 258.816406 104.570312 C 259.015625 106.8125 258.582031 108.988281 258.09375 111.148438 C 257.804688 112.425781 257.761719 113.714844 257.972656 115.011719 C 258.214844 116.5625 259.082031 117.429688 260.613281 117.761719 C 261.609375 117.972656 262.597656 117.972656 263.574219 117.71875 C 264.828125 117.394531 265.75 116.664062 265.925781 115.355469 C 266.082031 114.234375 266.125 113.070312 266.015625 111.949219 C 265.882812 110.59375 265.394531 109.273438 265.304688 107.921875 C 265.183594 105.980469 265.28125 104.027344 265.28125 101.929688 Z M 259.535156 160.488281 C 258.925781 161.007812 258.617188 161.617188 258.617188 162.351562 C 258.605469 162.859375 258.625 163.394531 258.738281 163.890625 C 259.359375 166.65625 259.324219 169.394531 258.515625 172.125 C 258.382812 172.578125 258.292969 173.054688 258.238281 173.535156 C 257.960938 175.785156 258.894531 177.148438 261.066406 177.75 C 263.453125 178.402344 265.738281 176.785156 265.761719 174.332031 C 265.769531 173.457031 265.605469 172.558594 265.382812 171.714844 C 264.738281 169.261719 264.652344 166.820312 265.195312 164.347656 C 265.304688 163.847656 265.40625 163.328125 265.417969 162.816406 C 265.4375 161.90625 265.238281 161.074219 264.460938 160.507812 C 262.109375 161.972656 261.988281 162.09375 259.535156 160.488281 Z M 257.105469 89.9375 C 256.121094 92.113281 256.042969 95.460938 256.917969 97.480469 C 257.363281 98.515625 258.015625 99.402344 258.882812 100.121094 C 260.757812 101.6875 263.332031 101.675781 265.171875 100.089844 C 266.238281 99.179688 266.992188 98.046875 267.359375 96.695312 C 267.933594 94.5625 267.800781 92.457031 267.125 90.371094 C 267.070312 90.214844 266.957031 90.070312 266.871094 89.9375 C 263.585938 90.992188 260.367188 90.96875 257.105469 89.9375 Z M 258.769531 118.839844 C 258.4375 120.589844 258.105469 122.289062 257.792969 123.996094 C 257.507812 125.605469 257.859375 127.070312 258.835938 128.390625 C 259.414062 129.167969 260.179688 129.5 261.132812 129.464844 C 261.722656 129.445312 262.308594 129.457031 262.898438 129.464844 C 263.675781 129.488281 264.375 129.300781 264.894531 128.691406 C 265.847656 127.59375 266.460938 126.304688 266.269531 124.839844 C 266.015625 122.832031 265.605469 120.847656 265.261719 118.847656 C 263.074219 119.539062 260.957031 119.570312 258.769531 118.839844 Z M 260.222656 145.753906 C 260.125 145.984375 260.011719 146.21875 259.925781 146.464844 C 258.835938 149.449219 258.636719 152.507812 259.214844 155.628906 C 259.449219 156.871094 259.769531 158.089844 260.535156 159.121094 C 261.410156 160.296875 262.632812 160.332031 263.441406 159.109375 C 263.917969 158.390625 264.308594 157.546875 264.527344 156.703125 C 265.417969 153.253906 265.292969 149.824219 264.074219 146.453125 C 263.972656 146.1875 263.828125 145.941406 263.730469 145.753906 C 262.542969 145.753906 261.445312 145.753906 260.222656 145.753906 Z M 260.28125 130.996094 C 260.324219 132.007812 260.425781 132.863281 260.390625 133.703125 C 260.355469 134.546875 260.214844 135.390625 260.058594 136.234375 C 259.847656 137.433594 259.503906 138.621094 259.382812 139.828125 C 259.292969 140.726562 259.335938 141.679688 259.523438 142.570312 C 259.734375 143.554688 260.679688 144.253906 261.476562 144.277344 C 263.140625 144.332031 263.929688 143.921875 264.417969 142.691406 C 264.539062 142.390625 264.640625 142.046875 264.640625 141.726562 C 264.640625 140.882812 264.59375 140.027344 264.519531 139.183594 C 264.472656 138.707031 264.339844 138.242188 264.242188 137.777344 C 263.761719 135.578125 263.242188 133.382812 263.796875 131.007812 C 262.554688 130.996094 261.421875 130.996094 260.28125 130.996094 Z M 260.113281 179.3125 C 260.058594 179.769531 259.9375 180.246094 259.945312 180.710938 C 259.980469 182.554688 259.992188 184.40625 260.148438 186.234375 C 260.257812 187.480469 260.558594 188.710938 260.867188 189.917969 C 261.089844 190.773438 261.246094 190.761719 262.03125 190.808594 C 262.710938 190.851562 262.953125 190.484375 263.121094 189.953125 C 263.230469 189.597656 263.363281 189.253906 263.441406 188.898438 C 263.972656 186.3125 264.21875 183.71875 264.097656 181.078125 C 264.0625 180.46875 263.953125 179.855469 263.886719 179.3125 C 262.609375 179.3125 261.445312 179.3125 260.113281 179.3125 Z M 260.113281 179.3125 " fill-opacity="1" fill-rule="nonzero"/></g><g fill="#181818" fill-opacity="1"><g transform="translate(29.442572, 156.243254)"><g><path d="M 3.25 0 L 3.25 -30.171875 L 14.75 -30.140625 C 16.332031 -30.140625 18 -29.925781 19.75 -29.5 C 21.5 -29.082031 22.988281 -28.484375 24.21875 -27.703125 C 25.539062 -26.867188 26.6875 -25.859375 27.65625 -24.671875 C 28.6875 -23.460938 29.488281 -22.015625 30.0625 -20.328125 C 30.632812 -18.648438 30.921875 -16.863281 30.921875 -14.96875 C 30.921875 -13.070312 30.632812 -11.285156 30.0625 -9.609375 C 29.488281 -7.941406 28.6875 -6.507812 27.65625 -5.3125 C 26.1875 -3.582031 24.332031 -2.265625 22.09375 -1.359375 C 19.863281 -0.453125 17.410156 0 14.734375 0 Z M 8.21875 -0.0625 L 14.734375 -0.0625 C 16.296875 -0.0625 17.703125 -0.347656 18.953125 -0.921875 C 20.210938 -1.503906 21.242188 -2.300781 22.046875 -3.3125 C 22.796875 -4.269531 23.429688 -5.484375 23.953125 -6.953125 C 24.460938 -8.335938 24.816406 -9.628906 25.015625 -10.828125 C 25.222656 -12.023438 25.328125 -13.40625 25.328125 -14.96875 C 25.328125 -16.53125 25.222656 -17.921875 25.015625 -19.140625 C 24.816406 -20.359375 24.460938 -21.671875 23.953125 -23.078125 C 23.203125 -25.285156 22.066406 -27.003906 20.546875 -28.234375 C 19.023438 -29.460938 17.085938 -30.078125 14.734375 -30.078125 L 8.21875 -30.078125 Z M 8.21875 -0.0625 "/></g></g></g><g fill="#181818" fill-opacity="1"><g transform="translate(67.345234, 156.243254)"><g><path d="M 2.59375 0 L 2.59375 -15.65625 L 6.5 -18.59375 L 6.5 -13.484375 L 6.75 -14.109375 C 7.582031 -15.847656 8.457031 -17.082031 9.375 -17.8125 C 10.332031 -18.5625 11.539062 -18.9375 13 -18.9375 C 14.144531 -18.9375 15.0625 -18.617188 15.75 -17.984375 C 16.4375 -17.347656 16.78125 -16.539062 16.78125 -15.5625 L 12.875 -13.96875 C 12.875 -14.28125 12.9375 -14.722656 13.0625 -15.296875 C 13.1875 -15.867188 13.25 -16.296875 13.25 -16.578125 C 13.25 -17.078125 13.125 -17.535156 12.875 -17.953125 C 12.632812 -18.367188 12.226562 -18.578125 11.65625 -18.578125 C 10.09375 -18.578125 8.710938 -17.507812 7.515625 -15.375 C 7.035156 -14.539062 6.742188 -13.898438 6.640625 -13.453125 C 6.546875 -13.015625 6.5 -12.179688 6.5 -10.953125 L 6.5 0 Z M 2.59375 0 "/></g></g></g><g fill="#181818" fill-opacity="1"><g transform="translate(89.29144, 156.243254)"><g><path d="M 1.484375 -4.046875 C 1.484375 -5.640625 1.976562 -6.863281 2.96875 -7.71875 C 3.957031 -8.582031 5.457031 -9.273438 7.46875 -9.796875 C 8.570312 -10.078125 10.507812 -10.59375 13.28125 -11.34375 L 13.28125 -11.484375 C 12.726562 -11.597656 12.15625 -11.738281 11.5625 -11.90625 C 10.976562 -12.070312 10.25 -12.3125 9.375 -12.625 C 8.5 -12.9375 7.710938 -13.316406 7.015625 -13.765625 C 6.316406 -14.210938 5.828125 -14.691406 5.546875 -15.203125 L 3.984375 -17.4375 C 5.441406 -18.4375 7.1875 -18.9375 9.21875 -18.9375 C 12 -18.9375 14.019531 -18.28125 15.28125 -16.96875 C 16.5625 -15.664062 17.203125 -13.953125 17.203125 -11.828125 L 17.203125 -2.34375 C 17.203125 -1.957031 17.207031 -1.648438 17.21875 -1.421875 C 17.238281 -1.203125 17.273438 -0.972656 17.328125 -0.734375 C 17.390625 -0.492188 17.476562 -0.320312 17.59375 -0.21875 C 17.71875 -0.113281 17.875 -0.015625 18.0625 0.078125 C 18.25 0.179688 18.5 0.234375 18.8125 0.234375 C 19.125 0.234375 19.476562 0.210938 19.875 0.171875 C 20.28125 0.140625 20.765625 0.078125 21.328125 -0.015625 L 21.328125 0.046875 C 20.660156 0.253906 19.960938 0.359375 19.234375 0.359375 C 19.148438 0.359375 19.054688 0.359375 18.953125 0.359375 C 18.109375 0.328125 17.3125 0.207031 16.5625 0 C 15.8125 -0.207031 15.132812 -0.550781 14.53125 -1.03125 C 13.9375 -1.519531 13.519531 -2.097656 13.28125 -2.765625 L 13.28125 -2.890625 C 12.457031 -1.796875 11.570312 -0.984375 10.625 -0.453125 C 9.675781 0.078125 8.492188 0.34375 7.078125 0.34375 C 5.398438 0.34375 4.039062 -0.0507812 3 -0.84375 C 1.988281 -1.601562 1.484375 -2.671875 1.484375 -4.046875 Z M 5.421875 -15.625 C 5.609375 -15.0625 6.035156 -14.53125 6.703125 -14.03125 C 7.378906 -13.539062 8.179688 -13.125 9.109375 -12.78125 C 10.046875 -12.445312 10.828125 -12.1875 11.453125 -12 C 12.078125 -11.820312 12.6875 -11.671875 13.28125 -11.546875 L 13.28125 -13.46875 C 13.28125 -14.988281 13.179688 -16.046875 12.984375 -16.640625 C 12.503906 -18.128906 11.222656 -18.875 9.140625 -18.875 C 7.898438 -18.875 6.921875 -18.5625 6.203125 -17.9375 C 5.640625 -17.445312 5.359375 -16.863281 5.359375 -16.1875 C 5.359375 -16.007812 5.378906 -15.820312 5.421875 -15.625 Z M 5.640625 -4.390625 C 5.640625 -3.035156 5.925781 -1.972656 6.5 -1.203125 C 7.082031 -0.429688 7.925781 -0.046875 9.03125 -0.046875 C 9.71875 -0.046875 10.472656 -0.347656 11.296875 -0.953125 C 12.128906 -1.554688 12.789062 -2.242188 13.28125 -3.015625 L 13.28125 -11.265625 L 8.15625 -9.90625 C 7.332031 -9.6875 6.707031 -9.082031 6.28125 -8.09375 C 5.851562 -7.101562 5.640625 -5.867188 5.640625 -4.390625 Z M 5.640625 -4.390625 "/></g></g></g><g fill="#181818" fill-opacity="1"><g transform="translate(115.77554, 156.243254)"><g><path d="M 1.28125 7.921875 C 1.28125 6.878906 1.703125 5.925781 2.546875 5.0625 C 3.398438 4.207031 4.691406 3.394531 6.421875 2.625 C 5.679688 2.625 4.96875 2.507812 4.28125 2.28125 C 3.550781 2.09375 2.941406 1.71875 2.453125 1.15625 C 1.972656 0.59375 1.71875 -0.171875 1.6875 -1.140625 C 1.6875 -2.941406 2.320312 -4.453125 3.59375 -5.671875 L 5.453125 -7.53125 C 3.734375 -8.832031 2.875 -10.414062 2.875 -12.28125 C 2.875 -14.1875 3.707031 -15.769531 5.375 -17.03125 C 7.050781 -18.300781 9.070312 -18.9375 11.4375 -18.9375 C 13.0625 -18.9375 14.546875 -18.617188 15.890625 -17.984375 L 18.390625 -20.484375 L 20.734375 -22.859375 L 22.203125 -21.40625 L 15.953125 -17.96875 C 16.734375 -17.601562 17.441406 -17.125 18.078125 -16.53125 L 18.140625 -16.46875 C 19.367188 -15.425781 19.984375 -14.03125 19.984375 -12.28125 C 19.984375 -10.382812 19.148438 -8.800781 17.484375 -7.53125 C 15.816406 -6.269531 13.800781 -5.640625 11.4375 -5.640625 C 9.9375 -5.640625 8.203125 -6.109375 6.234375 -7.046875 L 6.015625 -7.15625 L 6 -7.15625 C 5.976562 -7.164062 5.953125 -7.175781 5.921875 -7.1875 C 5.898438 -7.207031 5.882812 -7.222656 5.875 -7.234375 C 5.851562 -7.234375 5.828125 -7.242188 5.796875 -7.265625 C 5.773438 -7.285156 5.753906 -7.304688 5.734375 -7.328125 C 5.722656 -7.335938 5.695312 -7.359375 5.65625 -7.390625 C 5.625 -7.398438 5.59375 -7.414062 5.5625 -7.4375 C 5.53125 -7.457031 5.503906 -7.476562 5.484375 -7.5 L 3.65625 -5.65625 C 2.832031 -4.851562 2.28125 -3.945312 2 -2.9375 C 1.988281 -2.863281 1.984375 -2.789062 1.984375 -2.71875 C 1.984375 -2.382812 2.207031 -2.082031 2.65625 -1.8125 C 3.207031 -1.476562 3.882812 -1.234375 4.6875 -1.078125 C 5.488281 -0.921875 6.289062 -0.84375 7.09375 -0.84375 C 7.820312 -0.84375 9.101562 -0.945312 10.9375 -1.15625 C 12.738281 -1.375 14.019531 -1.484375 14.78125 -1.484375 C 16.945312 -1.484375 18.570312 -0.960938 19.65625 0.078125 C 20.738281 1.117188 21.28125 2.582031 21.28125 4.46875 C 21.28125 6.894531 20.25 8.960938 18.1875 10.671875 C 16.132812 12.390625 13.515625 13.25 10.328125 13.25 C 9.210938 13.25 8.128906 13.144531 7.078125 12.9375 C 6.035156 12.726562 5.070312 12.414062 4.1875 12 C 3.3125 11.582031 2.609375 11.019531 2.078125 10.3125 C 1.546875 9.613281 1.28125 8.816406 1.28125 7.921875 Z M 1.375 7.921875 C 1.375 8.921875 1.675781 9.765625 2.28125 10.453125 C 2.894531 11.148438 3.679688 11.644531 4.640625 11.9375 C 5.609375 12.238281 6.679688 12.410156 7.859375 12.453125 C 8.097656 12.460938 8.328125 12.46875 8.546875 12.46875 C 9.472656 12.46875 10.390625 12.394531 11.296875 12.25 C 12.410156 12.03125 13.4375 11.71875 14.375 11.3125 C 15.320312 10.914062 16.023438 10.46875 16.484375 9.96875 C 17.640625 8.6875 18.21875 7.285156 18.21875 5.765625 C 18.21875 5.285156 18.140625 4.832031 17.984375 4.40625 C 17.828125 3.988281 17.578125 3.59375 17.234375 3.21875 C 16.898438 2.84375 16.414062 2.539062 15.78125 2.3125 C 15.15625 2.09375 14.410156 1.984375 13.546875 1.984375 C 12.890625 1.984375 11.832031 2.039062 10.375 2.15625 C 8.914062 2.28125 7.609375 2.4375 6.453125 2.625 C 4.992188 3.363281 3.96875 3.957031 3.375 4.40625 C 2.039062 5.46875 1.375 6.640625 1.375 7.921875 Z M 6.796875 -12.21875 C 6.796875 -11.007812 6.894531 -9.988281 7.09375 -9.15625 L 14.921875 -17.015625 C 14.109375 -18.253906 12.945312 -18.875 11.4375 -18.875 C 10.675781 -18.875 10.007812 -18.726562 9.4375 -18.4375 C 8.863281 -18.144531 8.410156 -17.773438 8.078125 -17.328125 C 7.753906 -16.890625 7.488281 -16.359375 7.28125 -15.734375 C 7.082031 -15.117188 6.953125 -14.535156 6.890625 -13.984375 C 6.828125 -13.429688 6.796875 -12.84375 6.796875 -12.21875 Z M 7.09375 -9.09375 C 7.65625 -6.832031 9.101562 -5.703125 11.4375 -5.703125 C 12.238281 -5.703125 12.929688 -5.84375 13.515625 -6.125 C 14.097656 -6.414062 14.546875 -6.769531 14.859375 -7.1875 C 15.179688 -7.601562 15.4375 -8.125 15.625 -8.75 C 15.820312 -9.375 15.941406 -9.945312 15.984375 -10.46875 C 16.035156 -10.988281 16.0625 -11.570312 16.0625 -12.21875 C 16.0625 -14.21875 15.691406 -15.800781 14.953125 -16.96875 Z M 7.09375 -9.09375 "/></g></g></g><g fill="#181818" fill-opacity="1"><g transform="translate(142.660653, 156.243254)"><g><path d="M 1.8125 -9.28125 C 1.8125 -12.019531 2.769531 -14.300781 4.6875 -16.125 C 6.644531 -17.988281 9.046875 -18.925781 11.890625 -18.9375 C 11.929688 -18.9375 11.972656 -18.9375 12.015625 -18.9375 C 14.835938 -18.9375 17.203125 -18.039062 19.109375 -16.25 C 21.078125 -14.4375 22.066406 -12.144531 22.078125 -9.375 C 22.078125 -9.332031 22.078125 -9.289062 22.078125 -9.25 C 22.078125 -6.519531 21.117188 -4.253906 19.203125 -2.453125 C 17.296875 -0.617188 14.90625 0.3125 12.03125 0.34375 C 11.988281 0.34375 11.945312 0.34375 11.90625 0.34375 C 9.101562 0.34375 6.734375 -0.550781 4.796875 -2.34375 C 2.804688 -4.1875 1.8125 -6.5 1.8125 -9.28125 Z M 6.265625 -9.25 C 6.265625 -8.320312 6.300781 -7.460938 6.375 -6.671875 C 6.457031 -5.878906 6.617188 -5.035156 6.859375 -4.140625 C 7.109375 -3.253906 7.441406 -2.5 7.859375 -1.875 C 8.242188 -1.269531 8.796875 -0.757812 9.515625 -0.34375 C 10.210938 0.0703125 11.023438 0.28125 11.953125 0.28125 C 11.972656 0.28125 12 0.28125 12.03125 0.28125 C 15.769531 0.25 17.640625 -2.882812 17.640625 -9.125 C 17.640625 -9.1875 17.640625 -9.253906 17.640625 -9.328125 C 17.640625 -10.242188 17.601562 -11.09375 17.53125 -11.875 C 17.457031 -12.664062 17.296875 -13.507812 17.046875 -14.40625 C 16.796875 -15.3125 16.46875 -16.078125 16.0625 -16.703125 C 15.65625 -17.328125 15.097656 -17.851562 14.390625 -18.28125 C 13.703125 -18.6875 12.894531 -18.882812 11.96875 -18.875 C 11.9375 -18.875 11.910156 -18.875 11.890625 -18.875 C 8.140625 -18.84375 6.265625 -15.703125 6.265625 -9.453125 C 6.265625 -9.390625 6.265625 -9.320312 6.265625 -9.25 Z M 6.265625 -9.25 "/></g></g></g><g fill="#181818" fill-opacity="1"><g transform="translate(171.698621, 156.243254)"><g><path d="M 2.59375 0 L 2.59375 -15.6875 L 6.5 -18.59375 L 6.515625 -18.59375 L 6.515625 -13.515625 C 7.304688 -15.117188 8.398438 -16.421875 9.796875 -17.421875 C 11.191406 -18.429688 12.679688 -18.9375 14.265625 -18.9375 C 16.234375 -18.9375 17.769531 -18.335938 18.875 -17.140625 C 19.875 -16.054688 20.375 -14.609375 20.375 -12.796875 L 20.375 0 L 16.46875 0 L 16.46875 -13.546875 C 16.46875 -14.484375 16.367188 -15.3125 16.171875 -16.03125 C 15.972656 -16.757812 15.601562 -17.378906 15.0625 -17.890625 C 14.53125 -18.398438 13.851562 -18.65625 13.03125 -18.65625 C 12.363281 -18.65625 11.570312 -18.40625 10.65625 -17.90625 C 9.738281 -17.40625 8.96875 -16.789062 8.34375 -16.0625 C 7.957031 -15.644531 7.65625 -15.273438 7.4375 -14.953125 C 7.21875 -14.640625 7.019531 -14.316406 6.84375 -13.984375 C 6.675781 -13.648438 6.566406 -13.453125 6.515625 -13.390625 L 6.515625 0 Z M 2.59375 0 "/></g></g></g><g fill="#181818" fill-opacity="1"><g transform="translate(199.829013, 156.243254)"><g><path d="M -0.734375 -18.53125 L -0.734375 -18.59375 L 2.765625 -18.59375 L 2.765625 -20.0625 C 2.765625 -23.125 3.472656 -25.660156 4.890625 -27.671875 C 5.765625 -28.910156 6.835938 -29.90625 8.109375 -30.65625 C 9.367188 -31.414062 10.691406 -31.796875 12.078125 -31.796875 C 13.535156 -31.796875 14.757812 -31.457031 15.75 -30.78125 C 16.164062 -30.5 16.492188 -30.15625 16.734375 -29.75 L 13.65625 -28.03125 C 14.082031 -28.394531 14.359375 -28.859375 14.484375 -29.421875 C 14.492188 -29.566406 14.5 -29.703125 14.5 -29.828125 C 14.5 -30.253906 14.351562 -30.648438 14.0625 -31.015625 C 13.65625 -31.492188 12.992188 -31.734375 12.078125 -31.734375 C 11.242188 -31.734375 10.492188 -31.492188 9.828125 -31.015625 C 9.171875 -30.546875 8.648438 -29.957031 8.265625 -29.25 C 7.890625 -28.550781 7.578125 -27.75 7.328125 -26.84375 C 7.078125 -25.945312 6.90625 -25.117188 6.8125 -24.359375 C 6.71875 -23.597656 6.671875 -22.878906 6.671875 -22.203125 L 6.671875 -18.59375 L 7.328125 -18.59375 L 13.453125 -18.640625 L 13.453125 -16.546875 L 6.671875 -18.515625 L 6.671875 0 L 2.765625 0 L 2.765625 -18.53125 Z M -0.734375 -18.53125 "/></g></g></g><g fill="#181818" fill-opacity="1"><g transform="translate(219.305772, 156.243254)"><g><path d="M 2.71875 0 L 2.71875 -28.546875 L 2.75 -28.546875 L 6.65625 -31.453125 L 6.65625 0 Z M 2.71875 0 "/></g></g></g><g fill="#181818" fill-opacity="1"><g transform="translate(233.822512, 156.243254)"><g><path d="M 0.828125 -18.53125 L 0.828125 -18.59375 L 5.0625 -18.59375 L 5.0625 -18.53125 L 5.09375 -18.53125 L 12.921875 -4.53125 L 18.46875 -18.53125 L 18.5 -18.59375 L 18.5625 -18.59375 L 18.53125 -18.53125 L 9.3125 4.75 L 6.921875 11.109375 L 3.234375 11.109375 L 10.953125 0.40625 Z M 0.828125 -18.53125 "/></g></g></g><g fill="#181818" fill-opacity="1"><g transform="translate(258.449238, 156.243254)"><g/></g></g><g fill="#181818" fill-opacity="1"><g transform="translate(277.799359, 156.243254)"><g><path d="M 3.25 0 L 3.25 -30.140625 L 8.21875 -30.140625 L 8.21875 0 Z M 3.25 0 "/></g></g></g><g fill="#181818" fill-opacity="1"><g transform="translate(294.426741, 156.243254)"><g><path d="M 2.59375 0 L 2.59375 -15.6875 L 6.5 -18.59375 L 6.515625 -18.59375 L 6.515625 -13.515625 C 7.304688 -15.117188 8.398438 -16.421875 9.796875 -17.421875 C 11.191406 -18.429688 12.679688 -18.9375 14.265625 -18.9375 C 16.234375 -18.9375 17.769531 -18.335938 18.875 -17.140625 C 19.875 -16.054688 20.375 -14.609375 20.375 -12.796875 L 20.375 0 L 16.46875 0 L 16.46875 -13.546875 C 16.46875 -14.484375 16.367188 -15.3125 16.171875 -16.03125 C 15.972656 -16.757812 15.601562 -17.378906 15.0625 -17.890625 C 14.53125 -18.398438 13.851562 -18.65625 13.03125 -18.65625 C 12.363281 -18.65625 11.570312 -18.40625 10.65625 -17.90625 C 9.738281 -17.40625 8.96875 -16.789062 8.34375 -16.0625 C 7.957031 -15.644531 7.65625 -15.273438 7.4375 -14.953125 C 7.21875 -14.640625 7.019531 -14.316406 6.84375 -13.984375 C 6.675781 -13.648438 6.566406 -13.453125 6.515625 -13.390625 L 6.515625 0 Z M 2.59375 0 "/></g></g></g><g fill="#181818" fill-opacity="1"><g transform="translate(322.557134, 156.243254)"><g><path d="M 2.59375 0 L 2.59375 -15.6875 L 6.5 -18.59375 L 6.515625 -18.59375 L 6.515625 -13.515625 C 7.304688 -15.117188 8.398438 -16.421875 9.796875 -17.421875 C 11.191406 -18.429688 12.679688 -18.9375 14.265625 -18.9375 C 16.234375 -18.9375 17.769531 -18.335938 18.875 -17.140625 C 19.875 -16.054688 20.375 -14.609375 20.375 -12.796875 L 20.375 0 L 16.46875 0 L 16.46875 -13.546875 C 16.46875 -14.484375 16.367188 -15.3125 16.171875 -16.03125 C 15.972656 -16.757812 15.601562 -17.378906 15.0625 -17.890625 C 14.53125 -18.398438 13.851562 -18.65625 13.03125 -18.65625 C 12.363281 -18.65625 11.570312 -18.40625 10.65625 -17.90625 C 9.738281 -17.40625 8.96875 -16.789062 8.34375 -16.0625 C 7.957031 -15.644531 7.65625 -15.273438 7.4375 -14.953125 C 7.21875 -14.640625 7.019531 -14.316406 6.84375 -13.984375 C 6.675781 -13.648438 6.566406 -13.453125 6.515625 -13.390625 L 6.515625 0 Z M 2.59375 0 "/></g></g></g><g fill="#181818" fill-opacity="1"><g transform="translate(14.950578, 196.361509)"><g><path d="M 1.007812 -1.503906 C 2.117188 -0.339844 4.082031 0.203125 6.011719 0.203125 C 8.726562 0.203125 11.222656 -1.058594 11.222656 -3.039062 C 11.222656 -7.464844 2.1875 -6.507812 2.1875 -9.632812 C 2.1875 -10.863281 3.363281 -11.871094 5.210938 -11.886719 C 7.617188 -11.90625 8.351562 -9.992188 9.324219 -9.035156 C 9.546875 -8.8125 9.785156 -8.726562 10.027344 -8.726562 C 10.503906 -8.726562 10.914062 -9.101562 10.914062 -9.582031 C 10.914062 -9.769531 10.863281 -9.972656 10.707031 -10.164062 C 9.753906 -11.410156 7.960938 -12.175781 5.722656 -12.175781 C 3.246094 -12.175781 1.023438 -11.1875 1.023438 -9.035156 C 1.023438 -4.78125 9.957031 -5.429688 9.957031 -2.324219 C 9.957031 -0.886719 8.367188 -0.1875 6.25 -0.1875 C 3.65625 -0.1875 1.46875 -2.355469 1.46875 -5.15625 C 1.46875 -5.15625 1.347656 -5.140625 1.347656 -5.089844 Z M 1.007812 -1.503906 "/></g></g></g><g fill="#181818" fill-opacity="1"><g transform="translate(29.05596, 196.361509)"><g><path d="M 5.398438 -2.324219 C 5.398438 -0.136719 4.304688 -0.238281 3.980469 -0.136719 C 3.929688 -0.121094 3.929688 0 3.929688 0 L 8.503906 0 C 8.503906 0 8.503906 -0.121094 8.453125 -0.136719 C 8.128906 -0.238281 7.035156 -0.136719 7.035156 -2.324219 L 7.035156 -11.683594 L 7.378906 -11.683594 C 11.015625 -11.683594 12.023438 -8.25 12.144531 -7.976562 C 12.160156 -7.925781 12.28125 -7.925781 12.28125 -7.925781 L 11.203125 -11.957031 L 1.230469 -11.957031 L 0.152344 -7.925781 C 0.152344 -7.925781 0.273438 -7.925781 0.289062 -7.976562 C 0.410156 -8.25 1.433594 -11.683594 5.054688 -11.683594 L 5.398438 -11.683594 Z M 5.398438 -2.324219 "/></g></g></g><g fill="#181818" fill-opacity="1"><g transform="translate(43.519934, 196.361509)"><g><path d="M 7.804688 -11.957031 L 7.496094 -11.957031 L 2.355469 -2.324219 C 1.316406 -0.339844 0.511719 -0.238281 0.203125 -0.136719 C 0.136719 -0.121094 0.136719 0 0.136719 0 L 3.859375 0 C 3.859375 0 3.859375 -0.121094 3.808594 -0.136719 C 3.550781 -0.222656 2.410156 -0.476562 2.410156 -1.433594 C 2.410156 -1.671875 2.476562 -1.980469 2.664062 -2.324219 L 3.824219 -4.492188 L 9.957031 -4.492188 L 11.117188 -2.324219 C 11.546875 -1.519531 11.699219 -1.007812 11.699219 -0.699219 C 11.699219 -0.101562 11.152344 -0.203125 10.949219 -0.136719 C 10.878906 -0.121094 10.878906 0 10.878906 0 L 15.183594 0 C 15.183594 0 15.167969 -0.121094 15.097656 -0.136719 C 14.789062 -0.238281 14.160156 -0.0507812 12.945312 -2.324219 Z M 6.898438 -10.246094 L 9.820312 -4.765625 L 3.960938 -4.765625 Z M 6.898438 -10.246094 "/></g></g></g><g fill="#181818" fill-opacity="1"><g transform="translate(60.886822, 196.361509)"><g><path d="M 4.082031 -5.566406 C 8.777344 -5.566406 6.78125 0.171875 11.152344 0.171875 C 11.546875 0.171875 12.382812 0.0351562 12.792969 -0.957031 L 12.640625 -1.347656 C 12.640625 -1.347656 12.570312 -1.382812 12.570312 -1.28125 C 12.433594 -0.582031 11.972656 -0.238281 11.5625 -0.238281 C 9.566406 -0.238281 10.878906 -4.527344 6.046875 -5.585938 C 9.070312 -5.753906 10.589844 -7.257812 10.589844 -8.761719 C 10.589844 -10.367188 8.882812 -11.957031 5.449219 -11.957031 L 0.546875 -11.957031 C 0.546875 -11.957031 0.546875 -11.835938 0.613281 -11.820312 C 0.9375 -11.714844 2.03125 -11.957031 2.03125 -9.632812 L 2.03125 -2.324219 C 2.03125 -0.136719 0.9375 -0.238281 0.613281 -0.136719 C 0.546875 -0.121094 0.546875 0 0.546875 0 L 5.140625 0 C 5.140625 0 5.140625 -0.121094 5.089844 -0.136719 C 4.75 -0.238281 3.671875 -0.136719 3.671875 -2.324219 L 3.671875 -5.566406 Z M 3.671875 -9.632812 C 3.671875 -11.441406 3.980469 -11.648438 4.304688 -11.683594 L 5.039062 -11.683594 C 7.566406 -11.648438 8.832031 -10.195312 8.832031 -8.761719 C 8.832031 -7.292969 7.515625 -5.839844 4.917969 -5.839844 L 3.671875 -5.839844 Z M 3.671875 -9.632812 "/></g></g></g><g fill="#181818" fill-opacity="1"><g transform="translate(75.828922, 196.361509)"><g><path d="M 1.007812 -1.503906 C 2.117188 -0.339844 4.082031 0.203125 6.011719 0.203125 C 8.726562 0.203125 11.222656 -1.058594 11.222656 -3.039062 C 11.222656 -7.464844 2.1875 -6.507812 2.1875 -9.632812 C 2.1875 -10.863281 3.363281 -11.871094 5.210938 -11.886719 C 7.617188 -11.90625 8.351562 -9.992188 9.324219 -9.035156 C 9.546875 -8.8125 9.785156 -8.726562 10.027344 -8.726562 C 10.503906 -8.726562 10.914062 -9.101562 10.914062 -9.582031 C 10.914062 -9.769531 10.863281 -9.972656 10.707031 -10.164062 C 9.753906 -11.410156 7.960938 -12.175781 5.722656 -12.175781 C 3.246094 -12.175781 1.023438 -11.1875 1.023438 -9.035156 C 1.023438 -4.78125 9.957031 -5.429688 9.957031 -2.324219 C 9.957031 -0.886719 8.367188 -0.1875 6.25 -0.1875 C 3.65625 -0.1875 1.46875 -2.355469 1.46875 -5.15625 C 1.46875 -5.15625 1.347656 -5.140625 1.347656 -5.089844 Z M 1.007812 -1.503906 "/></g></g></g><g fill="#181818" fill-opacity="1"><g transform="translate(89.934303, 196.361509)"><g/></g></g><g fill="#181818" fill-opacity="1"><g transform="translate(97.089765, 196.361509)"><g><path d="M 10.109375 0 L 14.707031 0 C 14.707031 0 14.707031 -0.121094 14.636719 -0.136719 C 14.3125 -0.238281 13.21875 -0.136719 13.21875 -2.324219 L 13.21875 -9.632812 C 13.21875 -11.820312 14.3125 -11.714844 14.636719 -11.820312 C 14.707031 -11.835938 14.707031 -11.957031 14.707031 -11.957031 L 10.109375 -11.957031 C 10.109375 -11.957031 10.109375 -11.835938 10.164062 -11.820312 C 10.503906 -11.714844 11.578125 -11.820312 11.578125 -9.632812 L 11.578125 -6.113281 L 3.671875 -6.113281 L 3.671875 -9.632812 C 3.671875 -11.820312 4.75 -11.714844 5.089844 -11.820312 C 5.140625 -11.835938 5.140625 -11.957031 5.140625 -11.957031 L 0.546875 -11.957031 C 0.546875 -11.957031 0.546875 -11.835938 0.613281 -11.820312 C 0.9375 -11.714844 2.03125 -11.820312 2.03125 -9.632812 L 2.03125 -2.324219 C 2.03125 -0.136719 0.9375 -0.238281 0.613281 -0.136719 C 0.546875 -0.121094 0.546875 0 0.546875 0 L 5.140625 0 C 5.140625 0 5.140625 -0.121094 5.089844 -0.136719 C 4.75 -0.238281 3.671875 -0.136719 3.671875 -2.324219 L 3.671875 -5.839844 L 11.578125 -5.839844 L 11.578125 -2.289062 C 11.5625 -0.136719 10.488281 -0.238281 10.164062 -0.136719 C 10.109375 -0.121094 10.109375 0 10.109375 0 Z M 10.109375 0 "/></g></g></g><g fill="#181818" fill-opacity="1"><g transform="translate(114.371269, 196.361509)"><g><path d="M 8.230469 -12.210938 C 3.3125 -12.210938 0.835938 -9.101562 0.835938 -5.976562 C 0.835938 -2.871094 3.3125 0.257812 8.230469 0.257812 C 13.167969 0.257812 15.628906 -2.871094 15.628906 -5.976562 C 15.628906 -9.101562 13.167969 -12.210938 8.230469 -12.210938 Z M 9.15625 -0.136719 C 4.953125 -0.136719 2.527344 -3.808594 2.527344 -7.035156 C 2.527344 -9.566406 4.03125 -11.820312 7.328125 -11.820312 C 11.527344 -11.820312 13.953125 -8.164062 13.953125 -4.9375 C 13.953125 -2.410156 12.449219 -0.136719 9.15625 -0.136719 Z M 9.15625 -0.136719 "/></g></g></g><g fill="#181818" fill-opacity="1"><g transform="translate(132.882253, 196.361509)"><g><path d="M 2.03125 -2.324219 C 2.03125 -0.136719 0.9375 -0.238281 0.613281 -0.136719 C 0.546875 -0.121094 0.546875 0 0.546875 0 L 10.402344 0 L 11.835938 -3.742188 C 11.835938 -3.742188 11.714844 -3.742188 11.699219 -3.6875 C 11.578125 -3.414062 9.273438 -0.273438 5.996094 -0.273438 L 4.21875 -0.273438 C 3.960938 -0.324219 3.707031 -0.632812 3.671875 -1.980469 L 3.671875 -9.785156 C 3.722656 -11.820312 4.75 -11.714844 5.089844 -11.820312 C 5.140625 -11.835938 5.140625 -11.957031 5.140625 -11.957031 L 0.546875 -11.957031 C 0.546875 -11.957031 0.546875 -11.835938 0.613281 -11.820312 C 0.9375 -11.714844 2.03125 -11.820312 2.03125 -9.632812 Z M 2.03125 -2.324219 "/></g></g></g><g fill="#181818" fill-opacity="1"><g transform="translate(146.90226, 196.361509)"><g><path d="M 2.03125 -2.324219 C 2.03125 -0.136719 0.9375 -0.238281 0.613281 -0.136719 C 0.546875 -0.121094 0.546875 0 0.546875 0 L 10.402344 0 L 11.835938 -3.742188 C 11.835938 -3.742188 11.714844 -3.742188 11.699219 -3.6875 C 11.578125 -3.414062 9.273438 -0.273438 5.996094 -0.273438 L 4.21875 -0.273438 C 3.960938 -0.324219 3.707031 -0.632812 3.671875 -1.980469 L 3.671875 -9.785156 C 3.722656 -11.820312 4.75 -11.714844 5.089844 -11.820312 C 5.140625 -11.835938 5.140625 -11.957031 5.140625 -11.957031 L 0.546875 -11.957031 C 0.546875 -11.957031 0.546875 -11.835938 0.613281 -11.820312 C 0.9375 -11.714844 2.03125 -11.820312 2.03125 -9.632812 Z M 2.03125 -2.324219 "/></g></g></g><g fill="#181818" fill-opacity="1"><g transform="translate(160.922266, 196.361509)"><g><path d="M 8.230469 -12.210938 C 3.3125 -12.210938 0.835938 -9.101562 0.835938 -5.976562 C 0.835938 -2.871094 3.3125 0.257812 8.230469 0.257812 C 13.167969 0.257812 15.628906 -2.871094 15.628906 -5.976562 C 15.628906 -9.101562 13.167969 -12.210938 8.230469 -12.210938 Z M 9.15625 -0.136719 C 4.953125 -0.136719 2.527344 -3.808594 2.527344 -7.035156 C 2.527344 -9.566406 4.03125 -11.820312 7.328125 -11.820312 C 11.527344 -11.820312 13.953125 -8.164062 13.953125 -4.9375 C 13.953125 -2.410156 12.449219 -0.136719 9.15625 -0.136719 Z M 9.15625 -0.136719 "/></g></g></g><g fill="#181818" fill-opacity="1"><g transform="translate(179.433251, 196.361509)"><g><path d="M 6.625 0 L 6.933594 0 L 9.699219 -5.789062 L 12.246094 0 L 12.554688 0 L 17.128906 -9.632812 C 18.105469 -11.664062 18.976562 -11.714844 19.300781 -11.820312 C 19.351562 -11.835938 19.351562 -11.957031 19.351562 -11.957031 L 15.628906 -11.957031 C 15.628906 -11.957031 15.628906 -11.835938 15.695312 -11.820312 C 15.933594 -11.734375 17.0625 -11.496094 17.0625 -10.503906 C 17.0625 -10.265625 16.992188 -9.972656 16.839844 -9.632812 L 13.167969 -1.914062 L 10.640625 -7.769531 L 11.527344 -9.632812 C 12.484375 -11.664062 13.355469 -11.714844 13.679688 -11.820312 C 13.75 -11.835938 13.75 -11.957031 13.75 -11.957031 L 10.742188 -11.957031 C 10.742188 -11.957031 10.742188 -11.835938 10.8125 -11.820312 C 11.035156 -11.75 11.546875 -11.546875 11.546875 -10.828125 C 11.546875 -10.519531 11.460938 -10.144531 11.222656 -9.632812 L 10.488281 -8.113281 L 9.835938 -9.632812 C 9.460938 -10.488281 9.34375 -11 9.34375 -11.304688 C 9.34375 -11.886719 9.804688 -11.75 10.007812 -11.820312 C 10.058594 -11.835938 10.058594 -11.957031 10.058594 -11.957031 L 5.753906 -11.957031 C 5.753906 -11.957031 5.789062 -11.835938 5.839844 -11.820312 C 6.164062 -11.714844 6.96875 -11.988281 8.011719 -9.632812 L 9.546875 -6.132812 L 7.550781 -1.914062 L 4.21875 -9.632812 C 3.859375 -10.488281 3.722656 -11 3.722656 -11.304688 C 3.722656 -11.886719 4.183594 -11.75 4.390625 -11.820312 C 4.457031 -11.835938 4.457031 -11.957031 4.457031 -11.957031 L 0.152344 -11.957031 C 0.152344 -11.957031 0.171875 -11.835938 0.222656 -11.820312 C 0.546875 -11.714844 1.347656 -11.988281 2.390625 -9.632812 Z M 6.625 0 "/></g></g></g><g fill="#181818" fill-opacity="1"><g transform="translate(200.966672, 196.361509)"><g><path d="M -0.136719 1.792969 L 0.136719 1.792969 L 2.9375 -1.382812 L 1.417969 -1.382812 Z M -0.136719 1.792969 "/></g></g></g><g fill="#181818" fill-opacity="1"><g transform="translate(206.499912, 196.361509)"><g/></g></g><g fill="#181818" fill-opacity="1"><g transform="translate(213.655374, 196.361509)"><g><path d="M 9.085938 -0.136719 C 4.882812 -0.136719 2.460938 -3.808594 2.460938 -7.035156 C 2.460938 -9.566406 3.960938 -11.820312 7.257812 -11.820312 C 9.769531 -11.820312 10.214844 -10.007812 11.203125 -9.035156 C 11.425781 -8.8125 11.664062 -8.726562 11.90625 -8.726562 C 12.382812 -8.726562 12.808594 -9.101562 12.808594 -9.582031 C 12.808594 -9.769531 12.757812 -9.972656 12.605469 -10.164062 C 11.683594 -11.359375 10.28125 -12.210938 8.164062 -12.210938 C 3.246094 -12.210938 0.769531 -9.101562 0.769531 -5.976562 C 0.769531 -2.871094 3.246094 0.257812 8.164062 0.257812 C 11.015625 0.257812 12.449219 -0.820312 13.355469 -2.101562 L 13.203125 -2.238281 C 12.433594 -1.09375 11.015625 -0.136719 9.085938 -0.136719 Z M 9.085938 -0.136719 "/></g></g></g><g fill="#181818" fill-opacity="1"><g transform="translate(229.229289, 196.361509)"><g><path d="M 5.398438 -2.324219 C 5.398438 -0.136719 4.304688 -0.238281 3.980469 -0.136719 C 3.929688 -0.121094 3.929688 0 3.929688 0 L 8.503906 0 C 8.503906 0 8.503906 -0.121094 8.453125 -0.136719 C 8.128906 -0.238281 7.035156 -0.136719 7.035156 -2.324219 L 7.035156 -11.683594 L 7.378906 -11.683594 C 11.015625 -11.683594 12.023438 -8.25 12.144531 -7.976562 C 12.160156 -7.925781 12.28125 -7.925781 12.28125 -7.925781 L 11.203125 -11.957031 L 1.230469 -11.957031 L 0.152344 -7.925781 C 0.152344 -7.925781 0.273438 -7.925781 0.289062 -7.976562 C 0.410156 -8.25 1.433594 -11.683594 5.054688 -11.683594 L 5.398438 -11.683594 Z M 5.398438 -2.324219 "/></g></g></g></svg>